<?xml version="1.0" encoding="utf-8"?>
<!-- Generator: Adobe Illustrator 24.1.1, SVG Export Plug-In . SVG Version: 6.00 Build 0)  -->
<svg version="1.1" id="Capa_1" xmlns:xodm="http://www.corel.com/coreldraw/odm/2003"
	 xmlns="http://www.w3.org/2000/svg" xmlns:xlink="http://www.w3.org/1999/xlink" x="0px" y="0px" viewBox="0 0 250 250"
	 style="enable-background:new 0 0 250 250;" xml:space="preserve">
<style type="text/css">
	.st0{fill:none;}
	.st1{fill-rule:evenodd;clip-rule:evenodd;fill:#FFBE4D;}
	.st2{fill-rule:evenodd;clip-rule:evenodd;fill:#A36901;}
	.st3{fill:#A36901;}
</style>
<g id="Capa_x0020_1">
	<rect class="st0" width="250" height="250"/>
	<g id="_1952201236464">
		<path class="st1" d="M120.6,180.9c32.4,0,57.4-25.7,57.4-57.4s-25-57.4-57.4-57.4c-31.6,0-57.4,25.7-57.4,57.4
			S89,180.9,120.6,180.9z M120.6,175c-27.9,0-50.7-22.8-50.7-51.5c0-27.9,22.8-50.7,50.7-50.7c28.7,0,51.5,22.8,51.5,50.7
			C172.1,152.2,149.3,175,120.6,175z"/>
		<path class="st1" d="M167.6,189.7l7.4-6.6l24.3,24.3c3.7,3.7,1.5,8.8-2.2,11L167.6,189.7L167.6,189.7z"/>
		<path class="st2" d="M77.9,120.6c0,13.2,1.5,20.6,10.3,30.9c6.6,8.8,18.4,15.4,30.1,15.4c14,0,19.9-1.5,30.9-10.3
			c2.9-2.2,5.1-4.4,7.4-8.1c6.6-8.8,8.8-20.6,7.4-31.6c-1.5-9.6-6.6-19.1-14-25.7c-1.5-0.7-2.2-1.5-3.7-2.2
			c-19.9-14-45.6-9.6-60.3,9.6C81.6,104.4,77.9,114,77.9,120.6z M121.3,161c-8.8,0-19.1-4.4-25.7-11c-1.5-1.5-2.9-2.9-4.4-4.4
			c-5.9-8.1-8.1-18.4-6.6-27.9c2.2-8.8,6.6-16.2,13.2-22.1c6.6-5.1,14.7-8.8,23.5-8.8c10.3,0,19.1,4.4,25.7,11
			c11,11,14,27.2,7.4,41.2C148.5,152.2,135.3,161,121.3,161L121.3,161z M184.6,128.7v-7.4c0-16.2-7.4-30.9-19.1-42.6
			C155.1,68.4,140.4,61,125,61c-13.2,0-28.7,2.2-39.7,9.6c-2.2,1.5-4.4,4.4-2.9,7.4c2.2,2.2,5.1,0,6.6-0.7c3.7-2.2,6.6-4.4,10.3-5.9
			c13.2-5.1,26.5-5.9,40.4-1.5c4.4,2.2,9.6,4.4,14,7.4c8.1,5.9,15.4,14.7,19.1,23.5c5.1,11,5.9,24.3,3.7,36
			c-4.4,20.6-22.1,38.2-42.6,42.6c-14,2.9-28.7,0.7-41.2-6.6c-11.8-6.6-20.6-17.6-25-30.9c-4.4-11.8-4.4-24.3,0-36.8
			c0.7-2.9,2.2-5.1,3.7-8.1c0.7-1.5,1.5-2.9,1.5-4.4s-0.7-1.5-1.5-2.2c-2.9-1.5-4.4,0.7-5.9,2.9c-1.5,2.9-2.9,5.1-3.7,8.1
			c-1.5,4.4-2.9,8.8-3.7,14c0,4.4,0,8.8,0,13.2c2.2,22.1,14,40.4,32.4,51.5c19.1,10.3,41.2,9.6,60.3,0l1.5-0.7
			c11.8,11.8,22.8,22.8,34.6,34.6c5.9,5.9,6.6,8.1,15.4,8.1c2.9,0,5.9-1.5,8.8-3.7c2.2-2.9,3.7-7.4,3.7-11c0-3.7-4.4-8.8-6.6-11.8
			c-3.7-3.7-8.1-7.4-12.5-11.8L172.8,161l0.7-1.5C178.7,152.2,183.8,138.2,184.6,128.7L184.6,128.7z M166.2,184.6l-8.8-8.8
			c4.4-2.9,7.4-5.9,11.8-8.8l7.4,6.6L166.2,184.6L166.2,184.6z M171.3,189l9.6-10.3l22.8,22.8c4.4,3.7,5.9,8.1,2.2,11.8
			c-4.4,4.4-8.1,2.2-11.8-1.5L171.3,189L171.3,189z"/>
		<path class="st3" d="M99.3,131.6c0.7,1.5,0,3.7-2.2,3.7c-1.5,0.7-3.7,0-3.7-2.2c-0.7-0.7-0.7-1.5-0.7-2.9
			c-1.5-7.4,0.7-14.7,4.4-21.3c4.4-5.9,10.3-11.8,18.4-14c0.7,0,2.2,0,2.9-0.7c2.2,0,3.7,1.5,4.4,2.9c0,2.2-1.5,3.7-2.9,3.7
			c-0.7,0.7-2.2,0.7-2.9,0.7c-5.9,2.2-11,5.9-14,11c-2.9,5.1-4.4,11-3.7,16.9C99.3,130.1,99.3,130.9,99.3,131.6z"/>
		<g>
			<path class="st2" d="M167.6,57.4l8.1-18.4c1.5-3.7-4.4-5.9-5.9-2.2l-8.1,19.1C160.3,58.8,165.4,62.5,167.6,57.4z"/>
			<path class="st2" d="M135.3,47.8l-2.9-19.9c-0.7-3.7-6.6-2.9-5.9,0.7l2.2,20.6C129.4,52.9,136,53.7,135.3,47.8z"/>
			<path class="st2" d="M188.2,77.2l17.6-8.1c3.7-1.5,5.9,4.4,2.2,5.9l-18.4,8.1C186,84.6,182.4,79.4,188.2,77.2z"/>
		</g>
		<path class="st2" d="M75,191.9l-13.2,15.4c-2.2,2.9-7.4-1.5-4.4-4.4l13.2-15.4C72.8,184.6,78.7,187.5,75,191.9z"/>
		<path class="st2" d="M49.3,166.2l-18.4,7.4c-3.7,1.5-5.9-4.4-2.2-5.9l19.1-7.4C50.7,158.8,54.4,164,49.3,166.2z"/>
		<path class="st2" d="M101.5,201.5l0.7,19.9c0,3.7,6.6,3.7,6.6,0l-1.5-21.3C107.4,197.1,101.5,195.6,101.5,201.5z"/>
		<path class="st2" d="M219.1,111l-19.9,1.5c-3.7,0-4.4-6.6,0-6.6l20.6-0.7C222.8,105.1,225,111,219.1,111z"/>
	</g>
</g>
</svg>
