<?xml version="1.0" encoding="utf-8"?>
<!-- Generator: Adobe Illustrator 24.1.1, SVG Export Plug-In . SVG Version: 6.00 Build 0)  -->
<svg version="1.1"
	 id="svg24" sodipodi:docname="721a0df9a9f8f91a6da9d7428b3faa43.svg" xmlns:inkscape="http://www.inkscape.org/namespaces/inkscape" xmlns:sodipodi="http://sodipodi.sourceforge.net/DTD/sodipodi-0.dtd" xmlns:svg="http://www.w3.org/2000/svg"
	 xmlns="http://www.w3.org/2000/svg" xmlns:xlink="http://www.w3.org/1999/xlink" x="0px" y="0px" viewBox="0 0 861 861"
	 style="enable-background:new 0 0 861 861;" xml:space="preserve">
<style type="text/css">
	.st0{fill:none;}
	.st1{fill-rule:evenodd;clip-rule:evenodd;fill:#DCC8FF;}
	.st2{fill-rule:evenodd;clip-rule:evenodd;fill:#4806C1;}
</style>
<sodipodi:namedview  bordercolor="#666666" borderopacity="1.0" id="namedview26" inkscape:pagecheckerboard="0" inkscape:pageopacity="0.0" inkscape:pageshadow="2" pagecolor="#ffffff">
	</sodipodi:namedview>
<g id="Capa_x0020_1" inkscape:groupmode="layer" inkscape:label="Capa 1">
	<rect id="rect7" class="st0" width="861" height="861"/>
	<path id="path9" class="st1" d="M402.5,621.2c4.1,1.6,11.4,0,13.8-3.3c80.5-57.7,123.6-98.4,130.1-211.4v-13.8
		c152,24.4,215.5,107.3,144.7,278.1l8.1,79.7l-74-34.1C528.5,740.7,432.5,726,402.5,621.2z"/>
	<path id="path11" class="st1" d="M203.3,450.4l55.3,72.4l25.2,25.2l31.7,3.3L335,531l122.8-183.7l1.6-28.5h-9.8L314.6,513
		c-8.1,10.6-13.8,14.6-23.6,4.9l-83.7-87L203.3,450.4z"/>
	<path id="path13" class="st2" d="M174.8,557.7c0,4.1-2.4,10.6-3.3,14.6c-1.6,8.1-3.3,15.4-5.7,23.6c-3.3,13-6.5,26-10.6,39
		c-1.6,5.7-4.1,15.4-2.4,21.1c0.8,4.1,2.4,4.9,5.7,5.7c8.9,0.8,26-7.3,34.1-11.4c15.4-6.5,30.9-13.8,47.2-20.3
		c6.5-2.4,14.6-5.7,22-5.7c5.7,0,9.8,1.6,14.6,3.3c7.3,2.4,13.8,4.9,22,6.5c30.9,6.5,56.9,7.3,87.8,0l2.4-0.8l0.8,1.6
		c22.8,43.9,56.9,78.1,104.1,94.3c35.8,13,69.1,13,106.5,4.9c20.3-4.9,13-11.4,36.6-1.6c11.4,4.9,22.8,9.8,34.1,14.6
		c7.3,3.3,13.8,5.7,21.1,8.9c2.4,0.8,8.9,3.3,11.4,4.1c11.4,0,10.6-11.4,8.9-20.3c-1.6-12.2-6.5-23.6-9.8-35.8
		c-1.6-5.7-3.3-11.4-4.9-17.9c-0.8-3.3-1.6-6.5-2.4-10.6c0-6.5,4.1-11.4,7.3-17.1c47.2-69.1,35.8-170.7-25.2-227.6
		c-4.1-3.3-8.1-6.5-12.2-9.8c-10.6-9.8-26.8-19.5-39.8-24.4c-26.8-11.4-44.7-14.6-74-14.6h-2.4v-2.4c-1.6-24.4-29.3-74.8-46.3-92.7
		c-7.3-7.3-14.6-15.4-22.8-22.8c-8.9-7.3-17.9-13-26.8-18.7c-10.6-6.5-20.3-11.4-31.7-16.3c-43.1-16.3-88.6-20.3-133.3-8.1
		c-40.7,10.6-77.2,33.3-104.9,65c-28.5,31.7-46.3,71.5-52,113c-5.7,47.2,4.9,93.5,27.6,134.2C161,537.4,174.8,556.1,174.8,557.7z
		 M556.9,628.5h67.5c10.6,0,10.6-20.3,0-20.3h-70.7C545.5,608.1,540.7,628.5,556.9,628.5z M150.4,428.5
		c0-66.7,32.5-126.8,88.6-162.6c54.5-35,122.8-39.8,182.1-13.8c17.9,8.1,31.7,18.7,47.2,30.9c18.7,16.3,34.1,36.6,44.7,59.4
		c31.7,62.6,24.4,138.2-16.3,195.1c-2.4,4.9-5.7,8.9-9.8,13c-4.9,5.7-9.8,11.4-15.4,17.1c-6.5,5.7-13,10.6-20.3,15.4
		c-38.2,26.8-81.3,39-127.6,33.3c-14.6-1.6-28.5-4.9-43.1-8.9c-4.1-1.6-8.9-3.3-13-4.9c-1.6,0-4.9-1.6-6.5-1.6
		c-2.4,0-10.6,3.3-13,4.9c-8.1,2.4-16.3,5.7-25.2,9.8c-8.1,3.3-16.3,6.5-24.4,9.8c-4.9,2.4-9.8,4.1-14.6,6.5l-4.1,2.4v-4.9
		c0.8-9.8,4.1-17.9,6.5-27.6c2.4-10.6,5.7-22,8.9-33.3c0.8-3.3,2.4-9.8,2.4-13.8c0-2.4-1.6-4.9-3.3-7.3c-4.1-4.9-8.1-9.8-12.2-15.4
		C162.6,501.6,150.4,464.2,150.4,428.5z M622,512.2l-86.2-0.8l2.4-4.1c15.4-32.5,16.3-67.5,16.3-102.4v-4.1
		c9.8,0.8,21.1,4.1,31.7,5.7c12.2,1.6,22.8,5.7,33.3,10.6c42.3,21.1,74,56.9,86.2,102.4c12.2,43.1,4.9,89.4-19.5,126.8
		c-4.1,4.9-8.1,10.6-11.4,15.4c-4.9,8.1-2.4,10.6-0.8,17.9c2.4,8.1,4.9,15.4,6.5,22.8c2.4,7.3,4.9,16.3,4.9,23.6l0.8,3.3l-4.1-0.8
		c-4.1-0.8-8.9-2.4-13-4.1c-6.5-3.3-12.2-5.7-18.7-8.1c-6.5-2.4-12.2-5.7-17.9-8.1c-2.4-0.8-8.1-3.3-9.8-3.3c-8.9,0-17.9,5.7-26,8.1
		c-47.2,11.4-95.9,4.9-135.8-23.6c-17.1-13-44.7-39.8-49.6-61.8l1.6-0.8c8.1-4.1,16.3-7.3,24.4-11.4c14.6-6.5,28.5-16.3,41.5-26.8
		c2.4-2.4,7.3-6.5,11.4-7.3c1.6-0.8,4.1-0.8,6.5-0.8c3.3,0,7.3,0,10.6,0l104.9,0.8c4.1,0,10.6,0,15.4-2.4c3.3-0.8,4.9-4.1,4.9-8.1
		c0-8.9-8.9-10.6-16.3-11.4c-11.4-1.6-22.8,0-33.3,0c-23.6,0-46.3,0-69.9,0h-4.9l2.4-4.9c4.1-5.7,10.6-12.2,13-18.7v-2.4h2.4
		c20.3,0,39.8,0,60.2,0c10.6,0,21.1,1.6,30.9,0.8c6.5-0.8,15.4-2.4,15.4-10.6C632.5,517.1,627.7,513,622,512.2z"/>
	<path id="path15" class="st2" d="M295.1,439.8l15.4-19.5c18.7-24.4,36.6-48.8,55.3-73.2c8.9-12.2,18.7-24.4,27.6-36.6
		c4.9-5.7,8.1-9.8,15.4-13c8.1-4.9,18.7-5.7,27.6-4.1c7.3,1.6,13.8,5.7,19.5,10.6c13.8,11.4,17.9,33.3,9.8,49.6
		c-3.3,4.9-7.3,11.4-10.6,16.3c-3.3,4.9-6.5,9.8-9.8,14.6c-8.1,13-17.1,26-25.2,39L381.9,482c-10.6,16.3-21.1,31.7-30.9,48
		c-2.4,3.3-4.9,7.3-7.3,10.6c-8.1,12.2-13,20.3-30.1,24.4c-16.3,3.3-32.5-1.6-43.1-14.6L203,473.2h-0.8c-4.1-5.7-7.3-8.9-9.8-16.3
		c-6.5-17.9,0-36.6,15.4-47.2s35.8-9.8,49.6,1.6c5.7,4.9,12.2,8.9,17.9,13.8c4.9,4.1,10.6,8.1,16.3,12.2
		C292.7,438.2,294.3,439,295.1,439.8z M299.2,469.1c-1.6,0-35.8-26-36.6-26.8c-6.5-4.9-13-9.8-18.7-14.6c-6.5-4.9-16.3-5.7-23.6-0.8
		c-5.7,4.1-11.4,13-7.3,22.8c1.6,4.9,4.1,6.5,6.5,9.8l67.5,77.2c5.7,6.5,13.8,8.9,22.8,7.3c9.8-2.4,12.2-8.9,17.1-15.4
		c1.6-3.3,4.1-6.5,5.7-9.8c10.6-16.3,22-32.5,31.7-48.8l38.2-57.7c8.1-13,17.1-26,25.2-39c1.6-2.4,17.1-26.8,18.7-29.3
		c4.1-8.1,2.4-18.7-4.1-23.6c-2.4-2.4-5.7-4.9-10.6-5.7c-4.1-0.8-8.9-0.8-13,1.6c-4.1,1.6-5.7,4.9-8.1,7.3
		c-9.8,12.2-18.7,24.4-27.6,36.6c-18.7,24.4-37.4,48.8-56.1,73.2L299.2,469.1z"/>
	<path id="path17" class="st2" d="M469.9,205.7l25.2-62.6c5.7-13-14.6-21.1-20.3-8.1l-26,65.9C444.7,212.2,462.6,224.4,469.9,205.7z
		"/>
	<path id="path19" class="st2" d="M356.1,176.4l-11.4-66.7c-2.4-13-23.6-9.8-21.1,4.1l12.2,69.9
		C337.4,195.1,360.2,196.8,356.1,176.4z"/>
	<path id="path21" class="st2" d="M542.3,271.6l61-28.5c12.2-6.5,21.1,13,8.9,19.5L548,292.7C537.4,297.6,523.6,280.5,542.3,271.6z"
		/>
</g>
</svg>
