<?xml version="1.0" encoding="utf-8"?>
<!-- Generator: Adobe Illustrator 24.1.1, SVG Export Plug-In . SVG Version: 6.00 Build 0)  -->
<svg version="1.1"
	 id="svg29" sodipodi:docname="0860918dcb44361f58db5bc328848cf8.svg" xmlns:inkscape="http://www.inkscape.org/namespaces/inkscape" xmlns:sodipodi="http://sodipodi.sourceforge.net/DTD/sodipodi-0.dtd" xmlns:svg="http://www.w3.org/2000/svg"
	 xmlns="http://www.w3.org/2000/svg" xmlns:xlink="http://www.w3.org/1999/xlink" x="0px" y="0px" viewBox="0 0 661 661"
	 style="enable-background:new 0 0 661 661;" xml:space="preserve">
<style type="text/css">
	.st0{fill:none;}
	.st1{fill-rule:evenodd;clip-rule:evenodd;fill:#DCC8FF;}
	.st2{fill-rule:evenodd;clip-rule:evenodd;fill:#4806C1;}
	.st3{fill:#4806C1;}
</style>
<sodipodi:namedview  bordercolor="#666666" borderopacity="1.0" id="namedview31" inkscape:pagecheckerboard="0" inkscape:pageopacity="0.0" inkscape:pageshadow="2" pagecolor="#ffffff">
	</sodipodi:namedview>
<g id="Capa_x0020_1" inkscape:groupmode="layer" inkscape:label="Capa 1">
	<rect id="rect7" class="st0" width="661" height="661"/>
	<g id="_2681629114944">
		<polygon id="polygon9" class="st1" points="620.5,322.6 620.5,310.2 464.9,204.3 452.5,215.9 451.7,222.5 608.1,335.1 		"/>
		<polygon id="polygon11" class="st1" points="407.9,221.7 243.2,99.3 235.8,115.8 236.6,131.5 380.6,234.9 		"/>
		<path id="path13" class="st1" d="M87.7,156.4c8.3,1.7,16.5,8.3,24,16.5l32.3,34.7c3.3,3.3,12.4,15.7,2.5,25.6
			c-6.6,6.6-14.9,16.5-21.5,22.3c-14.1,14.9-24.8,51.3-4.1,79.4c24.8,40.5,54.6,71.1,87.7,93.5c73.6,57.9,98.4,37.2,135.7-1.7
			c5.8-6.6,16.5-9.1,24.8,0c15.7,17.4,45.5,39.7,48,61.2c12.4-7.4,19-19,15.7-38.9L383,396.3l-34.7-22.3l-38.9,43.8
			c-25.6,19.9-48.8,14.9-72-6.6L158,334.2c-13.2-16.5-19.9-33.1-15.7-48.8l35.6-31.4c20.7-13.2,24-29.8,14.1-48.8l-63.7-63.7H87.7
			V156.4z"/>
		<polygon id="polygon15" class="st1" points="604.7,98.4 597.3,115 428.5,228.3 403.7,211.8 569.2,98.4 		"/>
		<polygon id="polygon17" class="st1" points="250.7,338.4 258.1,322.6 426.9,209.3 451.7,225.8 286.2,338.4 		"/>
		<path id="path19" class="st2" d="M268.9,107.5l56.3,39.7c3.3,2.5,6.6,5,9.9,7.4l50.5,34.7c9.1,6.6,18.2,13.2,27.3,19
			c3.3,2.5,9.1,6.6,13.2,7.4c3.3,0,5.8-0.8,9.1-2.5c5-3.3,9.1-7.4,14.1-10.8c17.4-11.6,34.7-23.2,51.3-35.6
			c16.5-10.8,33.9-22.3,49.6-34.7l30.6-20.7c1.7-1.7,4.1-2.5,5.8-4.1h-244h-19c-5.8-0.8-9.9-4.1-9.9-9.9c0-7.4,2.5-11.6,9.9-11.6
			h284.6c10.8,0,23.2,9.9,23.2,20.7v225c0,9.1-11.6,20.7-20.7,20.7H245.7c-13.2,0-23.2-11.6-23.2-24V112.5
			c0-13.2,8.3-26.5,23.2-26.5h39.7c8.3,0,12.4,14.1,4.1,19.9C285.4,108.4,275.5,107.5,268.9,107.5z M244.9,321c2.5-1.7,5-3.3,7.4-5
			l74.5-52.1c3.3-2.5,6.6-4.1,9.9-6.6c3.3-2.5,6.6-5,9.9-6.6l44.7-31.4c-2.5-1.7-5.8-3.3-8.3-5l-85.2-59.6c-9.9-6.6-19-13.2-29-20.7
			c-5-3.3-10.8-7.4-15.7-10.8c-2.5-1.7-5.8-3.3-8.3-5V321z M444.3,232.5c-12.4,6.6-21.5,8.3-34.7,0c-5.8,4.1-11.6,8.3-17.4,12.4
			l-64.5,44.7c-3.3,2.5-5.8,4.1-9.1,6.6L268,330.9h316.8l-36.4-25.6c-2.5-1.7-5-3.3-7.4-5c-9.1-7.4-5-20.7,6.6-20.7
			c4.1,0,14.1,8.3,17.4,10.8l44.7,31.4V117.5c-5,3.3-17.4,11.6-19.9,14.1c-8.3,5.8-17.4,11.6-24.8,17.4l-48,33.1
			c-3.3,2.5-5.8,4.1-9.1,6.6c-3.3,2.5-6.6,4.1-9.1,5.8l-19,13.2c-2.5,2.5-5.8,4.1-9.1,6.6c-2.5,1.7-4.1,3.3-6.6,5l43,30.6
			c2.5,1.7,5.8,4.1,9.1,5.8c17.4,12.4,3.3,29-9.9,19.9l-60.4-42.2C445.1,233.3,445.1,232.5,444.3,232.5z M30.6,249.8
			c0-36.4,19.9-79.4,45.5-105.9c19.9-19.9,51.3-21.5,72-1.7c9.9,9.9,19.9,19.9,29.8,29.8c5.8,5.8,11.6,11.6,16.5,17.4
			c3.3,3.3,8.3,8.3,9.9,12.4c3.3,5,5.8,12.4,5.8,18.2c0,21.5-11.6,29.8-27.3,41.4c-6.6,5.8-17.4,11.6-23.2,18.2
			c-5.8,5.8-6.6,12.4-6.6,20.7c0,13.2,27.3,45.5,36.4,56.3c4.1,5.8,9.9,11.6,14.9,16.5s10.8,9.9,16.5,14.9c5,5,10.8,9.1,17.4,14.1
			c17.4,13.2,42.2,33.9,61.2,10.8c1.7-3.3,4.1-6.6,6.6-9.1c3.3-5,7.4-9.9,10.8-14.9c3.3-3.3,8.3-10.8,11.6-13.2
			c9.1-7.4,15.7-9.1,28.1-9.1c21.5,0,40.5,24.8,54.6,38.9c9.9,10.8,22.3,20.7,30.6,33.9c9.1,16.5,8.3,32.3-0.8,48.8
			c-5.8,8.3-17.4,19-25.6,24.8c-5.8,5-20.7,15.7-27.3,15.7c-7.4,0-11.6-4.1-11.6-11.6c0-7.4,9.1-9.9,14.1-13.2
			c12.4-7.4,35.6-23.2,35.6-38.9c0-9.1-2.5-15.7-8.3-22.3c-6.6-7.4-14.9-14.1-21.5-21.5c-7.4-7.4-28.1-30.6-38.1-33.1
			c-9.9-1.7-15.7,3.3-21.5,10.8c-14.9,19.9-33.1,51.3-62.9,46.3c-10.8-1.7-17.4-5-26.5-10.8c-23.2-14.1-41.4-29-60.4-48.8
			c-17.4-17.4-35.6-39.7-48-61.2c-6.6-11.6-11.6-24.8-7.4-38.9c3.3-10.8,10.8-19,19-25.6c8.3-7.4,17.4-13.2,24.8-19.9
			c5.8-4.1,12.4-9.9,12.4-17.4c0-13.2-5.8-14.9-14.1-23.2c-5.8-5.8-11.6-12.4-18.2-18.2c-5.8-5.8-11.6-12.4-18.2-18.2
			c-10.8-10.8-11.6-12.4-27.3-12.4c-16.5,0-34.7,28.1-41.4,40.5c-5,10.8-9.1,19.9-12.4,30.6c-6.6,23.2-5.8,48-0.8,71.1
			c5,24,14.1,46.3,24,67.8c6.6,12.4,14.1,24,21.5,35.6c7.4,10.8,15.7,23.2,25.6,32.3c23.2,23.2,43,43,72,58.7
			c9.1,5,18.2,9.9,27.3,14.1c9.9,4.1,19.9,8.3,29.8,11.6c35.6,11.6,52.1,13.2,87.7,9.1c14.1-1.7,23.2,18.2-2.5,22.3
			c-29,4.1-56.3,0-84.4-9.1c-36.4-11.6-65.4-24.8-96-47.2c-24-16.5-45.5-38.1-63.7-60.4C84.4,412,71.1,392.1,62,373.9
			c-8.3-16.5-14.9-32.3-20.7-50.5c-4.1-11.6-7.4-24-9.1-35.6C30.6,275.5,30.6,263.1,30.6,249.8z"/>
		<path id="path21" class="st3" d="M563.4,440.9c-1.7-5.8,0.8-11.6,5.8-13.2c5-2.5,10.8,0.8,13.2,5.8c11.6,29,13.2,57.1,6.6,83.6
			c-7.4,25.6-23.2,50.5-48,73.6c-4.1,3.3-9.9,3.3-14.1-0.8c-3.3-3.3-3.3-9.9,0.8-14.1c21.5-19.9,35.6-41.4,41.4-64.5
			C575,488.9,573.3,465.8,563.4,440.9z"/>
		<path id="path23" class="st3" d="M52.1,117.5c-2.5,5-8.3,6.6-13.2,3.3c-5-2.5-6.6-9.1-3.3-13.2c11.6-19.9,27.3-32.3,46.3-37.2
			c18.2-5,39.7-2.5,62.9,5.8c5,1.7,8.3,7.4,6.6,12.4c-2.5,5-7.4,8.3-13.2,5.8c-19.9-6.6-36.4-8.3-51.3-4.1
			C72.8,93.5,61.2,102.6,52.1,117.5z"/>
		<path id="path25" class="st3" d="M493.9,466.6c-0.8-5.8,2.5-10.8,8.3-11.6c5-1.7,9.9,2.5,11.6,7.4c2.5,17.4,0,32.3-7.4,44.7
			c-7.4,11.6-19.9,21.5-36.4,28.1c-5,1.7-10.8-0.8-13.2-5.8c-1.7-5,0.8-10.8,5.8-13.2c12.4-5,21.5-11.6,27.3-19.9
			C494.7,488.1,495.5,478.2,493.9,466.6z"/>
	</g>
</g>
</svg>
