<?xml version="1.0" encoding="utf-8"?>
<!-- Generator: Adobe Illustrator 24.1.1, SVG Export Plug-In . SVG Version: 6.00 Build 0)  -->
<svg version="1.1"
	 id="svg28" sodipodi:docname="9c8a6a82c888e71ab2a9aa2057a76088.svg" xmlns:inkscape="http://www.inkscape.org/namespaces/inkscape" xmlns:sodipodi="http://sodipodi.sourceforge.net/DTD/sodipodi-0.dtd" xmlns:svg="http://www.w3.org/2000/svg"
	 xmlns="http://www.w3.org/2000/svg" xmlns:xlink="http://www.w3.org/1999/xlink" x="0px" y="0px" viewBox="0 0 861 861"
	 style="enable-background:new 0 0 861 861;" xml:space="preserve">
<style type="text/css">
	.st0{fill-rule:evenodd;clip-rule:evenodd;fill:#DCC8FF;}
	.st1{fill-rule:evenodd;clip-rule:evenodd;fill:#4806C1;}
	.st2{fill:#4806C1;}
	.st3{fill:none;}
</style>
<sodipodi:namedview  bordercolor="#666666" borderopacity="1.0" id="namedview30" inkscape:pagecheckerboard="0" inkscape:pageopacity="0.0" inkscape:pageshadow="2" pagecolor="#ffffff">
	</sodipodi:namedview>
<g id="Capa_x0020_1" inkscape:groupmode="layer" inkscape:label="Capa 1">
	<path id="path7" class="st0" d="M618.6,421.7c73.1,0,132.3-58.5,132.3-130c0-72.3-59.2-130-132.3-130c-72.3,0-131.6,57.7-131.6,130
		C487.1,363.2,546.3,421.7,618.6,421.7z M618.6,347c31.5,0,56.9-24.6,56.9-55.4s-25.4-56.2-56.9-56.2c-30.8,0-56.2,25.4-56.2,56.2
		S587.8,347,618.6,347z"/>
	<path id="path9" class="st1" d="M142.3,634c0.8-16.2,15.4-16.9,16.2-37.7c0.8-12.3-10-43.9-26.9-53.9c-23.9-13.8-33.9,12.3-33.9-40
		c0-26.9,6.9-18.5,27.7-23.9c25.4-6.9,37.7-49.2,30.8-66.9c-5.4-14.6-20-16.9-12.3-31.5c1.5-3.1,23.1-24.6,26.2-26.2
		c15.4-8.5,20,9.2,34.6,13.8c18.5,4.6,59.2-8.5,64.6-34.6c4.6-23.1-1.5-25.4,25.4-25.4c20.8,0,32.3-4.6,33.9,15.4
		c1.5,16.9,6.2,26.9,18.5,33.9c80,43.1,46.9-43.1,103.9,16.9c15.4,16.9-1.5,24.6-6.2,32.3c-7.7,13.8-5.4,25.4,0,38.5
		c6.9,15.4,9.2,23.9,21.5,30.8c15.4,8.5,30.8-0.8,34.6,14.6c2.3,12.3,3.1,40-5.4,45.4c-15.4,9.2-39.2-6.9-53.9,49.2
		c-5.4,20.8,6.2,28.5,12.3,37.7c9.2,13.8-7.7,24.6-13.8,30.8c-8.5,9.2-16.2,20.8-30,7.7c-20.8-19.2-56.9-5.4-71.6,10
		c-13.8,14.6-6.2,30-14.6,36.9c-6.9,5.4-37.7,3.8-45.4,1.5c-10-4.6-6.9-12.3-9.2-22.3c-5.4-25.4-43.1-36.9-55.4-36.2
		c-22.3,0-28.5,20.8-41.5,14.6c-3.8-1.5-13.1-13.1-16.2-15.4C150.8,644.8,145.4,642.5,142.3,634z M120.8,564c5.4,3.1,3.1,0.8,6.9,10
		c1.5,3.8,3.8,8.5,4.6,12.3c4.6,10.8,0.8,14.6-5.4,21.5c-10.8,13.1-13.1,33.9-0.8,46.9c22.3,22.3,34.6,41.5,61.6,34.6
		c25.4-6.9,8.5-23.9,45.4-8.5c10.8,5.4,12.3,4.6,13.8,17.7c1.5,18.5,11.5,31.5,29.2,35.4c83.9,16.2,70.8-40,81.6-48.5
		c2.3-2.3,18.5-10,23.1-10.8c13.1-2.3,11.5,5.4,20.8,10.8c20.8,10.8,36.2,3.8,47.7-8.5c6.9-6.9,26.2-23.1,30-34.6
		c8.5-28.5-13.1-35.4-14.6-46.9c-0.8-4.6,5.4-20,7.7-24.6c5.4-10.8,6.9-7.7,20.8-9.2c16.9-3.1,30-16.2,31.5-33.9
		c7.7-92.3-39.2-58.5-51.6-78.5c-2.3-3.1-9.2-20-9.2-23.9c-0.8-14.6,36.2-32.3,4.6-66.9c-52.3-56.9-62.3-20.8-81.6-13.8
		c-7.7,2.3-15.4-3.1-23.9-6.2c-12.3-5.4-9.2-4.6-10.8-19.2c-2.3-17.7-12.3-31.5-30.8-34.6c-16.2-3.1-44.6-2.3-57.7,5.4
		c-33.9,18.5,4.6,40.8-43.9,53.9c-10,3.1-13.8-3.8-19.2-7.7c-31.5-25.4-69.2,16.2-78.5,33.1c-10.8,20.8,0,36.2,9.2,46.9
		c7.7,10,2.3,13.8-2.3,24.6c-3.8,10.8-3.1,13.8-15.4,15.4c-21.5,3.1-33.1,7.7-38.5,26.9c-3.1,10.8-3.1,49.2,3.1,59.2
		C90.8,564.8,111.6,559.4,120.8,564z M243.1,519.4c-12.3-75.4,101.6-90.8,112.3-19.2C367.8,577.1,254.7,592.5,243.1,519.4z
		 M288.5,590.9c14.6,0,27.7-0.8,40-5.4c28.5-10,50.8-39.2,51.6-72.3c1.5-48.5-36.9-84.6-83.1-83.9c-87.7,8.5-105.4,110.8-36.9,151.6
		C269.3,587.1,277.8,587.8,288.5,590.9z"/>
	<path id="path11" class="st1" d="M507.1,202.4c5.4-6.9,14.6-16.2,21.5-21.5c16.9,4.6,16.2,20.8,46.2,7.7
		c35.4-14.6,20.8-30.8,28.5-37.7c6.9-3.8,25.4-4.6,30.8,0c10.8,11.5-4.6,24.6,29.2,37.7c31.5,12.3,28.5-3.1,46.2-8.5
		c37.7,32.3,14.6,22.3,10,44.6c-2.3,10,1.5,17.7,4.6,25.4c12.3,31.5,23.9,16.9,37.7,27.7l0.8,31.5c-24.6,4.6-29.2,4.6-38.5,26.2
		c-12.3,30.8-0.8,26.9,6.9,46.2c-3.1,7.7-15.4,20-23.1,23.1c-6.9,0-10-21.5-46.2-6.9c-28.5,12.3-21.5,25.4-26.9,37.7l-31.5,0.8
		c-6.2-16.9,1.5-26.2-26.9-37.7c-35.4-15.4-38.5,5.4-46.2,6.2c-8.5-3.1-19.2-14.6-23.1-23.1c8.5-20,20-15.4,6.2-47.7
		c-9.2-21.5-13.8-20-36.9-24.6c-10.8-52.3,14.6-23.1,32.3-47.7C532.5,227.8,511.7,213.9,507.1,202.4z M575.5,162.4l-17.7,7.7
		c-26.2-16.2-30-22.3-56.2,3.1c-19.2,18.5-27.7,30.8-6.2,56.2l-6.9,20c-15.4,3.8-36.9-0.8-37.7,43.1c0,55.4,30.8,29.2,40.8,50.8
		c2.3,3.8,3.1,7.7,3.8,11.5c-15.4,26.2-19.2,30.8,3.1,54.6c28.5,30.8,38.5,18.5,56.9,6.9l20,7.7c7.7,23.9,3.8,40,56.9,36.2
		c13.8-0.8,22.3-8.5,26.2-19.2c5.4-16.9,0.8-20,23.9-24.6c27.7,24.6,48.5,4.6,63.9-13.1c25.4-30-10.8-37.7,0-60
		c11.5-22.3,40.8,3.8,40.8-50.8c0-42.3-20-37.7-36.9-43.1l-8.5-19.2c9.2-16.2,27.7-23.1-3.8-55.4c-6.9-6.9-12.3-16.2-26.2-17.7
		c-16.2-1.5-22.3,6.9-31.5,13.1c-21.5-6.9-15.4-6.2-20.8-25.4c-3.1-10-13.1-18.5-26.9-20C578.6,119.3,581.7,140.8,575.5,162.4z
		 M580.9,298.5c-6.2-52.3,70.8-59.2,76.2-10.8C664,340.1,586.3,346.2,580.9,298.5z M611.7,355.5c39.2,0.8,71.6-24.6,70-65.4
		c-1.5-22.3-11.5-33.1-22.3-43.9c-12.3-12.3-30-16.9-50-14.6c-51.6,12.3-70,65.4-34.6,103.9C586.3,348.6,592.5,350.9,611.7,355.5
		L611.7,355.5z"/>
	<path id="path13" class="st0" d="M297.8,333.9c57.7-1.5,16.2,30.8,53.9,45.4c23.9,9.2,20.8,4.6,35.4-5.4c16.2-10.8,23.1,0,31.5,6.9
		c9.2,8.5,21.5,10.8,20,30c-0.8,14.6-16.2,13.1-13.1,32.3c5.4,46.2,43.1,20.8,49.2,49.2c3.1,12.3,2.3,37.7-5.4,44.6
		c-10,10-25.4,2.3-34.6,15.4c-26.2,41.5,17.7,44.6,0,69.2c-3.1,4.6-20,22.3-25.4,24.6c-19.2,8.5-22.3-6.9-33.9-10
		c-10-3.1-30.8,5.4-36.9,11.5c-6.2,6.2-3.8,10-6.2,19.2c-1.5,8.5-3.8,8.5-6.9,15.4l-8.5,0.8c-7.7,5.4-37.7,2.3-43.9-3.1
		c-12.3-10-2.3-25.4-16.9-34.6c-44.6-30.8-43.1,23.1-73.9-5.4c-47.7-43.1-4.6-37.7-9.2-65.4c-10-53.9-47.7-13.8-49.2-55.4
		c-3.1-70,28.5-23.1,44.6-60.8c8.5-20,8.5-22.3-3.1-36.9c-13.8-17.7,2.3-31.5,19.2-46.2c4.6-3.8,11.5-6.9,19.2-4.6
		c16.2,3.8,14.6,19.2,36.9,10.8c17.7-6.2,22.3-8.5,25.4-26.9C268.5,337,278.5,333.2,297.8,333.9z M142.3,634
		c3.1,8.5,8.5,10.8,13.8,16.2c3.1,2.3,12.3,13.8,16.2,15.4c13.1,6.2,19.2-14.6,41.5-14.6c12.3-0.8,50,10.8,55.4,36.2
		c2.3,10-0.8,17.7,9.2,22.3c7.7,2.3,38.5,3.8,45.4-1.5c8.5-6.9,0.8-22.3,14.6-36.9c14.6-15.4,50.8-29.2,71.6-10
		c13.8,13.1,21.5,1.5,30-7.7c6.2-6.2,23.1-16.9,13.8-30.8c-6.2-9.2-17.7-16.9-12.3-37.7c14.6-56.2,38.5-40,53.9-49.2
		c8.5-5.4,7.7-33.1,5.4-45.4c-3.8-15.4-19.2-6.2-34.6-14.6c-12.3-6.9-14.6-15.4-21.5-30.8c-5.4-13.1-7.7-24.6,0-38.5
		c4.6-7.7,21.5-15.4,6.2-32.3C394,313.9,427,400.1,347,357c-12.3-6.9-16.9-16.9-18.5-33.9c-1.5-20-13.1-15.4-33.9-15.4
		c-26.9,0-20.8,2.3-25.4,25.4c-5.4,26.2-46.2,39.2-64.6,34.6c-14.6-4.6-19.2-22.3-34.6-13.8c-3.1,1.5-24.6,23.1-26.2,26.2
		c-7.7,14.6,6.9,16.9,12.3,31.5c6.9,17.7-5.4,60-30.8,66.9c-20.8,5.4-27.7-3.1-27.7,23.9c0,52.3,10,26.2,33.9,40
		c16.9,10,27.7,41.5,26.9,53.9C157.7,617.1,143.1,617.9,142.3,634z"/>
	<path id="path15" class="st0" d="M634,173.9c6.2,0.8,3.1-3.1,6.9,5.4c3.8,9.2-3.1,16.2,16.2,23.9c23.9,9.2,20-13.1,37.7-4.6
		c6.2,2.3,24.6,16.9,18.5,30.8c-3.1,8.5-9.2,6.2-6.9,18.5c5.4,39.2,33.9,3.1,33.9,44.6c0,34.6-13.1,14.6-25.4,27.7
		c-2.3,2.3-8.5,13.8-8.5,18.5c-1.5,13.1,18.5,22.3,3.1,36.2c-3.1,2.3-4.6,3.1-7.7,5.4c-4.6,4.6-0.8,3.1-6.9,6.9
		c-21.5,5.4-17.7-18.5-43.9-1.5c-19.2,11.5,6.2,28.5-34.6,28.5c-35.4-0.8-3.8-20.8-37.7-32.3c-25.4-9.2-18.5,26.2-49.2-6.9
		c-6.9-7.7-9.2-13.1-2.3-23.1c7.7-10,6.2-13.8,0-26.9c-10.8-20-34.6,4.6-28.5-42.3c1.5-14.6,10-10.8,20.8-14.6
		c7.7-2.3,13.1-15.4,13.1-23.9c0-10.8-11.5-11.5-9.2-23.9c1.5-6.2,12.3-16.9,16.9-20c13.1-9.2,16.9,0.8,23.9,3.8
		c7.7,3.8,22.3-0.8,26.9-5.4c9.2-9.2-3.1-33.1,35.4-27.7C629.4,171.6,630.9,170.8,634,173.9L634,173.9z M507.1,202.4
		c4.6,11.5,25.4,25.4,1.5,59.2c-17.7,24.6-43.1-4.6-32.3,47.7c23.1,4.6,27.7,3.1,36.9,24.6c13.8,32.3,2.3,27.7-6.2,47.7
		c3.8,8.5,14.6,20,23.1,23.1c7.7-0.8,10.8-21.5,46.2-6.2c28.5,11.5,20.8,20.8,26.9,37.7l31.5-0.8c5.4-12.3-1.5-25.4,26.9-37.7
		c36.2-14.6,39.2,6.9,46.2,6.9c7.7-3.1,20-15.4,23.1-23.1c-7.7-19.2-19.2-15.4-6.9-46.2c9.2-21.5,13.8-21.5,38.5-26.2l-0.8-31.5
		c-13.8-10.8-25.4,3.8-37.7-27.7c-3.1-7.7-6.9-15.4-4.6-25.4c4.6-22.3,27.7-12.3-10-44.6c-17.7,5.4-14.6,20.8-46.2,8.5
		c-33.9-13.1-18.5-26.2-29.2-37.7c-5.4-4.6-23.9-3.8-30.8,0c-7.7,6.9,6.9,23.1-28.5,37.7c-30,13.1-29.2-3.1-46.2-7.7
		C521.7,186.2,512.4,195.4,507.1,202.4z"/>
	<path id="path21" class="st2" d="M111.6,308.5c-4.6,3.8-10.8,3.8-14.6,0c-3.8-3.8-3.8-10,0-13.8c32.3-31.5,74.6-54.6,120.8-63.9
		c43.1-9.2,90-6.9,135.4,9.2c5.4,2.3,7.7,7.7,6.2,13.1s-7.7,7.7-13.1,6.2c-41.5-15.4-84.6-17.7-124.6-9.2
		C179.3,259.3,140.8,280.1,111.6,308.5z"/>
	<path id="path23" class="st2" d="M685.6,495.5c-5.4,0-10-3.8-10-10c0-5.4,3.8-10,9.2-10c15.4-0.8,36.9-10.8,55.4-23.9
		c18.5-13.8,33.9-30,37.7-43.1c1.5-4.6,6.9-7.7,12.3-6.2c5.4,1.5,8.5,6.9,6.9,12.3c-5.4,16.9-23.9,36.9-45.4,53.1
		C730.2,483.2,705.6,494.7,685.6,495.5z"/>
	<rect id="rect25" class="st3" width="861" height="861"/>
</g>
</svg>
