<?xml version="1.0" encoding="utf-8"?>
<!-- Generator: Adobe Illustrator 24.1.1, SVG Export Plug-In . SVG Version: 6.00 Build 0)  -->
<svg version="1.1"
	 id="svg19" sodipodi:docname="82bcf7df0999a5f9dfb0b3e6297a42e9.svg" xmlns:inkscape="http://www.inkscape.org/namespaces/inkscape" xmlns:sodipodi="http://sodipodi.sourceforge.net/DTD/sodipodi-0.dtd" xmlns:svg="http://www.w3.org/2000/svg"
	 xmlns="http://www.w3.org/2000/svg" xmlns:xlink="http://www.w3.org/1999/xlink" x="0px" y="0px" viewBox="0 0 861 861"
	 style="enable-background:new 0 0 861 861;" xml:space="preserve">
<style type="text/css">
	.st0{fill-rule:evenodd;clip-rule:evenodd;fill:#FFBE4D;}
	.st1{fill-rule:evenodd;clip-rule:evenodd;fill:#A36901;}
	.st2{fill:none;}
</style>
<sodipodi:namedview  bordercolor="#666666" borderopacity="1.0" id="namedview21" inkscape:pagecheckerboard="0" inkscape:pageopacity="0.0" inkscape:pageshadow="2" pagecolor="#ffffff">
	</sodipodi:namedview>
<g id="Capa_x0020_1" inkscape:groupmode="layer" inkscape:label="Capa 1">
	<g id="_2686662249136">
		<path id="path7" class="st0" d="M76,598.3l137.7,10.3c5.5,22.2-24.5,46.7-16.6,60.9c44.3,81.5,86.3,53.8,109.2-11.9
			c5.5-15.8-25.3-32.4-18.2-51.4l141.7-7.9l-2.4-131.4c-30.9-4.7-60.1,15-76.8,6.3c-44.3-22.2-46.7-74.4,18.2-98.9
			c15-5.5,37.2,15,57.8,10.3l3.2-137.7l-134.5-0.8c-5.5-26.9,11.1-51.4,3.2-69.6c-23.7-57-76.8-64.1-95,3.2
			c-4,15.8,9.5,41.9,4.7,65.7L76,244.5V383c24.5,4,41.9-15,58.6-8.7c57,19.8,61.7,77.6,2.4,100.5c-15,5.5-39.6-15.8-60.9-11.9V598.3
			z"/>
		<path id="path9" class="st0" d="M755.7,601.4l0.8-90.2c0-15.8,0-10.3-12.7-10.3C591.1,501.7,641,319.7,747,348.2
			c11.1,3.2,9.5,5.5,9.5-6.3v-97.3h30.1l1.6,134.5c-9.5,11.1-19,8.7-37.2,2.4c-83.9-30.9-103.7,103.7-3.2,91.8
			c10.3-1.6,18.2-12.7,34.8-6.3l4.7,132.9L755.7,601.4z"/>
		<path id="path11" class="st0" d="M400.4,601.4l0.8-90.2c0-15.8,0-10.3-12.7-10.3c-152.7,0.8-102.9-181.2,3.2-152.7
			c11.9,3.2,9.5,5.5,9.5-6.3v-97.3h30.9l0.8,134.5c-9.5,11.1-19,8.7-37.2,2.4c-83.1-30.9-103.7,103.7-3.2,91.8
			c10.3-1.6,19-12.7,34.8-6.3l4.7,132.9L400.4,601.4z"/>
		<path id="path13" class="st1" d="M288.1,254c11.9,4,125.8-1.6,130.6,2.4c2.4,2.4,2.4,104.5,1.6,121.9c0,2.4,0,2.4-3.2,1.6
			c-18.2-2.4-28.5-26.9-68.8-10.3c-45.1,19.8-50.6,89.4,1.6,112.4c10.3,4.7,26.9,7.1,38.8,3.2c12.7-4,18.2-12.7,27.7-13.5
			c4.7,0,4,0.8,4,4.7v106.8c0,7.1,0.8,10.3-2.4,12.7c-4.7,2.4-89.4,0.8-102.9,0.8h-5.5c-7.9,0-17.4-0.8-23.7,2.4
			c-4,1.6-7.9,4.7-9.5,9.5c-0.8,0.8-2.4,7.1-2.4,8.7c0,3.2,0.8,7.1,1.6,10.3c0.8,4.7,4,11.1,6.3,15.8c4,7.1,13.5,13.5,6.3,34.8
			c-10.3,26.9-46.7,35.6-68.1,13.5c-7.1-7.9-15.8-24.5-8.7-38.8c1.6-3.2,4-6.3,5.5-8.7c5.5-8.7,10.3-20.6,7.9-30.9
			c-4.7-20.6-23.7-16.6-36.4-16.6c-12.7,0-82.3,0.8-101.3-0.8c-4.7,0-4,0.8-4.7-4.7c-1.6-19.8-0.8-97.3,0-117.1
			c0-2.4-0.8-2.4,2.4-2.4c12.7,1.6,16.6,10.3,30.1,14.2c12.7,3.2,27.7,0.8,38.8-4c49.1-22.9,45.1-92.6-0.8-112.4
			c-37.2-15.8-49.9,5.5-66.5,10.3c-4.7,0.8-4,0.8-4.7-4c-0.8-17.4,0-40.4,0-57.8c0-73.6-6.3-62.5,27.7-62.5h82.3
			c11.9,0,33.2,1.6,33.2-22.2c0-7.9-2.4-15.8-5.5-21.4c-2.4-4.7-7.9-11.1-9.5-17.4c-4.7-17.4,6.3-31.7,15.8-38.8
			c22.9-18.2,61.7-4.7,64.9,28.5c1.6,15.8-8.7,22.9-12.7,31.7c-3.2,6.3-4,17.4-3.2,21.4c0,4,1.6,8.7,5.5,12.7
			C283.3,252.4,283.3,253.2,288.1,254L288.1,254z M800.1,479.6c-0.8-18.2-4.7-31.7-29.3-28.5c-15.8,2.4-18.2,9.5-29.3,14.2
			c-11.9,4.7-26.1-1.6-34-7.1c-17.4-13.5-22.9-41.9-4.7-60.1c27.7-28.5,49.1-3.2,60.9,0.8c13.5,4.7,25.3,3.2,31.7-6.3
			c6.3-7.9,4-28.5,4-40.4c0-29.3,0-58.6,0-87.8c0-35.6-26.9-30.1-57-30.1c-28.5,0-57,0-85.5,0c-3.2,0-3.2,0-3.2-3.2
			c2.4-16.6,26.9-27.7,11.1-67.3c-21.4-49.9-93.4-47.5-113.2-0.8c-4.7,11.1-7.1,26.1-3.2,38.8c3.2,11.9,11.9,17.4,13.5,28.5
			c0.8,4.7,0.8,4-3.2,4c-22.9,1.6-72.8,0-97.3,0c-32.4,0-22.9,3.2-30.9,4c-2.4,0-8.7-3.2-12.7-4c-15.8-1.6-95.8,0.8-120.3,0h-2.4
			c-1.6-2.4-1.6-4,0-7.1c0.8-0.8,0,0,1.6-1.6c0-0.8,0.8-1.6,1.6-2.4c0.8-2.4,1.6-3.2,2.4-5.5c7.1-11.1,11.1-15,10.3-33.2
			c-1.6-33.2-31.7-61.7-71.2-57c-39.6,4.7-60.1,49.9-49.1,77.6c3.2,7.1,4.7,7.9,7.9,13.5c2.4,3.2,4,6.3,4.7,9.5
			c1.6,7.9,0,6.3-6.3,6.3c-36.4,1.6-75.2-1.6-111.6,0c-8.7,0.8-16.6,5.5-19.8,10.3c-4.7,7.1-4.7,15-4.7,24.5
			c0,15-0.8,113.2,0.8,118.7c4.7,15.8,26.9,15.8,41.2,8.7c6.3-4,11.1-9.5,19-11.1c7.9-1.6,18.2,0.8,24.5,4
			c31.7,17.4,26.9,60.9-1.6,73.6c-24.5,10.3-31.7-2.4-43.5-7.9c-14.2-7.9-37.2-5.5-40.4,11.1v117.1c0,17.4,3.2,33.2,26.1,34
			c33.2,1.6,81.5-1.6,112.4,0c4.7,0,4.7-0.8,4.7,4c-0.8,5.5-4,9.5-6.3,13.5c-2.4,4-5.5,8.7-7.9,14.2c-9.5,29.3,12.7,74.4,57.8,76
			c25.3,1.6,45.9-12.7,57-33.2c19-35.6-5.5-56.2-8.7-68.8c-0.8-6.3-1.6-5.5,4-5.5c27.7-0.8,104.5,1.6,118.7,0
			c5.5-0.8,7.1-2.4,10.3-3.2s4.7,1.6,9.5,2.4c6.3,2.4,102.9,0.8,117.9,0.8c10.3,0,14.2,0.8,20.6-4.7c5.5-4.7,7.1-11.9,6.3-20.6
			s-3.2-13.5-7.1-19c-3.2-6.3-7.9-9.5-8.7-18.2c-3.2-30.9,29.3-53,56.2-41.2c20.6,8.7,31.7,34,21.4,51.4c-4,7.1-6.3,7.1-9.5,16.6
			c-5.5,14.2-2.4,33.2,12.7,35.6c7.1,1.6,90.2,0,105.3,0c19,0,32.4,2.4,41.9-11.1c1.6-2.4,2.4-6.3,3.2-11.9
			c0.8-3.2,0.8-7.9,0.8-13.5L800.1,479.6z M778.7,584c0,5.5,0,10.3-2.4,11.9c-4.7,1.6-94.2,0.8-118.7,0.8c-4,0-4,0.8-4-4
			c1.6-11.9,10.3-15.8,14.2-28.5c9.5-33.2-17.4-74.4-59.4-74.4c-27.7-0.8-48.3,16.6-56.2,34.8c-5.5,11.1-7.9,26.1-4.7,39.6
			c4,12.7,11.9,15.8,14.2,26.9c0.8,5.5,0.8,5.5-4,5.5c-22.2,0.8-112.4,0.8-115.5-0.8l-1.6-114.7c0-14.2,0-22.9-10.3-28.5
			c-9.5-4.7-24.5-1.6-31.7,2.4c-9.5,4.7-14.2,12.7-28.5,11.1c-47.5-3.2-50.6-75.2-0.8-80.7c13.5-1.6,19.8,5.5,27.7,10.3
			c7.9,4.7,22.9,7.9,32.4,3.2c10.3-4.7,11.1-13.5,11.1-26.9c0-17.4-0.8-98.1,0-110.8c0.8-4.7,0-2.4,1.6-4.7
			c2.4-2.4,106.8-1.6,117.9-0.8c8.7-0.8,14.2-2.4,18.2-7.9c3.2-3.2,4.7-8.7,4.7-13.5c0-3.2-0.8-11.9-1.6-14.2
			c-4-11.9-18.2-19-13.5-40.4c7.9-37.2,60.9-43.5,76-8.7c11.9,25.3-2.4,32.4-7.1,42.7c-2.4,4.7-4,15-4.7,19.8c0,5.5,1.6,9.5,4,13.5
			c5.5,8.7,13.5,7.9,25.3,8.7c17.4-0.8,106-2.4,115.5,0.8c3.2,6.3,1.6,107.6,1.6,123.5c-20.6,1.6-25.3-27.7-70.4-10.3
			c-46.7,17.4-51.4,88.6-1.6,112.4c10.3,4.7,26.9,7.1,38.8,4c11.1-4,19-12.7,28.5-14.2c4.7,0,4.7,0,4.7,4c0,0.8,0,2.4,0,4
			C778.7,514.4,778.7,549.2,778.7,584L778.7,584z M428.1,131.4c-7.1,1.6-7.9,6.3-7.9,15.8v46.7c0.8,7.1,6.3,12.7,14.2,10.3
			c9.5-4,7.1-24.5,7.1-40.4C441.6,151.1,444.7,126.6,428.1,131.4z M440,727.3c2.4-4.7,1.6-38.8,1.6-46.7c0-8.7,0.8-15-4.7-19
			c-6.3-4-13.5-0.8-15.8,4c-1.6,5.5-0.8,39.6-0.8,47.5c0,8.7-0.8,15.8,4.7,19C432.1,736,438.4,732,440,727.3z M355.3,153.5
			c-4,1.6-6.3,3.2-7.1,7.9c-0.8,6.3,1.6,7.9,4.7,11.1l29.3,33.2c4.7,4.7,9.5,14.2,19,11.1c6.3-1.6,10.3-11.1,2.4-19l-29.3-32.4
			C370.4,162.2,364,150.4,355.3,153.5z M407.6,660.8c3.2-9.5-5.5-17.4-14.2-12.7c-3.2,0.8-43.5,46.7-44.3,48.3
			c-4,11.1,6.3,18.2,14.2,13.5C368,706.7,406.8,663.2,407.6,660.8z M453.4,660.8c1.6,4.7,24.5,27.7,29.3,33.2
			c3.2,3.2,12.7,14.2,15,15.8c8.7,4,18.2-2.4,15-11.9c-0.8-3.2-41.2-48.3-44.3-49.9C460.6,643.4,450.3,651.3,453.4,660.8z
			 M500.1,153.5c-7.1,2.4-30.1,31.7-38,39.6c-1.6,1.6-5.5,5.5-7.1,7.9c-5.5,8.7,1.6,19,12.7,15.8c3.2-1.6,31.7-33.2,37.2-40.4
			c2.4-2.4,5.5-4.7,7.1-7.9C516.8,159.9,508.1,150.4,500.1,153.5z"/>
	</g>
	<rect id="rect16" x="0" y="0" class="st2" width="861" height="861"/>
</g>
</svg>
