<?xml version="1.0" encoding="utf-8"?>
<!-- Generator: Adobe Illustrator 24.1.1, SVG Export Plug-In . SVG Version: 6.00 Build 0)  -->
<svg version="1.1" id="Capa_1" xmlns:xodm="http://www.corel.com/coreldraw/odm/2003"
	 xmlns="http://www.w3.org/2000/svg" xmlns:xlink="http://www.w3.org/1999/xlink" x="0px" y="0px" viewBox="0 0 661 661"
	 style="enable-background:new 0 0 661 661;" xml:space="preserve">
<style type="text/css">
	.st0{fill:none;}
	.st1{fill-rule:evenodd;clip-rule:evenodd;fill:#DCC8FF;}
	.st2{fill-rule:evenodd;clip-rule:evenodd;fill:#4806C1;}
</style>
<g id="Capa_x0020_1">
	<rect class="st0" width="661" height="661"/>
	<path class="st1" d="M328.2,598.1c132.7,0,240.2-106.4,240.2-239S460.9,118.9,328.2,118.9S88.1,226.4,88.1,359.1
		S195.6,598.1,328.2,598.1z M328.2,574.1c118.9,0,215-96.1,215-215s-96.1-215-215-215s-215,96.1-215,215S209.3,574.1,328.2,574.1z"
		/>
	<ellipse class="st1" cx="332.8" cy="359.1" rx="20.6" ry="19.4"/>
	<polygon class="st1" points="382,80.1 383.1,46.9 282.5,48 283.6,73.2 	"/>
	<polygon class="st1" points="536.3,170.4 556.9,146.4 510,104.1 483.7,126.9 	"/>
	<path class="st2" d="M292.8,72h76.6V59.5h-76.6V72z M490.6,165.8l8,6.9l9.1-10.3l-8-6.9L490.6,165.8z M500.9,128.1l34.3,29.7l8-9.1
		l-34.3-30.9L500.9,128.1z M529.5,180.7l-5.7-4.6l-11.4,12.6c25.2,27.4,43.5,53.7,53.7,86.9c2.3,6.9,5.7,13.7,6.9,21.7
		c8,32,4.6,26.3,8,52.6c3.4,28.6-5.7,69.8-14.9,96.1c-8,25.2-28.6,61.8-53.7,85.8l-12.6,12.6c-24,22.9-60.6,43.5-84.6,51.5
		c-14.9,4.6-27.4,9.1-43.5,11.4c-46.9,6.9-82.3,2.3-126.9-12.6c-24-8-61.8-28.6-85.8-52.6c-38.9-40-54.9-68.6-69.8-117.8
		c-3.4-14.9-4.6-21.7-6.9-35.5c-10.3,10.3-16,19.4-25.2,9.1c-3.4-3.4-3.4-8,0-11.4l28.6-27.4c3.4-4.6,9.1-3.4,12.6,0l26.3,26.3
		c4.6,4.6,3.4,10.3-1.1,14.9c-5.7,5.7-13.7,0-19.4-6.9c2.3,32,19.4,69.8,36.6,94.9c26.3,41.2,62.9,67.5,106.4,85.8
		c21.7,9.1,48,14.9,72,14.9c18.3,1.1,30.9,1.1,50.3-2.3c73.2-11.4,133.8-57.2,167-123.5c3.4-6.9,5.7-12.6,9.1-20.6
		c5.7-12.6,11.4-35.5,12.6-50.3c3.4-22.9,3.4-37.7,1.1-60.6c-4.6-48-29.7-98.3-64-132.7c-34.3-35.5-83.5-60.6-131.5-66.3l-30.9-2.3
		c-59.5-1.1-121.2,24-163.5,66.3c-13.7,13.7-21.7,33.2-34.3,20.6c-4.6-4.6-2.3-10.3,1.1-13.7c2.3-3.4,5.7-6.9,8-10.3l20.6-19.4
		c30.9-27.4,68.6-46.9,102.9-56c11.4-2.3,22.9-4.6,33.2-5.7V93.8h-18.3c-5.7,0-10.3-4.6-10.3-11.4V49.2c0-6.9,4.6-11.4,10.3-11.4
		h97.2c6.9,0,11.4,4.6,11.4,11.4v33.2c0,6.9-4.6,11.4-11.4,11.4h-18.3v18.3c18.3,2.3,36.6,6.9,54.9,13.7c16,4.6,36.6,14.9,56,28.6
		l11.4-12.6l-5.7-5.7c-4.6-3.4-4.6-10.3-1.1-14.9l22.9-25.2c4.6-4.6,11.4-4.6,14.9-1.1l51.5,44.6c4.6,4.6,4.6,10.3,0,14.9
		l-21.7,26.3C539.8,185.3,532.9,185.3,529.5,180.7L529.5,180.7z M322.5,107.5h18.3V93.8h-18.3V107.5z M128.1,236.7
		c8,8-3.4,24-14.9,12.6C105.2,241.3,118.9,227.6,128.1,236.7z M462,227.6c1.1,0,2.3,1.1,3.4,3.4c1.1,1.1,3.4,3.4,5.7,5.7
		c3.4,4.6,13.7,16,18.3,26.3c3.4,3.4,5.7,8,6.9,11.4c12.6,24,18.3,43.5,20.6,68.6c1.1,5.7,0,11.4,0,16v1.1c0,2.3,0,3.4,0,5.7
		c0,8,0,16-2.3,25.2c-1.1,12.6-4.6,24-10.3,36.6c-3.4,9.1-6.9,17.2-11.4,25.2c-3.4,6.9-8,13.7-13.7,20.6l0,0
		c-1.1,1.1-1.1,2.3-2.3,2.3c-14.9,19.4-35.5,36.6-53.7,46.9c-2.3,1.1-4.6,2.3-6.9,3.4l0,0l0,0c-1.1,1.1-3.4,1.1-5.7,2.3
		c-1.1,1.1-2.3,2.3-3.4,2.3c-19.4,9.1-40,13.7-60.6,14.9c-2.3,1.1-3.4,1.1-5.7,1.1c-5.7,0-11.4,0-17.2,0c-22.9,0-44.6-5.7-65.2-14.9
		c-6.9-2.3-13.7-5.7-20.6-9.1c-1.1-2.3-3.4-3.4-5.7-4.6c-10.3-6.9-19.4-13.7-28.6-21.7c-1.1-1.1-3.4-2.3-4.6-4.6l-2.3-2.3
		c-8-8-16-17.2-21.7-27.4c-1.1-1.1-1.1-2.3-2.3-2.3c-13.7-22.9-22.9-45.7-26.3-73.2v-1.1c0-3.4-1.1-5.7-1.1-9.1v-1.1
		c0-6.9-1.1-12.6,0-19.4c0-3.4,0-6.9,0-10.3c1.1-11.4,2.3-24,5.7-35.5c4.6-14.9,10.3-29.7,18.3-42.3c1.1-2.3,3.4-5.7,4.6-8
		c4.6-6.9,8-11.4,12.6-17.2l1.1-1.1l0,0c2.3-3.4,5.7-6.9,8-10.3l2.3-2.3c4.6-4.6,9.1-8,12.6-11.4c5.7-4.6,12.6-9.1,18.3-12.6
		c0-1.1,1.1-1.1,2.3-2.3c12.6-8,26.3-13.7,40-19.4h1.1c6.9-2.3,12.6-3.4,18.3-4.6c3.4-1.1,6.9-1.1,11.4-2.3h1.1
		c25.2-4.6,52.6-2.3,77.8,4.6c5.7,1.1,12.6,3.4,19.4,5.7c5.7,3.4,21.7,9.1,29.7,16C441.4,209.3,451.7,217.3,462,227.6L462,227.6z
		 M340.8,486c0,13.7,2.3,22.9-10.3,22.9c-11.4,0-9.1-12.6-9.1-20.6C321.4,472.3,340.8,475.7,340.8,486L340.8,486z M340.8,220.7
		c0,12.6,2.3,22.9-10.3,22.9c-11.4,0-9.1-13.7-9.1-22.9C321.4,208.1,340.8,209.3,340.8,220.7L340.8,220.7z M470,369.4
		c-12.6,0-21.7,2.3-21.7-10.3c0-11.4,13.7-9.1,21.7-9.1C482.6,349.9,482.6,369.4,470,369.4L470,369.4z M213.9,359.1
		c0,13.7-9.1,10.3-22.9,10.3c-11.4,0-11.4-19.4,0-19.4C200.1,349.9,213.9,347.7,213.9,359.1L213.9,359.1z M344.2,360.2
		c0-18.3-26.3-18.3-26.3,0S344.2,378.5,344.2,360.2z M315.6,330.5c4.6-1.1,9.1-4.6,14.9-4.6c6.9,0,11.4,3.4,16,4.6
		c10.3-8,32-35.5,38.9-35.5c8,0,11.4,3.4,11.4,10.3c0,5.7-4.6,8-8,11.4c-5.7,5.7-25.2,24-27.4,27.4c2.3,9.1,10.3,22.9-6.9,40
		c-22.9,24-57.2,2.3-57.2-24c0-6.9,2.3-10.3,3.4-16c-3.4-4.6-12.6-12.6-17.2-17.2l-35.5-35.5C243.6,287,231,276.8,231,271
		s4.6-10.3,11.4-10.3c5.7,0,32,28.6,36.6,34.3L315.6,330.5L315.6,330.5z M473.4,273.3c-3.4-4.6-6.9-9.1-9.1-12.6
		c-12.6-17.2-27.4-30.9-43.5-41.2c-5.7-2.3-10.3-5.7-14.9-8c-28.6-14.9-61.8-20.6-94.9-17.2c-4.6,1.1-9.1,2.3-13.7,2.3h-1.1
		c-9.1,2.3-18.3,5.7-27.4,9.1c-13.7,5.7-26.3,13.7-37.7,21.7c-5.7,4.6-11.4,9.1-16,12.6c-8,8-16,18.3-21.7,27.4
		c-4.6,6.9-9.1,14.9-13.7,25.2c-6.9,12.6-11.4,27.4-12.6,43.5c-1.1,9.1-2.3,19.4-2.3,33.2c0,2.3,1.1,4.6,1.1,6.9c0,3.4,0,5.7,0,8
		c1.1,3.4,1.1,8,2.3,11.4c4.6,19.4,13.7,40,22.9,54.9c8,11.4,17.2,21.7,26.3,30.9c2.3,2.3,3.4,3.4,4.6,4.6
		c9.1,6.9,17.2,13.7,26.3,18.3c11.4,5.7,21.7,10.3,32,14.9c14.9,4.6,28.6,6.9,42.3,6.9c16,0,28.6,0,41.2-2.3
		c2.3-1.1,3.4-1.1,5.7-1.1c5.7-2.3,13.7-3.4,20.6-6.9c1.1-1.1,2.3-1.1,4.6-2.3s5.7-2.3,8-3.4c5.7-2.3,11.4-5.7,16-8
		c22.9-14.9,44.6-36.6,57.2-61.8c4.6-9.1,9.1-16,11.4-22.9c5.7-17.2,10.3-34.3,10.3-51.5c0-38.9-3.4-49.2-17.2-80.1
		C478,281.3,474.6,277.9,473.4,273.3L473.4,273.3z"/>
</g>
</svg>
