<?xml version="1.0" encoding="utf-8"?>
<!-- Generator: Adobe Illustrator 24.1.1, SVG Export Plug-In . SVG Version: 6.00 Build 0)  -->
<svg version="1.1" id="Capa_1" xmlns="http://www.w3.org/2000/svg" xmlns:xlink="http://www.w3.org/1999/xlink" x="0px" y="0px"
	 viewBox="0 0 70 70" style="enable-background:new 0 0 70 70;" xml:space="preserve">
<style type="text/css">
	.st0{fill-rule:evenodd;clip-rule:evenodd;fill:#DCC8FF;}
	.st1{fill-rule:evenodd;clip-rule:evenodd;fill:#4806C1;}
	.st2{fill:#FFFFFF;}
</style>
<path class="st0" d="M6.7,4.2h19.1c1.1,0,1.8,1,1.8,1.6v6.9c0,4.4,3.6,7.9,7.9,7.9h6.9c1,0,1.8,0.9,1.8,1.7V36
	c-5.2,2.8-8.8,8.4-8.8,14.7c0,1.1,0.1,2.1,0.3,3.2h-29C4.6,54,3,52.3,3,50.2V7.9C3,5.9,4.6,4.2,6.7,4.2z M42.5,16.5h-7
	c-2.1,0-3.8-1.7-3.8-3.7V6.3c0-1.5,1.8-2.5,3.1-1.8l9.2,9.1C44.6,14.2,44.2,16.5,42.5,16.5L42.5,16.5z M13.1,29.2h20.7
	c1.2,0,2.1-0.9,2.1-2.1s-1-2.1-2.1-2.1H13.1c-1.2,0-2.1,1-2.1,2.1S12,29.2,13.1,29.2L13.1,29.2z M13.1,45.5h20.7
	c1.2,0,2.1-1,2.1-2.1c0-1.2-1-2.1-2.1-2.1H13.1c-1.2,0-2.1,0.9-2.1,2.1S12,45.5,13.1,45.5z M13.1,37.4h20.7c1.2,0,2.1-1,2.1-2.1
	c0-1.2-1-2.1-2.1-2.1H13.1C12,33.1,11,34,11,35.2S12,37.4,13.1,37.4L13.1,37.4z"/>
<path class="st1" d="M52.1,35.9c-8.2,0-14.9,6.7-14.9,15s6.7,15,14.9,15s15-6.7,15-15S60.3,35.9,52.1,35.9L52.1,35.9z"/>
<path class="st2" d="M50.6,41.8c0.4-1.4,2.4-1.4,2.9,0l1.5,4.5c0.2,0.6,0.8,1,1.4,1h4.7c1.5,0,2.1,1.9,0.9,2.7l-3.9,2.8
	c-0.5,0.4-0.7,1.1-0.5,1.7l1.5,4.5c0.4,1.4-1.1,2.5-2.3,1.7l-3.9-2.9c-0.5-0.4-1.2-0.4-1.8,0l-3.8,2.8c-1.2,0.9-2.8-0.3-2.3-1.7
	l1.5-4.5c0.2-0.6,0-1.3-0.5-1.7l-3.8-2.8c-1.2-0.9-0.6-2.7,0.9-2.7h4.7c0.6,0,1.2-0.4,1.4-1L50.6,41.8z"/>
</svg>
