<?xml version="1.0" encoding="utf-8"?>
<!-- Generator: Adobe Illustrator 24.1.1, SVG Export Plug-In . SVG Version: 6.00 Build 0)  -->
<svg version="1.1" id="Capa_1" xmlns="http://www.w3.org/2000/svg" xmlns:xlink="http://www.w3.org/1999/xlink" x="0px" y="0px"
	 viewBox="0 0 70 70" style="enable-background:new 0 0 70 70;" xml:space="preserve">
<style type="text/css">
	.st0{fill-rule:evenodd;clip-rule:evenodd;fill:#DCC8FF;}
	.st1{fill-rule:evenodd;clip-rule:evenodd;fill:#4806C1;}
	.st2{fill:#FFFFFF;}
</style>
<path class="st0" d="M7.9,53.6h28c-0.2-1-0.3-2.1-0.3-3.2c0-2.7,0.7-5.4,2-7.9l-1.5-6.1c-0.2-0.8,0-1.7,0.7-2.3
	c0.6-0.6,1.5-0.8,2.3-0.5l5.8,1.9c1.7-0.8,3.6-1.4,5.6-1.6v-10H2.8v24.6C2.8,51.2,5.1,53.6,7.9,53.6z M13.2,4.7h1.5
	c0.6,0,1.1,0.5,1.1,1.1v5.5c0,0.6-0.5,1.1-1.1,1.1h-1.5c-0.6,0-1.1-0.5-1.1-1.1V5.8C12.1,5.2,12.6,4.7,13.2,4.7z M38.5,4.7h1.5
	c0.6,0,1.1,0.5,1.1,1.1v5.5c0,0.6-0.5,1.1-1.1,1.1h-1.5c-0.6,0-1.1-0.5-1.1-1.1V5.8C37.4,5.2,37.9,4.7,38.5,4.7z M9.6,33.1h2.8
	c0.9,0,1.6-0.7,1.6-1.6v-2.6c0-0.8-0.7-1.6-1.6-1.6H9.6c-0.9,0-1.6,0.7-1.6,1.6v2.6C8.1,32.4,8.8,33.1,9.6,33.1z M20,33.1h2.9
	c0.8,0,1.6-0.7,1.6-1.6v-2.6c0-0.8-0.7-1.6-1.6-1.6H20c-0.8,0-1.5,0.7-1.5,1.6v2.6C18.5,32.4,19.2,33.1,20,33.1z M30.4,33.1h2.8
	c0.9,0,1.6-0.7,1.6-1.6v-2.6c0-0.8-0.7-1.6-1.6-1.6h-2.8c-0.8,0-1.6,0.7-1.6,1.6v2.6C28.8,32.4,29.6,33.1,30.4,33.1z M40.8,33.1h2.8
	c0.8,0,1.6-0.7,1.6-1.6v-2.6c0-0.8-0.7-1.6-1.6-1.6h-2.8c-0.9,0-1.6,0.7-1.6,1.6v2.6C39.3,32.4,39.9,33.1,40.8,33.1z M9.6,41.3h2.8
	c0.9,0,1.6-0.7,1.6-1.6v-2.6c0-0.9-0.7-1.6-1.6-1.6H9.6c-0.9,0-1.6,0.7-1.6,1.6v2.6C8.1,40.6,8.8,41.3,9.6,41.3z M20,41.3h2.9
	c0.8,0,1.6-0.7,1.6-1.6v-2.6c0-0.9-0.7-1.6-1.6-1.6H20c-0.8,0-1.5,0.7-1.5,1.6v2.6C18.5,40.6,19.2,41.3,20,41.3z M30.4,41.3h2.8
	c0.9,0,1.6-0.7,1.6-1.6v-2.6c0-0.9-0.7-1.6-1.6-1.6h-2.8c-0.8,0-1.6,0.7-1.6,1.6v2.6C28.8,40.6,29.6,41.3,30.4,41.3z M9.6,49.5h2.8
	c0.9,0,1.6-0.7,1.6-1.6v-2.6c0-0.8-0.7-1.6-1.6-1.6H9.6c-0.9,0-1.6,0.7-1.6,1.6V48C8.1,48.9,8.8,49.5,9.6,49.5z M20,49.5h2.9
	c0.8,0,1.6-0.7,1.6-1.6v-2.6c0-0.8-0.7-1.6-1.6-1.6H20c-0.8,0-1.5,0.7-1.5,1.6V48C18.5,48.9,19.2,49.5,20,49.5z M30.4,49.5h2.8
	c0.9,0,1.6-0.7,1.6-1.6v-2.6c0-0.8-0.7-1.6-1.6-1.6h-2.8c-0.8,0-1.6,0.7-1.6,1.6V48C28.8,48.9,29.6,49.5,30.4,49.5z M50.5,22v-8.3
	c0-2.8-2.3-5.2-5.2-5.2h-2.8v2.7c0,1.4-1.1,2.5-2.5,2.5h-1.5c-1.4,0-2.5-1.1-2.5-2.5V8.6H17.2v2.7c0,1.4-1.1,2.5-2.5,2.5h-1.5
	c-1.4,0-2.5-1.1-2.5-2.5V8.6H7.9c-2.8,0-5.1,2.3-5.1,5.2V22H50.5z"/>
<path class="st1" d="M52.3,65.3c8.2,0,14.9-6.7,14.9-14.9c0-8.2-6.7-14.9-14.9-14.9c-2.6,0-5,0.7-7.2,1.9l-6.5-2.1
	c-0.2,0-0.4,0-0.6,0.2c-0.2,0.2-0.2,0.4-0.2,0.6l1.6,6.8c-1.3,2.3-2.1,4.8-2.1,7.6C37.4,58.6,44.1,65.3,52.3,65.3z"/>
<path class="st2" d="M51.1,41c0.4-1.4,2.4-1.4,2.9,0l1.5,4.5c0.2,0.6,0.8,1,1.4,1h4.7c1.5,0,2.1,1.9,0.9,2.7L58.6,52
	c-0.5,0.4-0.7,1.1-0.5,1.7l1.5,4.5c0.4,1.4-1.1,2.5-2.3,1.7L53.4,57c-0.5-0.4-1.2-0.4-1.8,0l-3.8,2.8c-1.2,0.9-2.8-0.3-2.3-1.7
	l1.5-4.5c0.2-0.6,0-1.3-0.5-1.7l-3.8-2.8c-1.2-0.9-0.6-2.7,0.9-2.7h4.7c0.6,0,1.2-0.4,1.4-1L51.1,41z"/>
</svg>
