<?xml version="1.0" encoding="utf-8"?>
<!-- Generator: Adobe Illustrator 24.1.1, SVG Export Plug-In . SVG Version: 6.00 Build 0)  -->
<svg version="1.1" id="Capa_1" xmlns="http://www.w3.org/2000/svg" xmlns:xlink="http://www.w3.org/1999/xlink" x="0px" y="0px"
	 viewBox="0 0 70 70" style="enable-background:new 0 0 70 70;" xml:space="preserve">
<style type="text/css">
	.st0{clip-path:url(#SVGID_2_);}
	.st1{fill-rule:evenodd;clip-rule:evenodd;fill:#DCC8FF;}
	.st2{fill-rule:evenodd;clip-rule:evenodd;fill:#4806C1;}
	.st3{fill-rule:evenodd;clip-rule:evenodd;fill:#FFFFFF;}
</style>
<g>
	<defs>
		<rect id="SVGID_1_" width="70" height="70"/>
	</defs>
	<clipPath id="SVGID_2_">
		<use xlink:href="#SVGID_1_"  style="overflow:visible;"/>
	</clipPath>
	<g class="st0">
		<path class="st1" d="M9.1,31.7h7.3l0.3,4.6H9.3L9.1,31.7z M19.6,31.7h8.3v4.6h-8L19.6,31.7z M23,51.1c-0.9-0.2-1.7-1.4-2.4-4.3
			h7.3v4.3h-4.1H23z M20.4,43.7l-0.3-4.3h7.8v4.3H20.4z M16.9,39.4l0.3,4.3H9.9l-0.3-4.3H16.9z M17.4,46.8c0.2,1.7,0.6,3.3,1.3,4.3
			h-6.5c-0.7,0-1.9-2.6-2.2-4.3H17.4z M36.1,46.8H31v4.3h4.6c0,1.1,0.1,2.1,0.3,3.2H23.8H12.1c-1.3,0-2.5-0.9-3.4-2.3v0h0
			c-1.1-1.7-1.8-4.3-2-6.7L5.9,31.6c-0.8-0.2-1.4-1-1.4-1.9V25h0c-0.9,0-1.5-0.7-1.5-1.5c0-0.9,0.7-1.5,1.5-1.5h2h7.6
			c0-0.1,0.1-0.1,0.1-0.2l9.5-16.4c0.7-1.3,2.4-1.7,3.6-1c1.3,0.7,1.7,2.4,1,3.6l-8,13.9h18.3L30.5,8c-0.7-1.3-0.3-2.9,1-3.6
			c1.3-0.7,2.9-0.3,3.6,1l9.5,16.4c0,0,0,0.1,0.1,0.2h7.6h2c0.9,0,1.6,0.7,1.6,1.5c0,0.9-0.7,1.5-1.6,1.5h0v4.6
			c0,0.9-0.6,1.7-1.4,1.9l-0.2,2.8c-0.2,0-0.3,0-0.5,0c-0.9,0-1.8,0.1-2.7,0.2l0.2-2.9h-7.4l-0.3,4.6h2.6c-2.4,1.3-4.6,3.1-6.1,5.4
			l0.2-2.2H31v4.3h6.3C36.8,44.7,36.4,45.7,36.1,46.8z M38.9,36.2l0.3-4.6H31v4.6H38.9z M15.1,27.4c0.9,0,1.6-0.7,1.6-1.6
			c0-0.9-0.7-1.7-1.6-1.7c-0.9,0-1.7,0.7-1.7,1.7C13.4,26.7,14.1,27.4,15.1,27.4L15.1,27.4z M43.8,27.4c0.9,0,1.6-0.7,1.6-1.6
			c0-0.9-0.7-1.7-1.6-1.7c-0.9,0-1.7,0.7-1.7,1.7C42.1,26.7,42.8,27.4,43.8,27.4z"/>
		<path class="st2" d="M52.2,36.1c-8.2,0-15,6.7-15,14.9c0,8.2,6.7,15,15,15s14.9-6.7,14.9-15C67.2,42.8,60.5,36.1,52.2,36.1
			L52.2,36.1z"/>
		<path class="st3" d="M58.3,45.7l-7.8,7.8l-4.2-4.2c-0.4-0.4-1-0.4-1.4,0l-2.1,2.1c-0.4,0.4-0.4,1,0,1.4l4.9,4.9l2.1,2.1
			c0.4,0.4,1,0.4,1.4,0l2.1-2.1l8.5-8.5c0.4-0.4,0.4-1,0-1.4l-2.1-2.1C59.3,45.3,58.7,45.3,58.3,45.7z"/>
	</g>
</g>
</svg>
