<?xml version="1.0" encoding="utf-8"?>
<!-- Generator: Adobe Illustrator 24.1.1, SVG Export Plug-In . SVG Version: 6.00 Build 0)  -->
<svg version="1.1" id="Capa_1" xmlns="http://www.w3.org/2000/svg" xmlns:xlink="http://www.w3.org/1999/xlink" x="0px" y="0px"
	 viewBox="0 0 70 70" style="enable-background:new 0 0 70 70;" xml:space="preserve">
<style type="text/css">
	.st0{clip-path:url(#SVGID_2_);}
	.st1{fill-rule:evenodd;clip-rule:evenodd;fill:#DCC8FF;}
	.st2{fill-rule:evenodd;clip-rule:evenodd;fill:#4806C1;}
	.st3{fill:#FFFFFF;}
</style>
<g>
	<defs>
		<rect id="SVGID_1_" width="70" height="70"/>
	</defs>
	<clipPath id="SVGID_2_">
		<use xlink:href="#SVGID_1_"  style="overflow:visible;"/>
	</clipPath>
	<g class="st0">
		<path class="st1" d="M49.7,26.1c0.7-0.8,1.1-1.8,1.1-2.7c0.5-3.8-3.1-6.4-5.6-5.9L49.7,26.1z M23.3,46.6c-0.8,0.2-7.3,3.9-9.5,4.8
			c0.5,0.6,1.3,1.3,1.9,1.9c0.6,0.6,1.2,1.3,1.8,2c1.3,1.3,2.5,2.8,3.6,4.2c3.4,4.2,3.9,5.4,8.9,2.7c2-1.1,3.6-1.9,3.6-3.8
			c0-2-1.5-3.7-3-4.3c-2.2-0.9-2.1-0.6-4-2.8C25.6,50.1,24.3,48.2,23.3,46.6z M13.8,49.1l8.4-4.5l-7.9-15c-1.9,1.1-7.4,3.8-8.7,4.7
			c-2.3,1.5-3.2,4.1-3,6.3c0.2,1.7,0.9,2.7,1.7,4.2c0.8,1.6,1.2,2.5,2.5,3.6C8.7,49.9,12,50.3,13.8,49.1L13.8,49.1z M31.9,2.3
			l-1,0.5L30.8,3c0,0-0.1,0.1-0.1,0.1c-2.2,2.9-0.2,8-3.5,14.8l-1.3,2.3c-2.4,3.8-5.7,5.9-9.7,8.3l8,15.1c3.8-1.7,6.1-2.8,9.9-3.2
			c2.4-0.3,4.7,0,6.6,0.4c3-3,7-4.8,11.5-4.9c-2.5-5.4-6-12.1-8.1-15.9c-2-3.7-7.3-13.8-10.4-16.9C33,2.5,32.8,2.5,31.9,2.3z"/>
		<path class="st2" d="M52.5,37.8c-8.3,0-15,6.7-15,15c0,8.2,6.7,15,15,15c8.2,0,15-6.8,15-15C67.5,44.5,60.7,37.8,52.5,37.8
			L52.5,37.8z"/>
		<path class="st3" d="M55.2,43.5l-0.6,11.9h-4.2l-0.6-11.9H55.2z M52.5,62.2c-0.9,0-1.6-0.2-2.1-0.7c-0.5-0.5-0.8-1.1-0.8-1.8
			c0-0.7,0.3-1.3,0.8-1.8c0.5-0.5,1.2-0.7,2.1-0.7c0.8,0,1.5,0.2,2,0.7c0.5,0.5,0.8,1.1,0.8,1.8c0,0.7-0.3,1.3-0.8,1.8
			C54,62,53.4,62.2,52.5,62.2z"/>
	</g>
</g>
</svg>
