<?xml version="1.0" encoding="UTF-8"?>
<!DOCTYPE svg PUBLIC "-//W3C//DTD SVG 1.1//EN" "http://www.w3.org/Graphics/SVG/1.1/DTD/svg11.dtd">
<!-- Creator: CorelDRAW 2021 (64-Bit) -->
<svg xmlns="http://www.w3.org/2000/svg" xml:space="preserve" width="300px" height="300px" version="1.1" style="shape-rendering:geometricPrecision; text-rendering:geometricPrecision; image-rendering:optimizeQuality; fill-rule:evenodd; clip-rule:evenodd"
viewBox="0 0 52.37 52.37"
 xmlns:xlink="http://www.w3.org/1999/xlink"
 xmlns:xodm="http://www.corel.com/coreldraw/odm/2003">
 <defs>
  <style type="text/css">
   <![CDATA[
    .fil0 {fill:none}
    .fil2 {fill:#4806C1;fill-rule:nonzero}
    .fil3 {fill:#C4A4FC;fill-rule:nonzero}
    .fil1 {fill:#DCC8FF;fill-rule:nonzero}
    .fil4 {fill:white;fill-rule:nonzero}
   ]]>
  </style>
 </defs>
 <g id="Capa_x0020_1">
  <metadata id="CorelCorpID_0Corel-Layer"/>
  <rect class="fil0" width="52.37" height="52.37"/>
  <g id="_2444649036400">
   <path class="fil1" d="M5.06 17.21l42.24 0 0 27.46c0,1.16 -0.94,2.11 -2.11,2.11l-38.02 0c-1.16,0 -2.11,-0.95 -2.11,-2.11l0 -27.46z"/>
   <path class="fil2" d="M20.9 31.99l-7.39 0c-1.17,0 -2.11,0.95 -2.11,2.12l0 12.67 11.61 0 0 -12.67c0,-1.17 -0.94,-2.12 -2.11,-2.12l0 0z"/>
   <path class="fil2" d="M46.51 6.83l4.6 9.97c0.28,0.57 0.42,1.21 0.42,1.85 0,0.7 -0.17,1.39 -0.5,2.01 -1.08,1.9 -3.1,3.07 -5.28,3.08 -3.31,0 -5.97,-3.55 -5.96,-6.4l-1.76 -11.75 6.56 0c0,0 0,0 0,0 0.83,0 1.58,0.49 1.92,1.24l0 0z"/>
   <path class="fil2" d="M5.85 6.83l-4.59 9.98c-0.28,0.57 -0.42,1.21 -0.42,1.85 0,0.7 0.17,1.39 0.5,2.01 1.08,1.9 3.1,3.07 5.28,3.08 3.31,0 5.97,-3.55 5.96,-6.4l1.75 -11.76 -6.56 0c0,0 0,0 0,0 -0.82,0 -1.58,0.49 -1.92,1.24l0 0z"/>
   <path class="fil3" d="M22.63 5.76c-0.09,-0.11 -0.23,-0.17 -0.38,-0.17l-9.22 0c0,0 -1.25,12.46 -1.25,12.49 0,3.16 2.22,5.65 4.97,5.65 2.75,0 4.95,-2.54 4.95,-5.61l1.06 -11.97c0,-0.01 0,-0.03 0,-0.04 0,-0.13 -0.04,-0.25 -0.13,-0.35l0 0z"/>
   <path class="fil3" d="M39.8 5.59l-8.91 0c-0.14,0 -0.28,0.06 -0.38,0.17 -0.09,0.1 -0.14,0.23 -0.14,0.36 0,0.02 0,0.03 0,0.04l0.74 11.94c0,3.16 2.23,5.65 4.97,5.65 2.73,0 4.98,-2.54 4.98,-5.65 0,-0.03 -1.26,-12.51 -1.26,-12.51z"/>
   <path class="fil2" d="M31.2 5.59l-9.73 0 0 12.49c0,3.16 2.22,5.65 4.95,5.65 2.74,0 5.04,-2.53 5.04,-5.64l0 0 -0.26 -12.5z"/>
   <path class="fil4" d="M29.35 27.77l10.56 0c1.17,0 2.11,0.95 2.11,2.11l0 10.56c0,1.17 -0.94,2.12 -2.11,2.12l-10.56 0c-1.17,0 -2.11,-0.95 -2.11,-2.12l0 -10.56c0,-1.16 0.94,-2.11 2.11,-2.11z"/>
  </g>
 </g>
</svg>
