<?xml version="1.0" encoding="utf-8"?>
<!-- Generator: Adobe Illustrator 24.1.1, SVG Export Plug-In . SVG Version: 6.00 Build 0)  -->
<svg version="1.1"
	 id="svg26" sodipodi:docname="62b057b33e2d610f6a918ae002215558.svg" xmlns:inkscape="http://www.inkscape.org/namespaces/inkscape" xmlns:sodipodi="http://sodipodi.sourceforge.net/DTD/sodipodi-0.dtd" xmlns:svg="http://www.w3.org/2000/svg"
	 xmlns="http://www.w3.org/2000/svg" xmlns:xlink="http://www.w3.org/1999/xlink" x="0px" y="0px" viewBox="0 0 661 661"
	 style="enable-background:new 0 0 661 661;" xml:space="preserve">
<style type="text/css">
	.st0{fill-rule:evenodd;clip-rule:evenodd;fill:#DCC8FF;}
	.st1{fill:none;}
	.st2{fill-rule:evenodd;clip-rule:evenodd;fill:#4806C1;}
</style>
<sodipodi:namedview  bordercolor="#666666" borderopacity="1.0" id="namedview28" inkscape:pagecheckerboard="0" inkscape:pageopacity="0.0" inkscape:pageshadow="2" pagecolor="#ffffff">
	</sodipodi:namedview>
<g id="Capa_x0020_1" inkscape:groupmode="layer" inkscape:label="Capa 1">
	<circle id="circle7" class="st0" cx="408.2" cy="439.4" r="28.4"/>
	<rect id="rect9" class="st1" width="661" height="661"/>
	<rect id="rect11" x="42.6" y="586.2" class="st0" width="423.3" height="37.9"/>
	<polygon id="polygon13" class="st0" points="173.3,40.7 179,161 49.2,165.7 52.1,153.4 	"/>
	<path id="path15" class="st2" d="M98.5,538.8H411c4.7,0,9.5-3.8,9.5-9.5s-4.7-9.5-9.5-9.5H98.5c-5.7,0-9.5,3.8-9.5,9.5
		S92.8,538.8,98.5,538.8L98.5,538.8z M98.5,465.9h142c5.7,0,9.5-4.7,9.5-9.5c0-5.7-3.8-10.4-9.5-10.4h-142c-5.7,0-9.5,4.7-9.5,10.4
		C89,461.2,92.8,465.9,98.5,465.9z M98.5,393.9h199.8c4.7,0,9.5-4.7,9.5-9.5c0-5.7-4.7-9.5-9.5-9.5H98.5c-5.7,0-9.5,3.8-9.5,9.5
		C89,389.2,92.8,393.9,98.5,393.9z M98.5,322.9h199.8c4.7,0,9.5-4.7,9.5-9.5c0-5.7-4.7-9.5-9.5-9.5H98.5c-5.7,0-9.5,3.8-9.5,9.5
		C89,318.2,92.8,322.9,98.5,322.9z M98.5,251h143.9c4.7,0,9.5-3.8,9.5-9.5c0-4.7-4.7-9.5-9.5-9.5H98.5c-5.7,0-9.5,4.7-9.5,9.5
		C89,247.2,92.8,251,98.5,251z M28.4,179v450.8c0,5.7,5.7,10.4,11.4,10.4h429c6.6,0,11.4-4.7,11.4-10.4V490.5
		c0-9.5-1.9-15.2-11.4-15.2s-11.4,7.6-11.4,15.2v127.8H51.1V179.9H177c6.6,0,11.4-5.7,11.4-11.4V42.6h268.9v23.7
		c0,7.6,3.8,15.2,12.3,15.2c7.6,0,10.4-8.5,10.4-15.2v-35c0-5.7-4.7-11.4-11.4-11.4H179h-1c0,0,0,0-0.9,0c-2.8,0-5.7,1.9-7.6,3.8
		L32.2,160c-1.9,2.8-3.8,5.7-3.8,8.5l0.9,10.4h-0.9V179z M165.7,58.7v98.5H67.2L165.7,58.7z"/>
	<path id="path17" class="st0" d="M410,361.8c0-36.9,12.3-75.8,44.5-87.1c51.1-29.4,60.6-117.4-12.3-151.5
		c-51.1-23.7-108,2.8-114.6,68.2c-4.7,44.5,0.9,44.5-30.3,13.3c16.1-87.1,66.3-124.1,151.5-109.9c41.7,18,65.3,53,72,103.2
		c-2.8,39.8-19.9,67.2-48.3,92.8c-20.8,5.7-37.9,24.6-34.1,67.2C424.3,366.5,412.9,369.3,410,361.8z"/>
	<path id="path19" class="st2" d="M410,482c-22.7,0-41.7-18.9-41.7-41.7c0-23.7,18-42.6,41.7-42.6s41.7,18.9,41.7,42.6
		C451.7,463.1,432.8,482,410,482L410,482z M410,163.8c-18.9,0-35,15.2-35,35c0,22.7-18.9,41.7-41.7,41.7
		c-23.7,0-41.7-18.9-41.7-41.7c0-66.3,53-119.3,118.4-119.3s118.4,53,118.4,119.3c0,54-19.9,90-69.1,113.6l0,0
		c-5.7,3.8-7.6,18-7.6,24.6c0,22.7-18.9,41.7-41.7,41.7c-22.7,0-41.7-18.9-41.7-41.7c0-15.2,2.8-31.3,7.6-44.5
		c8.5-23.7,23.7-43.6,46.4-54.9c19.9-10.4,22.7-17,22.7-38.8C445.1,179,429,163.8,410,163.8L410,163.8z M410,419.5
		c-11.4,0-19.9,9.5-19.9,20.8c0,10.4,9.5,18.9,19.9,18.9s19.9-8.5,19.9-18.9C429.9,429,421.4,419.5,410,419.5L410,419.5z
		 M353.2,198.9c0-32.2,25.6-57.8,56.8-57.8s57.8,25.6,57.8,57.8c0,30.3-7.6,44.5-36,58.7c-18,9.5-29.4,25.6-36,45.5
		c-2.8,10.4-5.7,22.7-5.7,34.1c0,10.4,9.5,19.9,19.9,19.9s19.9-8.5,19.9-19.9c0-14.2,5.7-36.9,19.9-44.5
		c40.7-19.9,56.8-48.3,56.8-93.8c0-54-43.6-96.6-96.6-96.6s-96.6,42.6-96.6,96.6c0,10.4,8.5,19.9,19.9,19.9
		C343.8,218.8,353.2,209.3,353.2,198.9z"/>
	<path id="path21" class="st2" d="M526.5,452.7c7.6,2.8,10.4,11.4,7.6,18.9c-3.8,7.6-12.3,10.4-18.9,6.6c-7.6-2.8-10.4-11.4-7.6-18
		C511.4,452.7,519,448.9,526.5,452.7z M581.5,329.6c-16.1-6.6-35,0-42.6,16.1c-2.8,7.6-11.4,10.4-18.9,7.6
		c-6.6-2.8-10.4-12.3-6.6-18.9c13.3-30.3,49.2-44.5,79.5-30.3c30.3,13.3,44.5,49.2,30.3,79.5c-11.4,25.6-27.5,37.9-55.9,39.8
		c-8.5,0-17,10.4-19.9,18c-2.8,7.6-11.4,10.4-18.9,6.6c-6.6-2.8-10.4-11.4-7.6-18c8.5-18,24.6-34.1,45.5-35
		c17-0.9,24.6-6.6,31.3-22.7C605.1,356.1,597.6,337.1,581.5,329.6z"/>
	<path id="path23" class="st2" d="M577.7,184.7c6.6,0,12.3,5.7,12.3,12.3c0,7.6-5.7,13.3-13.3,12.3c-6.6,0-12.3-5.7-12.3-12.3
		C564.4,190.3,570.1,184.7,577.7,184.7z M581.5,104.2c-6.6,0-13.3,5.7-13.3,13.3c0,6.6-5.7,12.3-13.3,12.3
		c-6.6,0-12.3-5.7-12.3-13.3c0.9-20.8,18-37.9,39.8-37.9c20.8,0,38.8,18,37.9,39.8c0,18-6.6,29.4-22.7,36.9
		c-2.8,0.9-3.8,7.6-3.8,9.5c0,7.6-5.7,13.3-13.3,12.3c-6.6,0-12.3-5.7-12.3-12.3c0-13.3,6.6-26.5,18-32.2c7.6-3.8,9.5-6.6,9.5-15.2
		C595.7,109.9,589,104.2,581.5,104.2z"/>
</g>
</svg>
