<?xml version="1.0" encoding="UTF-8" standalone="no"?>
<!-- Creator: CorelDRAW 2021 (64-Bit) -->

<svg
   xml:space="preserve"
   width="2221.9946"
   height="2590.1013"
   version="1.1"
   style="clip-rule:evenodd;fill-rule:evenodd;image-rendering:optimizeQuality;shape-rendering:geometricPrecision;text-rendering:geometricPrecision"
   viewBox="0 0 44.559892 51.942032"
   id="svg10"
   sodipodi:docname="8ab26fbc2cf0455060c2891fd5d7763e.svg"
   xmlns:inkscape="http://www.inkscape.org/namespaces/inkscape"
   xmlns:sodipodi="http://sodipodi.sourceforge.net/DTD/sodipodi-0.dtd"
   xmlns="http://www.w3.org/2000/svg"
   xmlns:svg="http://www.w3.org/2000/svg"><sodipodi:namedview
   id="namedview12"
   pagecolor="#ffffff"
   bordercolor="#666666"
   borderopacity="1.0"
   inkscape:pageshadow="2"
   inkscape:pageopacity="0.0"
   inkscape:pagecheckerboard="0" />
 <defs
   id="defs4">
  <style
   type="text/css"
   id="style2">
   <![CDATA[
    .fil0 {fill:#ffffff}
   ]]>
  </style>
 </defs>
 <g
   id="Capa_x0020_1"
   inkscape:label="Capa 1"
   inkscape:groupmode="layer"
   transform="translate(-5.4054054e-5)">
  <metadata
   id="CorelCorpID_0Corel-Layer" />
  <path
   class="fil0"
   d="m 21.04,11.51 c 4.44,-0.26 8.81,1.02 12.21,3.64 0.65,0.5 1.89,1.57 2.37,2.15 1.24,1.49 1.73,1.96 2.81,4 3.44,6.55 2.42,14.35 -2.16,19.96 -0.36,0.44 -1.3,1.45 -1.64,1.73 -0.14,0.11 -0.18,0.14 -0.3,0.27 -0.13,0.13 -0.18,0.15 -0.31,0.26 -2.7,2.41 -6.74,4.02 -10.49,4.27 C 13.17,48.48 4.74,40.5 4.14,30.92 3.97,28.09 4.39,25.51 5.32,23.08 c 0.6,-1.55 1.49,-3.1 2.46,-4.39 1.01,-1.33 2.07,-2.38 3.38,-3.42 2.63,-2.09 6.3,-3.55 9.88,-3.76 z m 1.24,19.86 15.14,-0.04 C 37.74,28.95 37.33,26.39 36.56,24.32 35.98,22.78 35.33,21.67 34.41,20.44 33.03,18.58 30.96,16.89 28.86,15.9 27.09,15.07 24.54,14.32 22.28,14.41 Z M 0,28.66 v 1.95 l 0.25,2.38 c 0.31,2.11 0.96,4.22 1.85,6.1 1.11,2.33 2.86,4.9 4.71,6.56 0.34,0.32 0.69,0.67 1.05,0.97 3.77,3.24 8.08,4.86 13.02,5.27 1.19,0.09 1.95,0.05 3.11,-0.02 4.73,-0.3 9.09,-2.26 12.68,-5.23 0.7,-0.58 0.61,-0.55 1.06,-0.96 0.63,-0.58 1.06,-1.11 1.61,-1.72 2.06,-2.28 3.71,-5.7 4.53,-8.77 0.42,-1.57 0.58,-3.43 0.69,-4.63 0,-4.73 -0.84,-8.81 -3.51,-12.92 -1.08,-1.66 -2.36,-3.16 -3.81,-4.5 C 36.41,12.36 34.86,11.25 33.85,10.61 32.24,9.61 29.02,8.16 27.1,7.9 27.16,7.2 27.08,6.84 27.07,6.2 28.18,6.21 29,6.25 29.83,5.68 31.36,4.62 31.66,2.7 30.58,1.21 29.89,0.26 28.97,0.21 28.55,0 H 16.01 c -0.39,0.19 -0.74,0.16 -1.2,0.47 -1.08,0.71 -1.69,1.91 -1.39,3.3 0.2,0.93 0.74,1.53 1.35,1.93 0.84,0.54 1.61,0.5 2.73,0.5 -0.03,0.65 -0.09,1 -0.04,1.71 -0.82,0.09 -2.4,0.64 -3.16,0.94 -0.5,0.19 -0.95,0.39 -1.42,0.6 -0.39,0.18 -1.02,0.56 -1.35,0.67 L 10.24,7.99 C 9.68,7.31 8.22,7.97 7.7,8.32 7.21,8.65 6.19,9.56 6.74,10.45 6.97,10.82 7.94,12.28 8.02,12.59 7.79,12.7 7.8,12.73 7.61,12.91 7.49,13.02 7.34,13.12 7.22,13.23 6.56,12.74 6.5,12.37 5.97,12.39 5.43,12.4 4.85,12.9 4.63,13.15 3.27,14.77 4.4,15.04 4.92,15.68 4.3,16.51 3.67,17.35 3.08,18.35 1.55,20.98 0.64,23.6 0.2,26.64 0.14,27.1 0.09,28.36 0,28.66 Z"
   id="path7" />
 </g>
</svg>
