<?xml version="1.0" encoding="UTF-8" standalone="no"?>
<!-- Creator: CorelDRAW 2021 (64-Bit) -->

<svg
   xml:space="preserve"
   width="661"
   height="661"
   version="1.1"
   style="clip-rule:evenodd;fill-rule:evenodd;image-rendering:optimizeQuality;shape-rendering:geometricPrecision;text-rendering:geometricPrecision"
   viewBox="0 0 5.87 5.87"
   id="svg25"
   sodipodi:docname="43274a61dff64fab6ff98cff313ad0ce.svg"
   xmlns:inkscape="http://www.inkscape.org/namespaces/inkscape"
   xmlns:sodipodi="http://sodipodi.sourceforge.net/DTD/sodipodi-0.dtd"
   xmlns="http://www.w3.org/2000/svg"
   xmlns:svg="http://www.w3.org/2000/svg"><sodipodi:namedview
   id="namedview27"
   pagecolor="#ffffff"
   bordercolor="#666666"
   borderopacity="1.0"
   inkscape:pageshadow="2"
   inkscape:pageopacity="0.0"
   inkscape:pagecheckerboard="0" />
 <defs
   id="defs4">
  <style
   type="text/css"
   id="style2">
   <![CDATA[
    .fil0 {fill:none}
    .fil2 {fill:#058EDD}
    .fil3 {fill:#093867}
    .fil1 {fill:#058EDD;fill-rule:nonzero}
   ]]>
  </style>
 </defs>
 <g
   id="Capa_x0020_1"
   inkscape:label="Capa 1"
   inkscape:groupmode="layer">
  <metadata
   id="CorelCorpID_0Corel-Layer" />
  <rect
   class="fil0"
   width="5.8699999"
   height="5.8699999"
   id="rect7"
   x="0"
   y="0" />
  <g
   id="_2848272083440">
   <path
   class="fil1"
   d="M 1.23,1.58 C 1.05,1.46 0.87,1.31 0.74,1.12 0.72,1.19 0.71,1.27 0.71,1.34 0.71,1.7 0.86,2.27 1.13,2.46 0.96,2.45 0.81,2.4 0.67,2.33 v 0.01 c 0,0.5 0.35,0.92 0.81,1.01 C 1.4,3.38 1.31,3.39 1.21,3.39 1.15,3.39 1.08,3.38 1.02,3.37 1.15,3.78 1.53,4.08 1.97,4.09 1.62,4.37 1.19,4.54 0.71,4.54 0.63,4.54 0.55,4.53 0.47,4.52 c 0.45,0.29 0.98,0.47 1.55,0.47 0,0 0.01,0 0.01,0 C 1.92,4.96 1.81,4.93 1.71,4.89 1.79,4.88 1.87,4.87 1.95,4.85 2.41,4.74 2.79,4.48 3.06,4.12 5.58,3.12 4.64,1.04 3.48,2.21 2.99,2.02 2.09,2.24 1.23,1.58 Z"
   id="path9" />
   <path
   class="fil2"
   d="M 4.82,1.84 C 5,2.85 4.31,4 3.56,4.47 2.38,5.22 1.02,5.29 2.19,4.22 2.11,4.07 2.03,3.88 1.98,3.65 3.06,4.51 4.6,3.03 4.82,1.84 Z"
   id="path11" />
   <ellipse
   class="fil2"
   cx="3.9200001"
   cy="1.99"
   rx="1.03"
   ry="1.1"
   id="ellipse13" />
   <path
   class="fil2"
   d="M 4.45,1.3 4.8,1.95 C 4.95,1.76 5.12,1.64 5.23,1.1 L 4.44,1.25 Z"
   id="path15" />
   <path
   class="fil3"
   d="M 1.06,3.28 C 0.76,3.08 0.57,2.72 0.57,2.34 c 0,-0.05 0.04,-0.11 0.1,-0.11 0.05,0 0.1,0.04 0.1,0.1 v 0.01 c 0,0.44 0.3,0.83 0.73,0.92 0.05,0.01 0.09,0.06 0.08,0.11 -0.01,0.05 -0.05,0.08 -0.1,0.08 -0.01,0 -0.01,0 -0.02,0 C 1.33,3.42 1.2,3.37 1.09,3.3 1.1,3.31 1.11,3.33 1.12,3.34 1.23,3.72 1.57,3.99 1.97,3.99 2.01,3.99 2.05,4.02 2.06,4.06 2.07,4.1 2.06,4.14 2.03,4.17 1.92,4.26 1.8,4.34 1.67,4.4 1.42,4.53 1.15,4.61 0.86,4.63 1.23,4.8 1.62,4.89 2.02,4.89 2.81,4.89 3.53,4.58 4.06,3.99 4.53,3.46 4.8,2.75 4.8,2.04 4.8,2 4.8,1.95 4.8,1.91 4.8,1.88 4.81,1.85 4.84,1.83 5.03,1.69 5.19,1.51 5.32,1.32 5.35,1.27 5.41,1.26 5.45,1.29 5.5,1.32 5.51,1.38 5.48,1.42 5.35,1.63 5.19,1.81 5,1.95 5,1.98 5,2.01 5,2.04 5,2.8 4.71,3.56 4.21,4.12 3.64,4.76 2.87,5.08 2.02,5.08 1.45,5.08 0.89,4.92 0.42,4.6 0.38,4.58 0.36,4.53 0.38,4.49 0.39,4.44 0.44,4.42 0.48,4.42 0.56,4.43 0.64,4.44 0.71,4.44 1.02,4.44 1.31,4.37 1.58,4.23 1.62,4.2 1.67,4.18 1.71,4.15 1.34,4.06 1.04,3.77 0.93,3.4 0.91,3.35 0.94,3.3 0.99,3.28 1.02,3.27 1.04,3.27 1.06,3.28 Z M 0.84,1.25 C 0.8,1.36 0.78,1.48 0.78,1.59 0.78,1.91 0.93,2.2 1.18,2.37 1.23,2.41 1.24,2.47 1.21,2.51 1.19,2.54 1.16,2.55 1.13,2.55 1.11,2.55 1.09,2.55 1.07,2.54 0.76,2.32 0.58,1.97 0.58,1.59 0.58,1.4 0.63,1.2 0.73,1.02 0.74,1 0.77,0.98 0.81,0.97 0.84,0.97 0.87,0.99 0.89,1.01 1.38,1.63 2.11,2.02 2.9,2.06 2.96,2.06 3,2.11 3,2.16 2.99,2.21 2.95,2.26 2.89,2.25 2.1,2.21 1.36,1.85 0.84,1.25 Z M 4.65,1.1 C 4.85,1.06 5.04,0.98 5.21,0.88 5.25,0.85 5.29,0.86 5.32,0.88 5.36,0.91 5.37,0.95 5.36,0.99 5.28,1.25 5.1,1.47 4.87,1.62 4.82,1.65 4.76,1.63 4.73,1.58 4.71,1.54 4.72,1.48 4.77,1.45 4.88,1.38 4.97,1.29 5.05,1.18 4.92,1.24 4.78,1.28 4.64,1.31 4.61,1.31 4.57,1.3 4.55,1.28 4.38,1.09 4.14,0.98 3.88,0.98 3.4,0.98 3.01,1.37 2.97,1.85 c 0,0.05 -0.04,0.09 -0.1,0.09 0,0 0,0 0,0 -0.06,0 -0.1,-0.05 -0.09,-0.1 0.04,-0.58 0.52,-1.05 1.1,-1.05 0.29,0 0.57,0.11 0.77,0.31 z"
   id="path17" />
  </g>
  <path
   class="fil3"
   d="M 1.8,0.95 C 1.8,0.91 1.89,0.87 2,0.87 2.1,0.87 2.19,0.91 2.19,0.95 2.19,1 2.1,1.04 2,1.04 1.89,1.04 1.8,1 1.8,0.95 Z M 2.28,0.86 C 2.23,0.86 2.2,0.77 2.2,0.66 c 0,-0.1 0.03,-0.19 0.08,-0.19 0.05,0 0.09,0.09 0.09,0.19 0,0.11 -0.04,0.2 -0.09,0.2 z m 0,0.58 C 2.23,1.44 2.2,1.35 2.2,1.24 c 0,-0.11 0.03,-0.2 0.08,-0.2 0.05,0 0.09,0.09 0.09,0.2 0,0.11 -0.04,0.2 -0.09,0.2 z M 2.37,0.95 c 0,-0.04 0.09,-0.08 0.2,-0.08 0.11,0 0.19,0.04 0.19,0.08 C 2.76,1 2.68,1.04 2.57,1.04 2.46,1.04 2.37,1 2.37,0.95 Z"
   id="path20" />
  <path
   class="fil3"
   d="m 4.23,4.76 c 0,-0.05 0.09,-0.08 0.2,-0.08 0.11,0 0.19,0.03 0.19,0.08 0,0.05 -0.08,0.08 -0.19,0.08 -0.11,0 -0.2,-0.03 -0.2,-0.08 z M 4.71,4.67 c -0.04,0 -0.08,-0.09 -0.08,-0.2 0,-0.11 0.04,-0.19 0.08,-0.19 0.05,0 0.09,0.08 0.09,0.19 0,0.11 -0.04,0.2 -0.09,0.2 z m 0,0.58 c -0.04,0 -0.08,-0.09 -0.08,-0.2 0,-0.11 0.04,-0.2 0.08,-0.2 0.05,0 0.09,0.09 0.09,0.2 0,0.11 -0.04,0.2 -0.09,0.2 z M 4.8,4.76 C 4.8,4.71 4.89,4.68 5,4.68 5.11,4.68 5.2,4.71 5.2,4.76 5.2,4.81 5.11,4.84 5,4.84 4.89,4.84 4.8,4.81 4.8,4.76 Z"
   id="path22" />
 </g>
</svg>
