<?xml version="1.0" encoding="utf-8"?>
<!-- Generator: Adobe Illustrator 24.1.1, SVG Export Plug-In . SVG Version: 6.00 Build 0)  -->
<svg version="1.1"
	 id="svg29" sodipodi:docname="c12c1216a78fdf378eb77828a091357e.svg" xmlns:inkscape="http://www.inkscape.org/namespaces/inkscape" xmlns:sodipodi="http://sodipodi.sourceforge.net/DTD/sodipodi-0.dtd" xmlns:svg="http://www.w3.org/2000/svg"
	 xmlns="http://www.w3.org/2000/svg" xmlns:xlink="http://www.w3.org/1999/xlink" x="0px" y="0px" viewBox="0 0 661 661"
	 style="enable-background:new 0 0 661 661;" xml:space="preserve">
<style type="text/css">
	.st0{fill:none;}
	.st1{fill-rule:evenodd;clip-rule:evenodd;fill:#FFBE4D;}
	.st2{fill-rule:evenodd;clip-rule:evenodd;fill:#A36901;}
</style>
<sodipodi:namedview  bordercolor="#666666" borderopacity="1.0" id="namedview31" inkscape:pagecheckerboard="0" inkscape:pageopacity="0.0" inkscape:pageshadow="2" pagecolor="#ffffff">
	</sodipodi:namedview>
<g id="Capa_x0020_1" inkscape:groupmode="layer" inkscape:label="Capa 1">
	<rect id="rect7" class="st0" width="661" height="661"/>
	<g id="_2681533937344">
		<polygon id="polygon9" class="st1" points="285.8,399.1 306.6,425.1 319.1,461.5 235.9,463.5 235.9,382.5 		"/>
		<rect id="rect11" x="118.5" y="586.2" class="st1" width="424" height="38.5"/>
		<polygon id="polygon13" class="st1" points="249.4,40.5 254.6,161.1 124.7,165.3 127.8,152.8 		"/>
		<path id="path15" class="st2" d="M360.6,539.4h131c5.2,0,9.4-4.2,9.4-9.4s-4.2-10.4-9.4-10.4h-131c-5.2,0-10.4,5.2-10.4,10.4
			S355.4,539.4,360.6,539.4z M360.6,465.6h131c5.2,0,9.4-4.2,9.4-9.4c0-5.2-4.2-9.4-9.4-9.4h-131c-5.2,0-10.4,4.2-10.4,9.4
			S355.4,465.6,360.6,465.6L360.6,465.6z M398.1,393.9h93.5c5.2,0,9.4-4.2,9.4-9.4s-4.2-9.4-9.4-9.4h-93.5c-5.2,0-10.4,4.2-10.4,9.4
			S392.9,393.9,398.1,393.9L398.1,393.9z M167.3,323.2h93.5c5.2,0,10.4-4.2,10.4-9.4s-5.2-10.4-10.4-10.4h-93.5
			c-5.2,0-9.4,5.2-9.4,10.4S162.1,323.2,167.3,323.2z M167.3,251.5h143.4c12.5,0,12.5-19.7,0-19.7H167.3c-5.2,0-9.4,5.2-9.4,10.4
			S162.1,251.5,167.3,251.5L167.3,251.5z M105,178.8v451.1c0,6.2,5.2,11.4,11.4,11.4h429.2c6.2,0,10.4-5.2,10.4-11.4V186
			c1-8.3-2.1-14.6-11.4-14.6s-10.4,8.3-10.4,15.6v431.3H126.8V179.8h126.8c6.2,0,10.4-5.2,10.4-11.4V42.6h270.2V107
			c0,7.3,3.1,14.6,11.4,15.6c8.3,0,10.4-9.4,10.4-15.6V31.2c0-6.2-4.2-11.4-10.4-11.4h-291l0,0c-1,0-1,0-1,0c-3.1,0-6.2,2.1-8.3,4.2
			L108.1,161.1c-2.1,2.1-3.1,5.2-3.1,8.3V178.8z M242.2,58.2v98.7h-98.7L242.2,58.2z"/>
		<path id="path17" class="st2" d="M288.9,475c-6.2,44.7-64.4,62.4-95.6,30.1c-33.3-33.3-13.5-89.4,30.1-95.6c0,10.4,0,21.8,0,33.3
			c0,35.3-3.1,32.2,33.3,32.2C267.1,475,277.5,475,288.9,475z M243.2,390.8c10.4,0,26,7.3,34.3,13.5c2.1,1,3.1,2.1,5.2,4.2l7.3,7.3
			c5.2,6.2,6.2,6.2,10.4,14.6c3.1,7.3,6.2,16.6,7.3,26l-65.5-1L243.2,390.8z M223.5,390.8c-67.6,7.3-92.5,99.8-28.1,139.3
			c5.2,3.1,12.5,6.2,18.7,8.3c21.8,5.2,46.8,1,64.4-12.5c6.2-5.2,5.2-5.2,10.4-9.4c4.2-4.2,10.4-14.6,13.5-20.8
			c2.1-5.2,4.2-10.4,4.2-15.6c1-3.1,1-5.2,2.1-5.2c11.4,0,18.7,0,18.7-12.5c0-9.4-2.1-17.7-4.2-26c-3.1-9.4-9.4-21.8-16.6-30.1
			c-1-2.1-2.1-2.1-3.1-4.2L292,391.8c-3.1-3.1-6.2-4.2-9.4-6.2c-13.5-9.4-31.2-14.6-47.8-14.6C222.4,371,223.5,379.3,223.5,390.8
			L223.5,390.8z"/>
		<path id="path19" class="st2" d="M435.5,256.7c-8.3-5.2-11.4-16.6-20.8-14.6c-4.2,0-15.6,13.5-18.7,16.6
			c-2.1,2.1-7.3,5.2-7.3,10.4c-1,5.2,3.1,9.4,7.3,10.4c8.3,1,15.6-11.4,20.8-14.6c9.4,5.2,12.5,16.6,21.8,13.5
			c3.1-1,15.6-14.6,18.7-17.7c12.5-11.4,23.9-23.9,36.4-36.4c2.1-2.1,7.3-5.2,7.3-10.4c1-5.2-3.1-9.4-7.3-10.4
			c-6.2-1-9.4,4.2-11.4,7.3L435.5,256.7z M370,298.3c0-10.4,0-99.8,0-105c-2.1-10.4-18.7-11.4-18.7,1c-1,12.5,0,55.1,0,70.7
			c0,11.4,0,22.9,0,35.3c0,16.6,2.1,16.6,18.7,16.6h105c10.4,0,26,3.1,26-9.4c1-12.5-14.6-9.4-24.9-9.4
			C440.7,298.3,404.3,297.2,370,298.3L370,298.3z"/>
		<path id="rect21" class="st1" d="M356.5,102.9h16.6c3.4,0,6.2,2.8,6.2,6.2v46.8c0,3.4-2.8,6.2-6.2,6.2h-16.6
			c-3.4,0-6.2-2.8-6.2-6.2v-46.8C350.2,105.7,353,102.9,356.5,102.9z"/>
		<path id="rect23" class="st1" d="M408.4,75.9H425c3.4,0,6.2,4.2,6.2,9.4v67.6c0,5.2-2.8,9.4-6.2,9.4h-16.6c-3.4,0-6.2-4.2-6.2-9.4
			V85.2C402.2,80.1,405,75.9,408.4,75.9z"/>
		<path id="rect25" class="st1" d="M472.9,75.9h16.6c3.4,0,6.2,4.2,6.2,9.4v67.6c0,5.2-2.8,9.4-6.2,9.4h-16.6
			c-3.4,0-6.2-4.2-6.2-9.4V85.2C466.6,80.1,469.4,75.9,472.9,75.9z"/>
	</g>
</g>
</svg>
