<?xml version="1.0" encoding="utf-8"?>
<!-- Generator: Adobe Illustrator 24.1.1, SVG Export Plug-In . SVG Version: 6.00 Build 0)  -->
<svg version="1.1"
	 id="svg27" sodipodi:docname="22d82c77606d817fd09c337dcf7ae32c.svg" xmlns:inkscape="http://www.inkscape.org/namespaces/inkscape" xmlns:sodipodi="http://sodipodi.sourceforge.net/DTD/sodipodi-0.dtd" xmlns:svg="http://www.w3.org/2000/svg"
	 xmlns="http://www.w3.org/2000/svg" xmlns:xlink="http://www.w3.org/1999/xlink" x="0px" y="0px" viewBox="0 0 661 661"
	 style="enable-background:new 0 0 661 661;" xml:space="preserve">
<style type="text/css">
	.st0{fill:none;}
	.st1{fill-rule:evenodd;clip-rule:evenodd;fill:#DCC8FF;}
	.st2{fill-rule:evenodd;clip-rule:evenodd;fill:#4806C1;}
</style>
<sodipodi:namedview  bordercolor="#666666" borderopacity="1.0" id="namedview29" inkscape:pagecheckerboard="0" inkscape:pageopacity="0.0" inkscape:pageshadow="2" pagecolor="#ffffff">
	</sodipodi:namedview>
<g id="Capa_x0020_1" inkscape:groupmode="layer" inkscape:label="Capa 1">
	<rect id="rect7" class="st0" width="661" height="661"/>
	<g id="_2848154590720">
		<path id="path9" class="st1" d="M504.4,372.6c11.9-1.1,22.7-3.2,30.2-10.8c13-13,13-28.1,7.6-43.2l14-2.2l13,20.5l-2.2,22.7
			l-11.9,11.9l-29.2,9.7l-21.6-3.2V372.6z M487.1,295.9c11.9,0,22.7-2.2,31.3-10.8c13-13,11.9-28.1,6.5-42.1l15.1-3.2l13,20.5
			l-2.2,22.7l-13,11.9l-29.2,9.7l-21.6-2.2V295.9z M464.4,526c10.8,0,22.7-2.2,30.2-10.8c13-13,13-28.1,7.6-42.1l14-3.2l13,20.5
			l-2.2,22.7l-11.9,11.9l-29.2,9.7l-21.6-3.2V526z M487.1,449.3c11.9,0,23.8-2.2,31.3-10.8c13-13,11.9-28.1,6.5-42.1l15.1-3.2
			l13,20.5l-2.2,22.7l-13,11.9l-28.1,9.7l-22.7-2.2V449.3z"/>
		<polygon id="polygon11" class="st1" points="157.7,267.9 175,276.5 176.1,316.5 175,468.7 168.5,494.7 140.4,494.7 140.4,278.7 		
			"/>
		<path id="path13" class="st2" d="M555.2,300.3l3.2,1.1c24.8,14,33.5,46.4,17.3,71.3c-5.4,8.6-10.8,10.8-18.4,17.3l-2.2,1.1
			l1.1,2.2c3.2,7.6,6.5,11.9,8.6,20.5c2.2,18.4-5.4,37.8-20.5,48.6c-2.2,2.2-5.4,3.2-7.6,4.3l-3.2,2.2l1.1,2.2
			c8.6,17.3,11.9,30.2,4.3,48.6c-6.5,14-18.4,22.7-33.5,27c-2.2,1.1-4.3,1.1-7.6,1.1c-4.3,0-8.6,0-13,1.1c-13,0-25.9,0-38.9,0
			c-21.6,0-43.2,0-65.9,0c-29.2,0-59.4,2.2-89.6,0c-27-2.2-51.8-9.7-74.5-25.9c-9.7-7.6-24.8-20.5-30.2-32.4l-1.1-3.2l-3.2,2.2
			c-3.2,2.2-5.4,5.4-8.6,7.6c-2.2,2.2-3.2,4.3-5.4,5.4c-7.6,4.3-20.5,4.3-28.1,4.3c-9.7,0-19.4,1.1-28.1,0
			c-8.6-1.1-15.1-4.3-21.6-8.6c-14-9.7-13-29.2-13-44.3v-122c0-37.8-5.4-71.3,44.3-71.3c10.8,0,20.5,0,30.2,0
			c10.8,1.1,13,4.3,21.6,7.6l2.2,1.1l2.2-2.2c5.4-6.5,9.7-15.1,16.2-21.6c8.6-7.6,17.3-13,27-19.4c6.5-3.2,15.1-7.6,20.5-11.9
			c7.6-7.6,11.9-16.2,15.1-27c5.4-20.5,3.2-40-2.2-60.5c-2.2-13-8.6-31.3-6.5-44.3c2.2-8.6,5.4-17.3,11.9-23.8
			c15.1-16.2,35.6-21.6,55.1-14c20.5,8.6,25.9,22.7,33.5,42.1c15.1,42.1,25.9,84.2,27,128.5v2.2l2.2,1.1c3.2,0,6.5,0,8.6,1.1
			c5.4,0,9.7,0,15.1,0c14,0,28.1,0,42.1,0c15.1,0,30.2-1.1,45.4-1.1c9.7,0,20.5,0,30.2,1.1c14,0,25.9,6.5,35.6,17.3
			c7.6,9.7,11.9,22.7,10.8,35.6c0,5.4-1.1,9.7-3.2,15.1c-2.2,3.2-4.3,6.5-5.4,9.7L555.2,300.3z M415.8,385.6l-2.2-2.2
			c0-2.2-2.2-4.3-3.2-6.5c-2.2-2.2-4.3-4.3-5.4-7.6c-5.4-7.6-6.5-15.1-6.5-24.8c0-8.6,1.1-16.2,5.4-23.8c3.2-4.3,7.6-7.6,9.7-13
			l1.1-1.1l-1.1-2.2c-1.1-2.2-3.2-4.3-5.4-5.4c-7.6-9.7-10.8-20.5-9.7-32.4c0-5.4,1.1-8.6,2.2-13c1.1-3.2,2.2-6.5,2.2-8.6l1.1-4.3
			h-28.1l-1.1,2.2c-3.2,11.9-3.2,24.8-5.4,36.7c-3.2,20.5-10.8,42.1-20.5,60.5c-2.2,4.3-5.4,7.6-10.8,7.6c-3.2,0-7.6-2.2-9.7-5.4
			c-4.3-6.5,5.4-20.5,8.6-28.1c3.2-9.7,6.5-20.5,9.7-31.3c9.7-47.5,6.5-102.6-6.5-149c-3.2-15.1-14-48.6-22.7-60.5
			c-17.3-21.6-56.2-4.3-47.5,25.9c7.6,23.8,10.8,46.4,9.7,70.2c-1.1,21.6-6.5,42.1-21.6,58.3c-5.4,5.4-11.9,8.6-18.4,13
			c-8.6,4.3-16.2,9.7-23.8,15.1c-21.6,17.3-30.2,40-30.2,67c0,27,0,55.1,0,82.1c0,25.9,2.2,45.4,16.2,69.1
			c9.7,17.3,25.9,31.3,43.2,40c24.8,13,47.5,11.9,73.4,11.9c27,0,55.1,0,82.1,0h4.3l-1.1-4.3c-4.3-13-7.6-19.4-4.3-33.5
			c1.1-8.6,7.6-19.4,13-24.8l2.2-2.2l-1.1-2.2c-3.2-5.4-7.6-9.7-10.8-16.2c-8.6-17.3-5.4-44.3,10.8-56.2L415.8,385.6z M443.9,240.9
			c-13,2.2-21.6,11.9-22.7,24.8c-2.2,11.9,4.3,23.8,16.2,28.1c8.6,3.2,72.4,3.2,83.2,1.1c11.9-2.2,20.5-11.9,21.6-23.8
			c2.2-11.9-5.4-23.8-17.3-28.1c-3.2-1.1-10.8-1.1-14-2.2c-8.6,0-17.3,0-25.9,0c-8.6,0-17.3,0-24.8,0
			C454.7,240.9,449.3,240.9,443.9,240.9z M440.7,318.6c-30.2,8.6-25.9,52.9,9.7,54c15.1,0,31.3,0,47.5,0c8.6,0,18.4,0,27,0
			c5.4,0,11.9,0,16.2-1.1c30.2-7.6,28.1-54-9.7-54c-15.1,0-31.3,0-46.4,0c-9.7,0-18.4,0-28.1,0C452.5,317.5,445,317.5,440.7,318.6
			L440.7,318.6z M421.2,425.5c1.1,11.9,10.8,21.6,22.7,23.8c5.4,0,10.8,0,16.2,0c8.6,0,17.3,0,25.9,0c8.6,0,16.2,0,24.8,0
			c4.3-1.1,11.9-1.1,15.1-2.2c11.9-4.3,18.4-16.2,16.2-29.2c-1.1-11.9-10.8-21.6-22.7-22.7c-11.9-2.2-74.5-2.2-82.1,1.1
			C425.5,401.8,419.1,413.7,421.2,425.5z M98.3,470.9c2.2,14,14,13,24.8,13c7.6,0,14,1.1,21.6,1.1c3.2-1.1,8.6-1.1,11.9-3.2
			c4.3-2.2,5.4-5.4,6.5-9.7c1.1-5.4,1.1-11.9,1.1-17.3c0-28.1,0-56.2,0-84.2c0-16.2,0-32.4,0-47.5c0-6.5,0-11.9,0-17.3
			c0-3.2,0-6.5,0-9.7c-2.2-14-14-13-24.8-13c-7.6,0-14-1.1-21.6-1.1c-4.3,1.1-8.6,1.1-13,3.2c-3.2,2.2-4.3,5.4-5.4,9.7
			c-1.1,5.4-1.1,11.9-1.1,17.3c0,10.8,0,21.6,0,31.3c0,22.7,0,44.3,0,67c0,11.9,0,24.8,0,36.7C98.3,454.7,98.3,463.3,98.3,470.9z
			 M421.2,504.4c5.4,25.9,34.6,21.6,54,21.6c10.8,0,24.8,1.1,33.5-5.4c9.7-6.5,14-17.3,10.8-28.1c-5.4-25.9-34.6-20.5-55.1-20.5
			c-9.7,0-22.7-2.2-32.4,4.3C423.4,482.8,419.1,493.6,421.2,504.4z"/>
	</g>
	<polygon id="polygon16" class="st1" points="504.4,74.5 536.8,105.8 502.2,142.6 472,108 	"/>
	<path id="path18" class="st2" d="M501.2,59.4c-2.2,1.1-3.2,2.2-4.3,4.3c-1.1,1.1-1.1,3.2-1.1,4.3c-1.1,2.2-2.2,4.3-3.2,5.4
		c-5.4,13-13,21.6-24.8,27c-6.5,2.2-9.7,7.6-7.6,14c1.1,2.2,3.2,3.2,5.4,4.3c2.2,1.1,5.4,2.2,7.6,3.2c10.8,6.5,18.4,21.6,22.7,32.4
		c3.2,6.5,8.6,9.7,15.1,5.4c2.2-1.1,3.2-3.2,4.3-5.4c1.1-4.3,2.2-7.6,4.3-10.8c5.4-11.9,13-19.4,24.8-24.8c5.4-2.2,8.6-6.5,6.5-13
		c-1.1-2.2-3.2-3.2-6.5-5.4c-2.2-1.1-5.4-2.2-8.6-4.3c-10.8-6.5-15.1-16.2-19.4-28.1c-2.2-2.2-4.3-6.5-6.5-8.6
		C507.6,57.2,504.4,58.3,501.2,59.4z M505.5,84.2c7.6,8.6,14,16.2,21.6,24.8l1.1,1.1l-1.1,1.1c-8.6,6.5-16.2,14-21.6,24.8
		c-9.7-15.1-11.9-13-21.6-24.8l-1.1-1.1l1.1-1.1C495.8,99.4,497.9,96.1,505.5,84.2z"/>
	<polygon id="polygon20" class="st1" points="142.6,545.4 176.1,576.8 140.4,614.6 110.2,578.9 	"/>
	<path id="path22" class="st2" d="M136.1,529.2c-2.2,1.1-4.3,2.2-5.4,4.3c-1.1,1.1-1.1,3.2-1.1,4.3c-1.1,2.2-2.2,4.3-2.2,5.4
		c-5.4,13-14,21.6-25.9,27c-6.5,2.2-9.7,7.6-6.5,14c1.1,2.2,2.2,3.2,4.3,4.3c2.2,1.1,5.4,2.2,7.6,3.2c11.9,6.5,18.4,21.6,23.8,32.4
		c2.2,6.5,7.6,9.7,14,5.4c2.2-1.1,3.2-3.2,4.3-5.4c1.1-3.2,2.2-7.6,4.3-10.8c5.4-11.9,14-18.4,24.8-24.8c5.4-2.2,8.6-6.5,6.5-13
		c-1.1-2.2-3.2-3.2-5.4-4.3c-3.2-2.2-6.5-3.2-8.6-5.4c-10.8-6.5-15.1-16.2-20.5-28.1c-1.1-2.2-3.2-6.5-6.5-8.6
		C141.5,527.1,138.2,528.2,136.1,529.2z M139.3,554.1c7.6,8.6,14,16.2,21.6,24.8l1.1,1.1l-1.1,1.1c-8.6,6.5-16.2,14-21.6,24.8
		c-9.7-15.1-10.8-13-21.6-24.8l-1.1-1.1l1.1-1.1C129.6,569.2,132.8,567,139.3,554.1z"/>
	<path id="path24" class="st2" d="M75.6,153.4c0-5.4,9.7-9.7,21.6-9.7c13,0,22.7,4.3,22.7,9.7c0,5.4-9.7,9.7-22.7,9.7
		C85.3,163.1,75.6,158.8,75.6,153.4z M129.6,143.6c-5.4,0-9.7-10.8-9.7-22.7s4.3-21.6,9.7-21.6s9.7,9.7,9.7,21.6
		S135,143.6,129.6,143.6z M129.6,208.5c-5.4,0-9.7-10.8-9.7-22.7c0-11.9,4.3-22.7,9.7-22.7s9.7,10.8,9.7,22.7
		C139.3,197.7,135,208.5,129.6,208.5z M139.3,153.4c0-5.4,10.8-9.7,22.7-9.7s22.7,4.3,22.7,9.7s-10.8,9.7-22.7,9.7
		S139.3,158.8,139.3,153.4z"/>
</g>
</svg>
