<?xml version="1.0" encoding="utf-8"?>
<!-- Generator: Adobe Illustrator 24.1.1, SVG Export Plug-In . SVG Version: 6.00 Build 0)  -->
<svg version="1.1"
	 id="svg42" sodipodi:docname="04217bcf673a8bd9521d6759bb9f287a.svg" xmlns:inkscape="http://www.inkscape.org/namespaces/inkscape" xmlns:sodipodi="http://sodipodi.sourceforge.net/DTD/sodipodi-0.dtd" xmlns:svg="http://www.w3.org/2000/svg"
	 xmlns="http://www.w3.org/2000/svg" xmlns:xlink="http://www.w3.org/1999/xlink" x="0px" y="0px" viewBox="0 0 661 661"
	 style="enable-background:new 0 0 661 661;" xml:space="preserve">
<style type="text/css">
	.st0{fill-rule:evenodd;clip-rule:evenodd;fill:#DCC8FF;}
	.st1{fill:none;}
	.st2{fill-rule:evenodd;clip-rule:evenodd;fill:#4806C1;}
</style>
<sodipodi:namedview  bordercolor="#666666" borderopacity="1.0" id="namedview44" inkscape:pagecheckerboard="0" inkscape:pageopacity="0.0" inkscape:pageshadow="2" pagecolor="#ffffff">
	</sodipodi:namedview>
<g id="Capa_x0020_1" inkscape:groupmode="layer" inkscape:label="Capa 1">
	<polygon id="polygon7" class="st0" points="496.5,381.1 346.1,260.1 315.8,271.4 486.1,406.6 	"/>
	<rect id="rect9" class="st1" width="661" height="661"/>
	<polygon id="polygon11" class="st0" points="624.1,307.3 644,366 543.7,395.3 526.7,332.9 	"/>
	<polygon id="polygon13" class="st0" points="227.9,44.4 260.1,76.6 225.1,113.5 195.7,78.5 	"/>
	<polygon id="polygon15" class="st0" points="480.4,513.5 512.5,544.7 477.5,581.6 448.2,546.6 	"/>
	<polygon id="polygon17" class="st0" points="178.7,195.7 157.9,251.5 64.3,223.2 82.3,165.5 	"/>
	<path id="path19" class="st2" d="M259.1,478.5c8.5,6.6,17,14.2,25.5,19.9c3.8,2.8,10.4,6.6,14.2,7.6c1.9,0,2.8,0,4.7,0
		c1.9,0.9,4.7,0.9,6.6,0.9c2.8,0,4.7,0,6.6-0.9c0.9,0,2.8,0,3.8,0c3.8-0.9,10.4-6.6,12.3-9.5c1.9-1.9,2.8-3.8,4.7-5.7
		c0.9-2.8,1.9-5.7,2.8-8.5l0.9-1.9l1.9,0.9c3.8,1.9,5.7,3.8,8.5,6.6c2.8,1.9,5.7,4.7,9.5,5.7c10.4,5.7,21.7,6.6,32.2,0.9
		c10.4-4.7,17-14.2,19.9-24.6V468h1.9c3.8,0,8.5,0,12.3,0.9c2.8,0,5.7,0,8.5-0.9c5.7-0.9,9.5-4.7,14.2-8.5
		c5.7-4.7,10.4-11.3,12.3-18.9c0.9-1.9,0.9-4.7,1.9-6.6c0-1.9,0.9-3.8,1.9-5.7h0.9l0,0c3.8-1.9,9.5-2.8,14.2-4.7
		c2.8-0.9,6.6-3.8,9.5-6.6c5.7-6.6,10.4-14.2,12.3-22.7v-1.9h1.9c3.8,0,7.6,0,11.3-0.9c3.8-0.9,7.6-1.9,10.4-2.8l2.8-0.9v2.8
		c0.9,1.9,1.9,4.7,1.9,7.6c0.9,0.9,1.9,4.7,2.8,5.7c1.9,2.8,8.5,2.8,11.3,1.9c10.4-2.8,19.9-5.7,30.3-8.5
		c19.9-5.7,38.8-11.3,58.6-17c3.8-0.9,8.5-1.9,10.4-4.7c2.8-3.8,0.9-11.3,0-16.1C626,296,608,231.7,589.1,168.3l0,0
		c-0.9-1.9-0.9-4.7-1.9-6.6c-0.9-0.9-2.8-1.9-4.7-1.9c-0.9,0-2.8,0.9-3.8,0.9c-3.8,0.9-6.6,1.9-9.5,1.9c-9.5,2.8-18,5.7-27.4,7.6
		c-16.1,4.7-31.2,9.5-47.3,13.2c-2.8,0.9-4.7,1.9-7.6,2.8c-2.8,0-4.7,0.9-6.6,1.9c-3.8,1.9-5.7,3.8-6.6,8.5v1.9h-1.9
		c-3.8,0.9-8.5,1.9-12.3,3.8c-1.9,0.9-3.8,1.9-5.7,1.9c-2.8,0.9-3.8,0-6.6-0.9c-2.8-0.9-6.6-2.8-9.5-4.7
		c-10.4-4.7-19.9-8.5-30.3-13.2c-34-12.3-69-22.7-105-11.3c-3.8,1.9-7.6,2.8-11.3,4.7c-1.9,0.9-3.8,1.9-6.6,2.8
		c-4.7,2.8-9.5,3.8-15.1,3.8c-14.2,0-27.4,0.9-41.6,0.9c-13.2,0.9-26.5,3.8-39.7,3.8h-0.9l-0.9-0.9c-3.8-5.7-2.8-5.7-9.5-8.5
		L99.3,159c-4.7-0.9-10.4-2.8-15.1-3.8c-4.7-0.9-9.5-0.9-12.3,2.8c0,0.9,0,1.9-0.9,1.9c0,2.8-0.9,4.7-0.9,6.6
		c-18,57.7-34,116.3-50.1,174.9c-0.9,3.8-1.9,7.6-2.8,11.3c-0.9,2.8-1.9,5.7-1.9,8.5c-0.9,2.8-1.9,6.6,0,8.5
		c0.9,2.8,4.7,3.8,7.6,4.7c1.9,0.9,4.7,1.9,7.6,2.8c3.8,0.9,8.5,1.9,12.3,2.8c19.9,5.7,40.7,12.3,61.5,18c4.7,0.9,10.4,2.8,15.1,3.8
		c4.7,0,7.6-1.9,9.5-6.6c3.8-9.5,5.7-19.9,8.5-30.3l0.9-3.8l2.8,2.8c3.8,3.8,6.6,8.5,10.4,13.2C186.3,416.1,218.4,444.4,259.1,478.5
		z M33.1,357.5c0.9-8.5,4.7-16.1,6.6-23.6c14.2-50.1,28.4-101.2,43.5-150.4c0.9-1.9,0.9-3.8,1.9-5.7c0,0,0-1.9,0.9-1.9l1-1.9
		l80.4,22.7l-53.9,184.4h-1.9c-1.9,0-3.8-0.9-5.7-0.9c-2.8-0.9-5.7-1.9-8.5-2.8c-8.5-1.9-17-3.8-25.5-6.6c-8.5-1.9-17-4.7-25.5-7.6
		c-2.8-0.9-5.7-0.9-8.5-1.9c-0.9-0.9-2.8-0.9-3.8-1.9l-0.9-0.9L33.1,357.5L33.1,357.5z M238.3,225.1c-7.6,10.4-13.2,22.7-15.1,35
		c-1.9,10.4-1.9,21.7,0.9,31.2c2.8,8.5,7.6,16.1,14.2,20.8c7.6,4.7,16.1,5.7,23.6,3.8c15.1-3.8,30.3-18,39.7-28.4l11.3-13.2l0,0
		c3.8-2.8,9.5-1.9,14.2-2.8c3.8-0.9,6.6-1.9,10.4-2.8c1.9-0.9,4.7-1.9,6.6-1.9c1.9,0.9,3.8,1.9,5.7,3.8c3.8,2.8,6.6,5.7,10.4,7.6
		l85.1,69c5.7,4.7,12.3,9.5,18,14.2s11.3,9.5,17,14.2c17,14.2-2.8,40.7-20.8,34c-2.8-0.9-6.6-4.7-9.5-6.6c-2.8-2.8-5.7-5.7-8.5-7.6
		L416,373.7c-1.9-0.9-3.8-2.8-5.7-4.7c-2.8-1.9-4.7-4.7-7.6-6.6c-1.9-0.9-9.5-7.6-11.3-8.5c-7.6-1.9-14.2,4.7-10.4,12.3
		c0.9,0.9,5.7,5.7,7.6,7.6c4.7,3.8,10.4,8.5,15.1,12.3c5.7,4.7,11.3,9.5,16.1,13.2c3.8,2.8,7.6,5.7,10.4,8.5
		c4.7,3.8,14.2,11.3,16.1,17c1.9,4.7,0.9,10.4-0.9,14.2c-1.9,3.8-4.7,7.6-8.5,9.5c-13.2,8.5-23.6-0.9-33.1-9.5
		c-2.8-2.8-4.7-4.7-7.6-7.6c-11.3-9.5-23.6-18-35-27.4c-2.8-2.8-5.7-5.7-9.5-8.5c-1.9-0.9-5.7-2.8-8.5-1.9
		c-6.6,0.9-8.5,9.5-3.8,15.1c0.9,0.9,2.8,1.9,3.8,2.8c1.9,0.9,2.8,2.8,4.7,3.8l42.6,34l0,0c7.6,6.6,6.6,18.9,0.9,25.5
		c-2.8,3.8-7.6,6.6-13.2,6.6s-12.3-3.8-17-7.6c-9.5-8.5-18.9-17-28.4-24.6c-4.7-4.7-10.4-8.5-15.1-13.2c-3.8-2.8-6.6-5.7-9.5-8.5
		c-2.8-2.8-6.6-3.8-9.5-2.8c-3.8,0.9-4.7,4.7-4.7,8.5c0,4.7,1.9,5.7,4.7,8.5c4.7,4.7,10.4,9.5,15.1,15.1c2.8,2.8,5.7,4.7,7.6,7.6
		c3.8,4.7,4.7,9.5,2.8,14.2c-0.9,4.7-4.7,8.5-9.5,10.4c-4.7,1.9-9.5,1.9-14.2-0.9c-1.9-0.9-3.8-1.9-5.7-2.8
		c-2.8-2.8-5.7-4.7-8.5-6.6c-7.6-5.7-14.2-11.3-21.7-18c-30.3-24.6-62.4-52-88.9-80.4c-4.7-4.7-8.5-9.5-12.3-14.2
		c-3.8-3.8-6.6-7.6-9.5-11.3c-2.8-3.8-5.7-7.6-7.6-11.3s-0.9-7.6,0-12.3c11.3-36.9,19.9-75.7,31.2-113.5c0.9-1.9,1.9-4.7,2.8-6.6
		v-0.9l1.9-0.9c21.7-3.8,44.4-5.7,67.1-5.7h4.7L238.3,225.1z M574.9,178.7l52,185.3l-81.3,23.6l-51.1-186.3L574.9,178.7z
		 M499.3,373.5c-1.9-5.7-5.7-10.4-10.4-14.2c-33.1-27.4-66.2-53.9-100.2-80.4c-8.5-7.6-18-15.1-26.5-22.7c-3.8-2.8-8.5-6.6-12.3-8.5
		c-2.8-0.9-5.7,0-8.5,0.9c-1.9,0-3.8,0.9-6.6,1.9c-2.8,0.9-6.6,1.9-9.5,2.8c-5.7,0.9-9.5,1.9-15.1,1.9c-2.8,0-4.7,0-6.6,1.9
		c0,0-0.9,1.9-1.9,2.8c-1.9,1.9-3.8,4.7-5.7,6.6c-4.7,6.6-9.5,12.3-16.1,18c-1.9,1.9-3.8,3.8-6.6,5.7s-5.7,3.8-8.5,5.7
		c-7.6,3.8-17,4.7-21.7-3.8c-3.8-6.6-4.7-16.1-3.8-23.6c1.9-12.3,8.5-27.4,15.1-37.8c14.2-21.7,37.8-36.9,62.4-42.6
		c19.9-4.7,44.4,0.9,63.4,6.6c20.8,5.7,40.7,15.1,59.6,24.6c8.5,3.8,7.6,4.7,17,1.9c6.6-1.9,14.2-4.7,20.8-5.7h1.9l44.4,155.1
		l-0.9,0.9c-5.7,3.8-15.1,3.8-20.8,2.8h-1.9L499.3,373.5z"/>
	<path id="path21" class="st2" d="M477.5,498.4c-2.8,0.9-4.7,1.9-5.7,4.7c0,0.9-0.9,1.9-0.9,3.8c-0.9,1.9-0.9,3.8-1.9,5.7
		c-5.7,12.3-14.2,20.8-26.5,26.5c-5.7,2.8-9.5,7.6-6.6,14.2c1.9,1.9,2.8,2.8,4.7,3.8c2.8,1.9,5.7,2.8,8.5,3.8
		c10.4,6.6,18,21.7,22.7,33.1c2.8,5.7,8.5,8.5,14.2,4.7c1.9-0.9,3.8-3.8,4.7-5.7c0.9-3.8,2.8-7.6,3.8-10.4
		c5.7-11.3,14.2-18.9,25.5-24.6c5.7-2.8,8.5-6.6,5.7-13.2c-0.9-1.9-2.8-3.8-5.7-4.7c-2.8-1.9-5.7-2.8-8.5-4.7
		c-10.4-7.6-15.1-17-19.9-28.4c-1.9-2.8-3.8-6.6-5.7-8.5C483.2,496.5,480.4,496.5,477.5,498.4z M480.4,522.9
		c7.6,8.5,14.2,16.1,22.7,24.6l0.9,0.9l-0.9,0.9c-8.5,7.6-17,15.1-22.7,25.5c-9.5-15.1-10.4-13.2-20.8-25.5l-0.9-0.9l0.9-0.9
		C470.9,538.1,473.8,535.2,480.4,522.9z"/>
	<path id="path23" class="st2" d="M113.5,504c0-5.7,10.4-9.5,22.7-9.5s21.7,3.8,21.7,9.5s-9.5,9.5-21.7,9.5
		C123.9,513.5,113.5,509.7,113.5,504z"/>
	<path id="path25" class="st2" d="M177.8,504c0-5.7,10.4-9.5,22.7-9.5s21.7,3.8,21.7,9.5s-9.5,9.5-21.7,9.5
		C188.2,513.5,177.8,509.7,177.8,504L177.8,504z"/>
	<path id="path27" class="st2" d="M168.3,558.9c-5.7,0-9.5-10.4-9.5-22.7s3.8-21.7,9.5-21.7c4.7,0,9.5,9.5,9.5,21.7
		C177.8,548.5,173.1,558.9,168.3,558.9z"/>
	<path id="path29" class="st2" d="M168.3,493.6c-5.7,0-9.5-9.5-9.5-21.7c0-12.3,3.8-22.7,9.5-22.7c4.7,0,9.5,10.4,9.5,22.7
		S173.1,493.6,168.3,493.6z"/>
	<path id="path31" class="st2" d="M391.5,96.5c0-4.7,9.5-9.5,21.7-9.5c12.3,0,22.7,4.7,22.7,9.5c0,5.7-10.4,9.5-22.7,9.5
		C400.9,105.9,391.5,102.1,391.5,96.5z"/>
	<path id="path33" class="st2" d="M455.8,96.5c0-4.7,9.5-9.5,21.7-9.5s22.7,4.7,22.7,9.5c0,5.7-10.4,9.5-22.7,9.5
		C465.3,105.9,455.8,102.1,455.8,96.5z"/>
	<path id="path35" class="st2" d="M445.4,151.3c-4.7,0-9.5-9.5-9.5-21.7s4.7-22.7,9.5-22.7c5.7,0,9.5,10.4,9.5,22.7
		S451.1,151.3,445.4,151.3z"/>
	<path id="path37" class="st2" d="M445.4,87c-4.7,0-9.5-10.4-9.5-22.7s4.7-21.7,9.5-21.7c5.7,0,9.5,9.5,9.5,21.7S451.1,87,445.4,87z
		"/>
	<path id="path39" class="st2" d="M224.1,28.4c-1.9,0.9-3.8,1.9-4.7,4.7c-0.9,0.9-0.9,2.8-1.9,3.8c-0.9,1.9-0.9,3.8-1.9,5.7
		c-5.7,12.3-14.2,20.8-26.5,26.5c-5.7,2.8-9.5,7.6-5.7,14.2c0.9,2.8,1.9,3.8,3.8,4.7c2.8,0.9,5.7,1.9,8.5,3.8
		c11.3,6.6,18,20.8,22.7,32.2c2.8,5.7,8.5,9.5,14.2,5.7c1.9-1.9,3.8-3.8,4.7-6.6c1.9-2.8,2.8-6.6,4.7-10.4
		c4.7-11.3,13.2-18.9,24.6-24.6c5.7-1.9,9.5-6.6,6.6-12.3c-1.9-2.8-3.8-4.7-5.7-5.7c-3.8-1.9-6.6-2.8-9.5-4.7
		c-10.4-6.6-14.2-17-19.9-27.4c-0.9-2.8-3.8-7.6-5.7-9.5C229.8,26.5,227,27.4,224.1,28.4z M227.9,53c7.6,8.5,13.2,16.1,21.7,24.6
		l0.9,0.9l-0.9,1.9c-8.5,6.6-17,14.2-22.7,24.6c-9.5-14.2-10.4-13.2-20.8-24.6l-0.9-1.9l0.9-0.9C217.5,69,220.3,66.2,227.9,53z"/>
</g>
</svg>
