<?xml version="1.0" encoding="utf-8"?>
<!-- Generator: Adobe Illustrator 24.1.1, SVG Export Plug-In . SVG Version: 6.00 Build 0)  -->
<svg version="1.1"
	 id="svg49" sodipodi:docname="5aeb9d9cd7b7c1ba16fc8d83a9cbe8ab.svg" xmlns:inkscape="http://www.inkscape.org/namespaces/inkscape" xmlns:sodipodi="http://sodipodi.sourceforge.net/DTD/sodipodi-0.dtd" xmlns:svg="http://www.w3.org/2000/svg"
	 xmlns="http://www.w3.org/2000/svg" xmlns:xlink="http://www.w3.org/1999/xlink" x="0px" y="0px" viewBox="0 0 661 661"
	 style="enable-background:new 0 0 661 661;" xml:space="preserve">
<style type="text/css">
	.st0{fill:#DCC8FF;}
	.st1{fill:none;}
	.st2{fill-rule:evenodd;clip-rule:evenodd;fill:#DCC8FF;}
	.st3{fill:#4806C1;}
</style>
<sodipodi:namedview  bordercolor="#666666" borderopacity="1.0" id="namedview51" inkscape:pagecheckerboard="0" inkscape:pageopacity="0.0" inkscape:pageshadow="2" pagecolor="#ffffff">
	</sodipodi:namedview>
<g id="Capa_x0020_1" inkscape:groupmode="layer" inkscape:label="Capa 1">
	<polygon id="polygon7" class="st0" points="528.3,40.4 504.9,40.4 504.9,104.9 528.3,104.9 	"/>
	<rect id="rect9" class="st1" width="661" height="661"/>
	<rect id="rect11" x="556.1" y="106.7" class="st2" width="26.9" height="516.6"/>
	<path id="path13" class="st3" d="M142.6,149.8c0,6.3-4.5,10.8-10.8,10.8c-6.3,0-10.8-4.5-10.8-10.8V37.7c0-6.3,4.5-10.8,10.8-10.8
		h400.9c6.3,0,10.8,4.5,10.8,10.8v65.5c0,5.4-4.5,10.8-10.8,10.8c-5.4,0-10.8-5.4-10.8-10.8V48.4H142.6V149.8z"/>
	<path id="path15" class="st3" d="M121.1,227.8c0-6.3,4.5-11.7,10.8-11.7c6.3,0,10.8,5.4,10.8,11.7v200.9
		c-8.1,2.7-15.2,6.3-21.5,11.7V227.8z M142.6,537.2v9.9h43.1v-15.2c9.9-5.4,17-13.5,21.5-22.4v48.4c0,6.3-4.5,10.8-10.8,10.8h-64.6
		c-6.3,0-10.8-4.5-10.8-10.8v-31.4C127.4,531,134.5,535.4,142.6,537.2z"/>
	<path id="path17" class="st3" d="M207.2,438.6c0,4.5-1.8,8.1-5.4,9.9c-4.5-5.4-9.9-9.9-16.1-13.5V103.1c0-6.3,5.4-11.7,10.8-11.7
		h233.2c6.3,0,10.8,5.4,10.8,11.7c0,5.4-4.5,10.8-10.8,10.8H207.2V438.6z"/>
	<path id="path19" class="st3" d="M484.3,113.9c-6.3,0-10.8-5.4-10.8-10.8c0-6.3,4.5-11.7,10.8-11.7h103.1c5.4,0,10.8,5.4,10.8,11.7
		v438.6c0,6.3-5.4,10.8-10.8,10.8c-6.3,0-10.8-4.5-10.8-10.8V113.9H484.3z"/>
	<path id="path21" class="st3" d="M576.7,591c0-6.3,4.5-10.8,10.8-10.8c5.4,0,10.8,4.5,10.8,10.8v32.3c0,6.3-5.4,10.8-10.8,10.8
		h-391c-5.4,0-10.8-4.5-10.8-10.8v-91.5c9.9-5.4,17-13.5,21.5-22.4v103.1h369.5V591z"/>
	<path id="path23" class="st3" d="M543.5,194.6c6.3,0,10.8,5.4,10.8,10.8c0,6.3-4.5,10.8-10.8,10.8h-64.6l0,0
		c-3.6,0-6.3,1.8-8.1,3.6c-1.8,1.8-2.7,4.5-2.7,7.2v0.9c0,2.7,0.9,5.4,2.7,7.2c1.8,1.8,4.5,3.6,8.1,3.6h108.5c9,0,17-3.6,22.4-9.9
		c6.3-6.3,9.9-14.4,9.9-23.3l0,0l0,0c0-9-3.6-17-9.9-22.4c-2.7-3.6-7.2-6.3-11.7-8.1v30.5c0,6.3-5.4,10.8-10.8,10.8
		c-6.3,0-10.8-4.5-10.8-10.8v-43.1l0,0c0-6.3,4.5-10.8,10.8-10.8c14.4,0,28.7,6.3,37.7,16.1c9.9,9.9,16.1,23.3,16.1,37.7l0,0l0,0
		c0,15.2-6.3,28.7-16.1,38.6c-9,9.9-23.3,16.1-37.7,16.1H478.9c-9,0-17-3.6-23.3-9.9c-5.4-5.4-9-13.5-9-22.4l0,0
		c0-9,3.6-17.9,9-23.3c6.3-6.3,14.4-9.9,23.3-9.9l0,0H543.5z"/>
	<polygon id="polygon25" class="st0" points="391.9,183.9 261.9,183.9 261.9,210.8 391.9,210.8 	"/>
	<path id="path27" class="st3" d="M370.4,324.7c-6.3,0-10.8-4.5-10.8-10.8c0-5.4,4.5-10.8,10.8-10.8h10.8V194.6H272.7v108.5h43.1
		c6.3,0,10.8,5.4,10.8,10.8c0,6.3-4.5,10.8-10.8,10.8h-53.8c-6.3,0-10.8-4.5-10.8-10.8v-130c0-5.4,4.5-10.8,10.8-10.8h130
		c6.3,0,10.8,5.4,10.8,10.8v130c0,6.3-4.5,10.8-10.8,10.8H370.4z"/>
	<path id="path29" class="st3" d="M261.9,390.1c-6.3,0-10.8-4.5-10.8-10.8s4.5-10.8,10.8-10.8H522c6.3,0,10.8,4.5,10.8,10.8
		c0,6.3-4.5,10.8-10.8,10.8H261.9z"/>
	<path id="path31" class="st3" d="M522,422.4c6.3,0,10.8,5.4,10.8,10.8c0,6.3-4.5,10.8-10.8,10.8H402.7c-6.3,0-10.8-4.5-10.8-10.8
		c0-5.4,4.5-10.8,10.8-10.8H522z"/>
	<path id="path33" class="st3" d="M348.9,422.4c5.4,0,10.8,5.4,10.8,10.8c0,6.3-5.4,10.8-10.8,10.8h-87c-6.3,0-10.8-4.5-10.8-10.8
		c0-5.4,4.5-10.8,10.8-10.8H348.9z"/>
	<path id="path35" class="st3" d="M261.9,498.7c-6.3,0-10.8-5.4-10.8-10.8c0-6.3,4.5-10.8,10.8-10.8H522c6.3,0,10.8,4.5,10.8,10.8
		c0,5.4-4.5,10.8-10.8,10.8H261.9z"/>
	<path id="path37" class="st3" d="M261.9,552.5c-6.3,0-10.8-4.5-10.8-10.8c0-5.4,4.5-10.8,10.8-10.8h195.5c5.4,0,10.8,5.4,10.8,10.8
		c0,6.3-5.4,10.8-10.8,10.8H261.9z"/>
	<path id="path39" class="st3" d="M121.1,135.4c0-6.3,4.5-10.8,10.8-10.8c6.3,0,10.8,4.5,10.8,10.8v37.7c0,6.3-4.5,10.8-10.8,10.8
		c-6.3,0-10.8-4.5-10.8-10.8V135.4z"/>
	<g id="_2706139196800">
		<path id="path41" class="st2" d="M184.8,382.1c9,16.1,33.2,17.9,44.8,27.8c39.5-1.8,54.7,10.8,27.8,43.9
			c-6.3,8.1,5.4,21.5,5.4,33.2c0,8.1-0.9,16.1-2.7,24.2c17,43.1-0.9,53.8-29.6,52.9c-12.6,12.6-26.9,21.5-43.9,26.9
			c-35.9,30.5-47.5,26.9-66.4,0c-17-6.3-32.3-15.2-44.8-27.8c-35,1.8-47.5-14.4-27.8-51.1c-1.8-8.1-2.7-16.1-2.7-25.1
			c0-11.7,11.7-24.2,5.4-33.2c-22.4-30.5-10.8-44.8,28.7-45.7c17-0.9,22.4-15.2,46.6-21.5C138.1,348.9,165,348,184.8,382.1z
			 M151.6,414.4c38.6,0,70,31.4,70,70s-31.4,70-70,70s-70-31.4-70-70S113,414.4,151.6,414.4z"/>
		<path id="path43" class="st2" d="M154.3,401.8c46.6,0,84.3,38.6,84.3,85.2s-37.7,84.3-84.3,84.3c-47.5,0-85.2-37.7-85.2-84.3
			S106.7,401.8,154.3,401.8z M152.5,430.5c29.6,0,53.8,24.2,53.8,54.7c0,29.6-24.2,54.7-53.8,54.7c-30.5,0-54.7-25.1-54.7-54.7
			C97.8,454.7,122,430.5,152.5,430.5z"/>
		<path id="path45" class="st3" d="M153.4,528.3L153.4,528.3L153.4,528.3L153.4,528.3L153.4,528.3L153.4,528.3L153.4,528.3
			L153.4,528.3L153.4,528.3h0.9c11.7,0,22.4-4.5,30.5-12.6c2.7-2.7,5.4-6.3,7.2-9.9l0,0c1.8-3.6,3.6-6.3,3.6-9.9
			c0.9-3.6,1.8-7.2,1.8-10.8c0-11.7-4.5-23.3-12.6-30.5c-8.1-8.1-18.8-12.6-30.5-12.6l0,0l0,0h-0.9c-11.7,0-22.4,4.5-30.5,12.6
			c-7.2,7.2-12.6,18.8-12.6,30.5c0,3.6,0.9,7.2,1.8,10.8s1.8,6.3,3.6,9.9l0,0c1.8,3.6,4.5,7.2,7.2,9.9
			C130.9,523.8,141.7,528.3,153.4,528.3z M153.4,419.7h0.9l0,0l0,0c17.9,0.9,34.1,8.1,45.7,19.7c11.7,11.7,18.8,27.8,18.8,45.7
			c0,17.9-7.2,34.1-18.8,45.7c-11.7,11.7-27.8,18.8-44.8,18.8l0,0l0,0l0,0l0,0h-0.9l0,0l0,0l0,0l0,0l0,0h-0.9l0,0l0,0l0,0l0,0l0,0
			l0,0h-0.9l0,0c-17,0-33.2-7.2-44.8-18.8c-11.7-11.7-18.8-27.8-18.8-45.7c0-17.9,7.2-34.1,18.8-45.7
			C119.3,427.8,135.4,420.6,153.4,419.7z M173.1,378.5c0,0,0,0,0.9,0.9l1.8,6.3c1.8,2.7,4.5,5.4,7.2,6.3l0,0
			c7.2,1.8,13.5,5.4,19.7,9c2.7,1.8,6.3,3.6,9,5.4c0,0.9,0.9,0.9,0.9,0.9c1.8,0.9,2.7,1.8,3.6,2.7c1.8,0.9,2.7,2.7,3.6,3.6
			c1.8,1.8,5.4,2.7,8.1,2.7l0,0l0,0h0.9l0,0l0,0l15.2-2.7l6.3-0.9l14.4,25.1l-13.5,17l0,0c-1.8,2.7-2.7,6.3-1.8,9.9v0.9l0,0l0,0l0,0
			c0.9,2.7,0.9,6.3,1.8,9c0,3.6,0,7.2,0,10.8l0,0c0,1.8,0,3.6,0,4.5c0,1.8,0,3.6,0,5.4v0.9c-0.9,3.6-0.9,7.2-1.8,10.8
			c-0.9,2.7,0,6.3,1.8,9l0,0l13.5,17L250.2,557l-21.5-2.7c-0.9,0-1.8,0-2.7,0l0,0l0,0l0,0l0,0l0,0l0,0c-2.7,0-4.5,0.9-6.3,2.7
			s-4.5,3.6-7.2,5.4l0,0l0,0v0.9l0,0c-1.8,0.9-3.6,1.8-5.4,3.6l0,0c-0.9,0.9-1.8,0.9-2.7,1.8l0,0l0,0l0,0l0,0
			c-0.9,0-0.9,0.9-1.8,0.9c-6.3,3.6-12.6,6.3-19.7,9l0,0c-2.7,0.9-5.4,2.7-7.2,6.3l-7.2,19.7h-28.7l-8.1-19.7
			c-1.8-3.6-3.6-5.4-7.2-6.3l0,0c-6.3-2.7-13.5-5.4-19.7-9c0,0-0.9-0.9-1.8-0.9l0,0l0,0l0,0l0,0c-0.9-0.9-1.8-0.9-2.7-1.8l0,0
			c-1.8-1.8-3.6-2.7-5.4-3.6l0,0v-0.9l0,0c-2.7-1.8-4.5-3.6-7.2-5.4c-1.8-1.8-3.6-2.7-6.3-2.7l0,0l0,0l0,0l0,0c-0.9,0-1.8,0-2.7,0
			L59.2,557h-1.8l-14.4-24.2l13.5-17l0,0c1.8-2.7,2.7-6.3,1.8-9c0-3.6-0.9-7.2-1.8-10.8v-0.9c0-1.8,0-3.6,0-5.4c0-0.9,0-2.7,0-4.5
			l0,0c0-3.6,0-7.2,0-10.8c0.9-2.7,0.9-6.3,1.8-9l0,0l0,0v-0.9c0.9-3.6,0.9-7.2-1.8-9.9l0,0l-13.5-17l14.4-25.1l9.9,1.8l11.7,1.8
			l0,0l0,0l0,0h0.9l0,0l0,0l0,0c2.7,0,6.3-0.9,8.1-2.7c0.9-0.9,2.7-2.7,3.6-3.6c0.9-0.9,1.8-1.8,3.6-2.7c0,0,0.9,0,0.9-0.9
			c2.7-1.8,6.3-3.6,9-5.4c6.3-3.6,12.6-7.2,19.7-9l0,0c2.7-0.9,5.4-3.6,7.2-6.3l2.7-6.3c0-0.9,0-0.9,0-0.9l5.4-12.6h28.7
			L173.1,378.5z M131.8,344.4L131.8,344.4c-4.5,0-9,2.7-9.9,7.2l-9,21.5c-6.3,1.8-12.6,5.4-18.8,9c-6.3,3.6-11.7,7.2-17,11.7
			l-4.5-0.9l-18.8-2.7c-4.5,0-9,1.8-11.7,6.3l-20.6,36.8c-2.7,3.6-2.7,9,0,12.6l0,0l15.2,18.8c-0.9,1.8-0.9,4.5-1.8,7.2
			c0,4.5,0,9,0,13.5c0,4.5,0,9,0,13.5c0.9,1.8,0.9,4.5,1.8,7.2l-15.2,18.8c-2.7,3.6-2.7,9,0,12.6l7.2,12.6l0,0L42.2,574
			c2.7,3.6,7.2,6.3,11.7,5.4l0,0l0,0l9-0.9l14.4-1.8c5.4,4.5,10.8,8.1,17,11.7c3.6,1.8,7.2,3.6,10.8,5.4l0,0l0,0l0,0h0.9l0,0l0,0
			v0.9l0,0l0,0l0,0l0,0c2.7,0.9,5.4,1.8,7.2,2.7l9,21.5c0.9,2.7,2.7,4.5,3.6,5.4h0.9l0,0l0,0c1.8,0.9,3.6,1.8,5.4,1.8l0,0h43.9l0,0
			c1.8,0,4.5-0.9,6.3-1.8l0,0l0,0l0,0l0,0c1.8-1.8,2.7-2.7,3.6-5.4l9-21.5c2.7-0.9,4.5-1.8,7.2-2.7l0,0l0,0v-0.9h0.9l0,0l0,0l0,0
			l0,0l0,0l0,0l0,0c3.6-1.8,7.2-3.6,10.8-5.4c6.3-3.6,11.7-7.2,17-11.7l13.5,1.8l9.9,0.9l0,0l0,0h0.9l0,0l0,0
			c4.5,0.9,9-1.8,10.8-5.4l13.5-24.2c0,0,0,0,0.9,0l6.3-12.6c2.7-3.6,2.7-9,0-12.6l-15.2-18.8c0.9-2.7,0.9-5.4,1.8-7.2
			c0-4.5,0.9-9,0.9-13.5c0-4.5-0.9-9-0.9-13.5c-0.9-2.7-0.9-5.4-1.8-7.2l15.2-18.8l0,0c2.7-3.6,2.7-9,0.9-12.6l-21.5-36.8
			c-1.8-4.5-6.3-6.3-11.7-6.3l-15.2,2.7l-8.1,0.9c-5.4-4.5-10.8-8.1-17-11.7c-6.3-3.6-12.6-7.2-18.8-9l-9-21.5
			c-0.9-4.5-5.4-7.2-9.9-7.2l0,0H131.8z"/>
	</g>
</g>
</svg>
