<?xml version="1.0" encoding="utf-8"?>
<!-- Generator: Adobe Illustrator 24.1.1, SVG Export Plug-In . SVG Version: 6.00 Build 0)  -->
<svg version="1.1"
	 id="svg26" sodipodi:docname="2dfe6e92aaa21928cbc5a769b0047078.svg" xmlns:inkscape="http://www.inkscape.org/namespaces/inkscape" xmlns:sodipodi="http://sodipodi.sourceforge.net/DTD/sodipodi-0.dtd" xmlns:svg="http://www.w3.org/2000/svg"
	 xmlns="http://www.w3.org/2000/svg" xmlns:xlink="http://www.w3.org/1999/xlink" x="0px" y="0px" viewBox="0 0 661 661"
	 style="enable-background:new 0 0 661 661;" xml:space="preserve">
<style type="text/css">
	.st0{fill:none;}
	.st1{fill-rule:evenodd;clip-rule:evenodd;fill:#DCC8FF;}
	.st2{fill-rule:evenodd;clip-rule:evenodd;fill:#4806C1;}
	.st3{fill:#4806C1;}
</style>
<sodipodi:namedview  bordercolor="#666666" borderopacity="1.0" id="namedview28" inkscape:pagecheckerboard="0" inkscape:pageopacity="0.0" inkscape:pageshadow="2" pagecolor="#ffffff">
	</sodipodi:namedview>
<g id="Capa_x0020_1" inkscape:groupmode="layer" inkscape:label="Capa 1">
	<rect id="rect7" class="st0" width="661" height="661"/>
	<path id="path9" class="st1" d="M594.5,131.1H612l6.5,3.7v241.9l-9.2,9.2h-9.2l-22.2,15.7l-129.2,3.7l-36,23.1l-36,44.3L360,455.1
		l5.5-19.4l45.2-45.2c4.6-5.5,12.9-7.4,22.2-8.3h130.2c13.8-0.9,31.4-24,31.4-32.3L594.5,131.1L594.5,131.1z"/>
	<rect id="rect11" x="42.5" y="586.2" class="st1" width="423.7" height="37.9"/>
	<polygon id="polygon13" class="st1" points="173.6,40.6 179.1,161.6 48.9,165.3 52.6,153.2 	"/>
	<path id="path15" class="st2" d="M282.5,348c0,18.5,6.5,35.1,19.4,48c10.2,10.2,23.1,17.5,37.9,19.4l8.3,1.8l-1.8,65.5v0.9
		c0,2.8,0.9,6.5,3.7,8.3c4.6,4.6,11.1,4.6,15.7,0l72-75.7h126.5c17.5,0,35.1-7.4,48-20.3s20.3-29.5,20.3-48V176.3
		c0-18.5-7.4-36-20.3-48.9c-12.9-12.9-30.5-20.3-48-20.3H350.8c-18.5,0-36,7.4-48.9,20.3s-19.4,30.5-19.4,48.9V348z M349.9,394.2
		c-12,0-23.1-5.5-31.4-13.8c-9.2-8.3-13.8-20.3-13.8-32.3V176.3c0-12.9,4.6-24,13.8-33.2c8.3-8.3,20.3-12.9,32.3-12.9h213.3
		c12,0,24,4.6,32.3,12.9c8.3,9.2,13.8,20.3,13.8,33.2V348c0,12-5.5,24-13.8,32.3c-8.3,9.2-20.3,13.8-32.3,13.8H433
		c-3.7,0-6.5,1.8-9.2,3.7v0.9l-54.5,57.2l0.9-50.8c0-5.5-4.6-11.1-11.1-11.1h-9.2V394.2z M97.9,539.1h313c5.5,0,10.2-4.6,10.2-9.2
		c0-5.5-4.6-10.2-10.2-10.2h-313c-4.6,0-9.2,4.6-9.2,10.2C88.6,534.5,93.2,539.1,97.9,539.1z M97.9,466.2H241
		c5.5,0,9.2-4.6,9.2-10.2c0-4.6-3.7-9.2-9.2-9.2H97.9c-4.6,0-9.2,4.6-9.2,9.2C88.6,461.6,93.2,466.2,97.9,466.2z M97.9,394.2H192
		c5.5,0,10.2-4.6,10.2-10.2c0-4.6-4.6-9.2-10.2-9.2H97.9c-4.6,0-9.2,4.6-9.2,9.2C88.6,389.6,93.2,394.2,97.9,394.2z M97.9,323.1H192
		c5.5,0,10.2-4.6,10.2-10.2c0-4.6-4.6-9.2-10.2-9.2H97.9c-4.6,0-9.2,4.6-9.2,9.2C88.6,318.5,93.2,323.1,97.9,323.1L97.9,323.1z
		 M97.9,251.1h144c5.5,0,10.2-3.7,10.2-9.2s-4.6-9.2-10.2-9.2h-144c-4.6,0-9.2,3.7-9.2,9.2C88.6,247.4,93.2,251.1,97.9,251.1z
		 M28.6,179.1v450.5c0,6.5,5.5,11.1,11.1,11.1H469c6.5,0,12-4.6,12-11.1V490.2c0-8.3-2.8-14.8-12-14.8c-10.2,0-11.1,7.4-11.1,15.7
		v127.4H51.7V180h125.6c6.5,0,11.1-5.5,11.1-11.1V42.5H458v24c0,7.4,3.7,14.8,12,15.7c8.3,0,11.1-9.2,11.1-15.7V31.4
		c0-6.5-5.5-11.1-12-11.1h-290h-0.9c0,0,0,0-0.9,0c-2.8,0-5.5,0.9-8.3,2.8L32.3,160.6c-2.8,1.8-3.7,5.5-3.7,8.3l0.9,10.2H28.6z
		 M166.2,58.2V157H67.4L166.2,58.2z"/>
	<path id="path17" class="st3" d="M449.6,177.3c4.6-4.6,12-5.5,16.6-0.9c5.5,4.6,5.5,12,1.8,16.6l-51.6,59l73.9-16.6
		c6.5-1.8,12,2.8,13.8,8.3c0.9,3.7,0,7.4-2.8,10.2l-71.1,88.6c-4.6,4.6-12,5.5-16.6,1.8c-5.5-4.6-5.5-12-1.8-16.6l49.9-61.9
		l-74.8,16.6c-3.7,0.9-7.4,0-11.1-2.8c-4.6-4.6-5.5-12-0.9-16.6L449.6,177.3z"/>
	<circle id="circle19" class="st2" cx="466.2" cy="335.1" r="11.1"/>
	<path id="path21" class="st3" d="M494.8,452.4c-3.7-4.6-2.8-12,2.8-15.7c4.6-4.6,12-2.8,16.6,1.8l53.5,74.8
		c4.6,4.6,2.8,12-1.8,15.7c-5.5,4.6-12.9,2.8-16.6-1.8L494.8,452.4z"/>
	<path id="path23" class="st3" d="M560.4,25.8c3.7-5.5,11.1-6.5,16.6-2.8s6.5,11.1,2.8,16.6l-36.9,49.9c-3.7,4.6-11.1,6.5-15.7,2.8
		c-5.5-4.6-6.5-12-2.8-16.6L560.4,25.8z"/>
</g>
</svg>
