<?xml version="1.0" encoding="utf-8"?>
<!-- Generator: Adobe Illustrator 24.1.1, SVG Export Plug-In . SVG Version: 6.00 Build 0)  -->
<svg version="1.1"
	 id="svg41" sodipodi:docname="800607757d29c9806c83bb48ce017931.svg" xmlns:inkscape="http://www.inkscape.org/namespaces/inkscape" xmlns:sodipodi="http://sodipodi.sourceforge.net/DTD/sodipodi-0.dtd" xmlns:svg="http://www.w3.org/2000/svg"
	 xmlns="http://www.w3.org/2000/svg" xmlns:xlink="http://www.w3.org/1999/xlink" x="0px" y="0px" viewBox="0 0 661 661"
	 style="enable-background:new 0 0 661 661;" xml:space="preserve">
<style type="text/css">
	.st0{fill:none;}
	.st1{fill-rule:evenodd;clip-rule:evenodd;fill:#FFBE4D;}
	.st2{fill:#FFBE4D;}
	.st3{fill:#A36901;}
</style>
<sodipodi:namedview  bordercolor="#666666" borderopacity="1.0" id="namedview43" inkscape:pagecheckerboard="0" inkscape:pageopacity="0.0" inkscape:pageshadow="2" pagecolor="#ffffff">
	</sodipodi:namedview>
<g id="Capa_x0020_1" inkscape:groupmode="layer" inkscape:label="Capa 1">
	<rect id="rect7" class="st0" width="661" height="661"/>
	<g id="_2681752220912">
		<polygon id="polygon9" class="st1" points="595.1,586.4 609.8,571.7 614.2,546.5 524.8,456.3 515.3,438.9 607.2,347 615.9,321 
			599.4,304.5 574.3,304.5 486.6,396.4 463.2,401.6 383.4,317.5 352.2,304.5 332.2,320.1 334.8,343.5 423.3,431.1 432.9,450.2 
			410.3,475.4 344.4,537.8 333.1,564.7 348.7,580.3 374.7,582.1 475.4,484 567.3,576 		"/>
		<polygon id="polygon11" class="st2" points="443.3,40.8 419.8,40.8 419.8,104.1 443.3,104.1 		"/>
		<path id="path13" class="st1" d="M497.9,106.7H471v262l3.5,3.5l23.4-24.3V106.7z M471,520.5v102.4h26.9v-81.5L474.5,517L471,520.5
			z"/>
		<path id="path15" class="st3" d="M57.3,150.1c0,6.1-4.3,10.4-10.4,10.4s-11.3-4.3-11.3-10.4V37.3c0-6.1,5.2-10.4,11.3-10.4h400.8
			c6.1,0,11.3,4.3,11.3,10.4v65.1c0,6.1-5.2,11.3-11.3,11.3c-6.1,0-10.4-5.2-10.4-11.3V48.6H57.3V150.1z"/>
		<path id="path17" class="st3" d="M35.6,227.3c0-6.1,5.2-10.4,11.3-10.4s10.4,4.3,10.4,10.4v198.6v2.6V537v5.2v5.2h43.4v-15.6
			c9.5-5.2,17.3-13,21.7-22.6v48.6c0,6.1-4.3,11.3-10.4,11.3H46.8c-6.1,0-11.3-5.2-11.3-11.3v-15.6v-16.5v-85v-14.7V227.3z"/>
		<path id="path19" class="st3" d="M100.6,434.6v-24.3V102.4c0-6.1,5.2-10.4,11.3-10.4h232.5c6.1,0,11.3,4.3,11.3,10.4
			c0,6.1-5.2,11.3-11.3,11.3H122.3v296.7v28.6v100.6h-21.7V434.6z"/>
		<path id="path21" class="st3" d="M399,113.6c-6.1,0-11.3-5.2-11.3-11.3c0-6.1,5.2-10.4,11.3-10.4h103.2c6.1,0,10.4,4.3,10.4,10.4
			v230.7L491,354.8V113.6H399z M507.5,550.8c-1.7,0.9-3.5,1.7-5.2,1.7c-6.1,0-11.3-5.2-11.3-10.4v-7.8L507.5,550.8z"/>
		<path id="path23" class="st3" d="M491,590.7c0-6.1,5.2-11.3,11.3-11.3c6.1,0,10.4,5.2,10.4,11.3v32.1c0,6.1-4.3,11.3-10.4,11.3
			H111.9c-6.1,0-11.3-5.2-11.3-11.3v-91.1c9.5-5.2,17.3-13,21.7-22.6v103.2H491V590.7z"/>
		<path id="path25" class="st3" d="M458.9,195.2c6.1,0,10.4,4.3,10.4,10.4s-4.3,11.3-10.4,11.3h-65.1l0,0c-3.5,0-6.1,0.9-7.8,2.6
			c-1.7,1.7-3.5,4.3-3.5,6.9c0,0.9,0,0.9,0,1.7c0,2.6,1.7,5.2,3.5,6.9c1.7,1.7,4.3,3.5,7.8,3.5h108.4c8.7,0,16.5-4.3,22.6-9.5
			c6.1-6.1,9.5-14.7,9.5-23.4l0,0l0,0c0-8.7-3.5-17.3-9.5-22.6c-3.5-3.5-6.9-6.1-12.1-7.8v30.4c0,6.1-4.3,11.3-10.4,11.3
			c-6.1,0-11.3-5.2-11.3-11.3v-43.4l0,0c0-6.1,5.2-10.4,11.3-10.4c14.7,0,28.6,6.1,38.2,15.6c9.5,9.5,15.6,23.4,15.6,38.2l0,0l0,0
			c0,14.7-6.1,28.6-15.6,38.2c-9.5,10.4-23.4,15.6-38.2,16.5H393.8c-9.5,0-17.3-4.3-23.4-9.5c-5.2-6.1-9.5-13.9-9.5-23.4l0,0
			c0-8.7,4.3-17.3,9.5-22.6c6.1-6.1,13.9-9.5,23.4-9.5l0,0H458.9z"/>
		<path id="path27" class="st3" d="M177,419.8c-6.1,0-11.3-5.2-11.3-11.3c0-5.2,5.2-10.4,11.3-10.4h177.8l21.7,21.7H177z"/>
		<path id="path29" class="st3" d="M263.7,235.1c6.1,0,10.4,5.2,10.4,11.3c0,6.1-4.3,10.4-10.4,10.4H177c-6.1,0-11.3-4.3-11.3-10.4
			c0-6.1,5.2-11.3,11.3-11.3H263.7z"/>
		<path id="path31" class="st3" d="M177,311.4c-6.1,0-11.3-5.2-11.3-11.3s5.2-10.4,11.3-10.4h150.9c-1.7,0.9-2.6,1.7-3.5,2.6
			c-0.9,0.9-1.7,1.7-2.6,2.6c-4.3,4.3-7.8,10.4-10.4,16.5H177z M391.2,289.7h46c6.1,0,10.4,4.3,10.4,10.4s-4.3,11.3-10.4,11.3h-23.4
			l-18.2-17.3C394.7,292.3,393,290.6,391.2,289.7z"/>
		<path id="path33" class="st3" d="M177,365.2c-6.1,0-11.3-4.3-11.3-10.4c0-6.1,5.2-11.3,11.3-11.3h132.7c2.6,8.7,6.9,15.6,13,21.7
			H177z"/>
		<path id="path35" class="st3" d="M35.6,135.3c0-6.1,5.2-11.3,11.3-11.3s10.4,5.2,10.4,11.3v38.2c0,6.1-4.3,10.4-10.4,10.4
			s-11.3-4.3-11.3-10.4V135.3z"/>
		<path id="path37" class="st3" d="M600.3,570.8v-0.9c3.5-2.6,4.3-6.9,4.3-10.4c0-4.3-1.7-8.7-4.3-11.3L504,451.9
			c-4.3-4.3-4.3-10.4,0-14.7l96.3-96.3l0,0c3.5-2.6,4.3-6.9,4.3-11.3c0-3.5-1.7-7.8-4.3-11.3l0,0c-3.5-2.6-7.8-4.3-11.3-4.3
			c-4.3,0-8.7,1.7-11.3,4.3l0,0l-96.3,96.3c-4.3,4.3-10.4,4.3-14.7,0l-95.4-96.3c-3.5-2.6-7.8-4.3-12.1-4.3c-3.5,0-7.8,1.7-11.3,4.3
			l0,0c-2.6,3.5-4.3,7.8-4.3,11.3c0,4.3,1.7,8.7,4.3,11.3l96.3,96.3c4.3,4.3,4.3,10.4,0,14.7l-96.3,96.3l0,0
			c-2.6,3.5-4.3,6.9-4.3,11.3c0,3.5,1.7,7.8,4.3,11.3l0,0c3.5,2.6,7.8,4.3,11.3,4.3c4.3,0,8.7-1.7,12.1-4.3l0,0l0,0l95.4-96.3
			c4.3-4.3,10.4-4.3,14.7,0l96.3,96.3l0,0c3.5,3.5,6.9,4.3,11.3,4.3C592.5,575.1,596.8,573.4,600.3,570.8z M624.6,559.5
			c0,8.7-2.6,17.3-9.5,24.3c0,0.9-0.9,0.9-0.9,0.9c-6.9,6.9-16.5,10.4-25.2,10.4c-9.5,0-18.2-3.5-25.2-9.5l-0.9-0.9l-88.5-89.3
			l-89.3,89.3l0,0c-6.9,6.9-16.5,10.4-26,10.4c-8.7,0-18.2-3.5-25.2-10.4l0,0c-6.9-6.9-10.4-16.5-10.4-25.2c0-9.5,3.5-18.2,9.5-25.2
			l0.9-0.9l89.3-88.5L334,355.7c-6.9-6.9-10.4-16.5-10.4-26c0-8.7,3.5-17.3,9.5-24.3c0.9-0.9,0.9-0.9,1.7-1.7
			c6.9-6.1,15.6-9.5,24.3-9.5c9.5,0,19.1,3.5,26,10.4l89.3,89.3l88.5-89.3l0,0l0,0c6.9-6.9,16.5-10.4,26-10.4
			c8.7,0,18.2,3.5,25.2,10.4l0,0c6.9,6.9,10.4,16.5,10.4,25.2c0,9.5-2.6,18.2-9.5,25.2l-0.9,0.9L525.7,445l88.5,88.5
			C621.1,540.4,624.6,550,624.6,559.5z"/>
	</g>
</g>
</svg>
