<?xml version="1.0" encoding="utf-8"?>
<!-- Generator: Adobe Illustrator 24.1.1, SVG Export Plug-In . SVG Version: 6.00 Build 0)  -->
<svg version="1.1"
	 id="svg41" sodipodi:docname="6c683dcd7614c2d1a84739acaa9b5cd7.svg" xmlns:inkscape="http://www.inkscape.org/namespaces/inkscape" xmlns:sodipodi="http://sodipodi.sourceforge.net/DTD/sodipodi-0.dtd" xmlns:svg="http://www.w3.org/2000/svg"
	 xmlns="http://www.w3.org/2000/svg" xmlns:xlink="http://www.w3.org/1999/xlink" x="0px" y="0px" viewBox="0 0 661 661"
	 style="enable-background:new 0 0 661 661;" xml:space="preserve">
<style type="text/css">
	.st0{fill:none;}
	.st1{fill-rule:evenodd;clip-rule:evenodd;fill:#DCC8FF;}
	.st2{fill:#DCC8FF;}
	.st3{fill:#4806C1;}
</style>
<sodipodi:namedview  bordercolor="#666666" borderopacity="1.0" id="namedview43" inkscape:pagecheckerboard="0" inkscape:pageopacity="0.0" inkscape:pageshadow="2" pagecolor="#ffffff">
	</sodipodi:namedview>
<g id="Capa_x0020_1" inkscape:groupmode="layer" inkscape:label="Capa 1">
	<rect id="rect7" class="st0" width="661" height="661"/>
	<g id="_2681737525824">
		<polygon id="polygon9" class="st1" points="261,443.8 287.1,443.8 351.5,508.1 384.1,508.1 432.6,459.6 560.3,331.9 585.5,306.7 
			617.2,312.3 624.6,335.6 614.4,354.3 396.2,573.4 357.1,586.4 336.6,566.8 254.5,488.5 245.2,460.6 		"/>
		<polygon id="polygon11" class="st2" points="434.5,40.1 411.1,40.1 411.1,104.4 434.5,104.4 		"/>
		<path id="path13" class="st1" d="M489.5,106.3h-27v289.9l27-27V106.3z M462.4,538.9v83.9h27V511.8L462.4,538.9z"/>
		<path id="path15" class="st3" d="M49.4,150.1c0,5.6-4.7,10.3-11.2,10.3c-5.6,0-11.2-4.7-11.2-10.3V37.3C27,31.7,32.6,27,38.2,27
			h400.9c6.5,0,11.2,4.7,11.2,10.3v65.3c0,6.5-4.7,11.2-11.2,11.2c-5.6,0-10.3-4.7-10.3-11.2V48.5H49.4V150.1z"/>
		<path id="path17" class="st3" d="M27,227.5c0-6.5,5.6-11.2,11.2-11.2c6.5,0,11.2,4.7,11.2,11.2v198.6v2.8V537v4.7v5.6h42.9v-15.8
			c9.3-5.6,16.8-13.1,21.4-22.4v48.5c0,6.5-4.7,11.2-10.3,11.2H38.2c-5.6,0-11.2-4.7-11.2-11.2v-15.8v-15.8V440v-14V227.5z"/>
		<path id="path19" class="st3" d="M92.3,434.5v-24.2V102.6c0-5.6,4.7-11.2,11.2-11.2h233.1c5.6,0,10.3,5.6,10.3,11.2
			c0,6.5-4.7,11.2-10.3,11.2H113.7v296.5v28.9v99.8H92.3V434.5z"/>
		<path id="path21" class="st3" d="M390.6,113.7c-6.5,0-11.2-4.7-11.2-11.2c0-5.6,4.7-11.2,11.2-11.2h102.6
			c6.5,0,11.2,5.6,11.2,11.2v251.7l-21.4,21.4v-262H390.6z M504.4,497.8v43.8c0,5.6-4.7,11.2-11.2,11.2c-5.6,0-10.3-5.6-10.3-11.2
			v-22.4L504.4,497.8z"/>
		<path id="path23" class="st3" d="M482.9,590.1c0-5.6,4.7-10.3,10.3-10.3c6.5,0,11.2,4.7,11.2,10.3v32.6c0,6.5-4.7,11.2-11.2,11.2
			H103.5c-6.5,0-11.2-4.7-11.2-11.2v-91.4c9.3-5.6,16.8-13.1,21.4-22.4v103.5h369.2L482.9,590.1z"/>
		<path id="path25" class="st3" d="M450.3,194.9c5.6,0,10.3,4.7,10.3,11.2c0,5.6-4.7,10.3-10.3,10.3H385l0,0c-2.8,0-5.6,0.9-7.5,3.7
			c-1.9,1.9-2.8,3.7-3.7,6.5c0,0.9,0,0.9,0,0.9c0.9,2.8,1.9,5.6,3.7,7.5c1.9,1.9,4.7,2.8,7.5,2.8h108.1c9.3,0,17.7-2.8,23.3-9.3
			c5.6-5.6,9.3-14,9.3-22.4l0,0l0,0c0-9.3-3.7-17.7-9.3-23.3c-3.7-3.7-7.5-6.5-12.1-7.5V206c0,5.6-4.7,10.3-11.2,10.3
			c-5.6,0-10.3-4.7-10.3-10.3v-43.8l0,0c0-5.6,4.7-11.2,10.3-11.2c14.9,0.9,28.9,6.5,38.2,15.8c10.3,10.3,15.8,23.3,15.8,39.2l0,0
			l0,0c0,14.9-5.6,28-15.8,38.2c-9.3,9.3-23.3,15.8-38.2,15.8H385c-9.3,0-16.8-3.7-23.3-10.3c-5.6-5.6-9.3-13.1-9.3-22.4l0,0
			c0-9.3,3.7-17.7,9.3-23.3c6.5-5.6,14-9.3,23.3-9.3l0,0L450.3,194.9z"/>
		<path id="path27" class="st3" d="M168.7,419.5c-6.5,0-11.2-4.7-11.2-10.3c0-6.5,4.7-11.2,11.2-11.2h260.1
			c5.6,0,10.3,4.7,10.3,11.2c0,5.6-4.7,10.3-10.3,10.3h-138c-0.9-0.9-2.8-0.9-4.7-1.9c-4.7-0.9-9.3-1.9-14.9-1.9
			c-6.5,0-13.1,0.9-19.6,3.7H168.7z"/>
		<path id="path29" class="st3" d="M255.4,234.9c5.6,0,10.3,5.6,10.3,11.2c0,5.6-4.7,11.2-10.3,11.2h-86.7
			c-6.5,0-11.2-5.6-11.2-11.2c0-5.6,4.7-11.2,11.2-11.2H255.4z"/>
		<path id="path31" class="st3" d="M168.7,311.4c-6.5,0-11.2-4.7-11.2-11.2c0-5.6,4.7-10.3,11.2-10.3h260.1
			c5.6,0,10.3,4.7,10.3,10.3c0,6.5-4.7,11.2-10.3,11.2L168.7,311.4z"/>
		<path id="path33" class="st3" d="M168.7,365.5c-6.5,0-11.2-4.7-11.2-11.2c0-5.6,4.7-10.3,11.2-10.3h194.9
			c5.6,0,10.3,4.7,10.3,10.3c0,6.5-4.7,11.2-10.3,11.2L168.7,365.5z"/>
		<path id="path35" class="st3" d="M27,135.2c0-5.6,5.6-11.2,11.2-11.2c6.5,0,11.2,5.6,11.2,11.2v38.2c0,5.6-4.7,10.3-11.2,10.3
			c-5.6,0-11.2-4.7-11.2-10.3V135.2z"/>
		<path id="path37" class="st3" d="M356.1,573.4l0.9,0.9c2.8,2.8,6.5,4.7,10.3,4.7c4.7,0,8.4-1.9,12.1-4.7l0,0L608.8,345
			c2.8-3.7,4.7-7.5,4.7-11.2c0-4.7-1.9-8.4-4.7-12.1l0,0c-3.7-2.8-7.5-4.7-12.1-4.7c-3.7,0-8.4,1.9-11.2,4.7l-192.1,193
			c-7.5,6.5-15.8,10.3-25.2,10.3s-18.6-3.7-26.1-10.3l0,0l0,0L283.4,455c-3.7-2.8-7.5-4.7-12.1-4.7l0,0c-3.7,0-7.5,1.9-11.2,4.7l0,0
			c-2.8,3.7-4.7,7.5-4.7,11.2c0,4.7,1.9,8.4,4.7,11.2L356.1,573.4z M367.3,598.5c-8.4,0-17.7-2.8-24.2-10.3h-0.9l-96-96
			c-7.5-7.5-10.3-16.8-10.3-26.1c0-8.4,2.8-17.7,9.3-24.2c0.9-0.9,0.9-0.9,0.9-0.9c7.5-7.5,16.8-10.3,25.2-10.3l0,0
			c9.3,0,18.6,2.8,26.1,10.3l58.7,58.7v0.9c3.7,2.8,7.5,3.7,12.1,3.7c3.7,0,7.5-0.9,11.2-4.7l192.1-192.1
			c6.5-6.5,15.8-10.3,25.2-10.3c9.3,0,18.6,3.7,26.1,10.3l0,0l0,0c6.5,7.5,10.3,16.8,10.3,26.1c0,8.4-3.7,17.7-10.3,25.2
			L393.4,588.3h-0.9C386,595.7,376.6,598.5,367.3,598.5L367.3,598.5z"/>
	</g>
</g>
</svg>
