<?xml version="1.0" encoding="utf-8"?>
<!-- Generator: Adobe Illustrator 24.1.1, SVG Export Plug-In . SVG Version: 6.00 Build 0)  -->
<svg version="1.1"
	 id="svg23" sodipodi:docname="3b996d95cea9d1e152a6dd10878bd786.svg" xmlns:inkscape="http://www.inkscape.org/namespaces/inkscape" xmlns:sodipodi="http://sodipodi.sourceforge.net/DTD/sodipodi-0.dtd" xmlns:svg="http://www.w3.org/2000/svg"
	 xmlns="http://www.w3.org/2000/svg" xmlns:xlink="http://www.w3.org/1999/xlink" x="0px" y="0px" viewBox="0 0 661 661"
	 style="enable-background:new 0 0 661 661;" xml:space="preserve">
<style type="text/css">
	.st0{fill:none;}
	.st1{fill-rule:evenodd;clip-rule:evenodd;fill:#DCC8FF;}
	.st2{fill-rule:evenodd;clip-rule:evenodd;fill:#FFFFFF;}
	.st3{fill-rule:evenodd;clip-rule:evenodd;fill:#4806C1;}
</style>
<sodipodi:namedview  bordercolor="#666666" borderopacity="1.0" id="namedview25" inkscape:pagecheckerboard="0" inkscape:pageopacity="0.0" inkscape:pageshadow="2" pagecolor="#ffffff">
	</sodipodi:namedview>
<g id="Capa_x0020_1" inkscape:groupmode="layer" inkscape:label="Capa 1">
	<rect id="rect7" class="st0" width="661" height="661"/>
	<g id="_2706961514448">
		<polygon id="polygon9" class="st1" points="582.8,589.8 597.9,616.6 592.1,629.5 573.4,631.8 505.7,574.6 534.9,545.4 		"/>
		<path id="path11" class="st1" d="M110.9,24.5h-10.5c-3.5-1.2-40.9,11.7-36.2,36.2c0,177.5,0,356.2,0,533.7
			c0,17.5,8.2,26.9,23.4,26.9H125V24.5H110.9z"/>
		<circle id="circle13" class="st2" cx="125" cy="266.3" r="17.5"/>
		<polygon id="polygon15" class="st1" points="294.3,105.1 300.1,80.6 324.7,63.1 353.9,57.2 378.4,71.2 393.6,93.4 398.2,112.1 
			391.2,134.3 379.5,156.5 339.8,195 296.6,128.5 		"/>
		<path id="path17" class="st3" d="M189.2,75.9c4.7,0,8.2-3.5,8.2-8.2s-3.5-9.3-8.2-9.3c-4.7,0-9.3,4.7-9.3,9.3
			S184.5,75.9,189.2,75.9z M155.3,33.9h-51.4h-5.8l0,0C80.6,35,71.2,42,71.2,60.7c0,176.3,0,352.7,0,529c0,16.3,9.3,26.9,26.9,26.9
			c108.6,0,218.4,0,328.2,0c4.7,0,8.2,3.5,8.2,8.2s-3.5,9.3-8.2,9.3H91.1c-10.5,0-19.9-5.8-26.9-12.8c-5.8-5.8-10.5-15.2-10.5-23.4
			c0-182.2,0-363.2,0-544.2c0-18.7,17.5-37.4,37.4-37.4h7h5.8h51.4h8.2h332.8c9.3,0,18.7,4.7,25.7,11.7s11.7,16.3,11.7,24.5v266.3
			c0,4.7-3.5,8.2-8.2,8.2c-5.8,0-9.3-3.5-9.3-8.2c0-86.4,0-171.7,0-258.1c0-17.5-9.3-26.9-26.9-26.9H163.5H160H155.3z M146,75.9
			c5.8,0,9.3-3.5,9.3-8.2s-3.5-9.3-9.3-9.3c-4.7,0-8.2,4.7-8.2,9.3S141.3,75.9,146,75.9z M103.9,75.9c4.7,0,9.3-3.5,9.3-8.2
			s-4.7-9.3-9.3-9.3c-4.7,0-8.2,4.7-8.2,9.3S99.3,75.9,103.9,75.9z M440.3,160h43.2c4.7,0,8.2-3.5,8.2-8.2c0-4.7-3.5-9.3-8.2-9.3
			h-43.2c-4.7,0-8.2,4.7-8.2,9.3C432.1,156.5,435.6,160,440.3,160z M294.3,146l40.9,58.4c2.3,3.5,5.8,7,9.3,8.2
			c2.3,1.2,4.7,0,5.8-1.2c2.3-1.2,4.7-4.7,7-7c2.3-3.5,4.7-7,7-10.5c7-9.3,15.2-19.9,22.2-30.4c3.5-4.7,7-10.5,10.5-16.3
			c2.3-3.5,4.7-9.3,7-12.8c0-3.5,1.2-5.8,1.2-8.2c1.2-2.3,1.2-3.5,1.2-5.8c1.2-1.2,3.5-2.3,5.8-2.3h79.4v-17.5h-79.4
			c-3.5,0-4.7-1.2-5.8-3.5s-1.2-5.8-2.3-8.2c-3.5-9.3-7-16.3-15.2-23.4c-15.2-15.2-37.4-21-58.4-15.2c-21,4.7-37.4,19.9-43.2,39.7
			c-1.2,4.7,0,10.5-7,10.5H103.9c-4.7,0-8.2,4.7-8.2,9.3s3.5,8.2,8.2,8.2h176.3c4.7,0,5.8,4.7,7,8.2
			C288.5,133.1,290.8,139,294.3,146z M302.5,110.9c0-4.7,1.2-14,3.5-18.7c7-15.2,22.2-25.7,38.5-26.9c7,0,14,1.2,21,4.7
			c5.8,3.5,11.7,8.2,16.3,14c10.5,15.2,9.3,32.7,2.3,49c-1.2,1.2-1.2,3.5-2.3,4.7c-1.2,2.3-2.3,3.5-4.7,5.8
			c-3.5,5.8-7,11.7-10.5,17.5c-4.7,4.7-8.2,10.5-12.8,16.3c-1.2,1.2-2.3,3.5-3.5,5.8c-1.2,0-2.3,2.3-3.5,2.3l-1.2,1.2l-25.7-35
			C311.8,139,302.5,127.3,302.5,110.9z M327,106.3c0,30.4,38.5,30.4,38.5,0c0-3.5-2.3-8.2-5.8-10.5c-4.7-4.7-10.5-5.8-16.3-5.8
			C336.3,89.9,327,99.3,327,106.3z M227.7,337.5h22.2c4.7,0,8.2-3.5,8.2-8.2s-3.5-8.2-8.2-8.2h-22.2c-4.7,0-8.2,3.5-8.2,8.2
			S223.1,337.5,227.7,337.5L227.7,337.5z M114.4,337.5h22.2c4.7,0,8.2-3.5,8.2-8.2s-3.5-8.2-8.2-8.2h-22.2c-4.7,0-8.2,3.5-8.2,8.2
			S109.8,337.5,114.4,337.5L114.4,337.5z M114.4,391.2h119.1c4.7,0,8.2-3.5,8.2-8.2s-3.5-9.3-8.2-9.3H114.4c-4.7,0-8.2,4.7-8.2,9.3
			S109.8,391.2,114.4,391.2L114.4,391.2z M316.5,428.6c0,29.2,3.5,44.4,21,66.6c15.2,18.7,40.9,32.7,65.4,32.7
			c29.2,0,43.2-3.5,66.6-21c7-5.8,11.7-10.5,16.3-17.5c12.8-21,18.7-44.4,15.2-68.9c-3.5-21-12.8-42-30.4-54.9
			c-2.3-2.3-4.7-3.5-7-5.8c-43.2-29.2-98.1-21-129.6,21C324.7,393.6,316.5,413.4,316.5,428.6z M408.7,511.5
			c-17.5,0-38.5-9.3-51.4-22.2c-3.5-3.5-7-5.8-9.3-10.5c-11.7-16.3-16.3-36.2-12.8-56.1c3.5-17.5,12.8-32.7,26.9-44.4
			c12.8-11.7,30.4-18.7,47.9-18.7c19.9,0,38.5,9.3,52.6,23.4c10.5,10.5,17.5,23.4,21,38.5c2.3,15.2,0,30.4-5.8,44.4
			C466,492.8,437.9,511.5,408.7,511.5z M95.8,265.1c0,14,7,28,22.2,31.5c11.7,2.3,25.7-2.3,32.7-12.8c1.2-3.5,2.3-8.2,7-8.2h50.2
			c3.5,0,4.7,2.3,5.8,4.7c2.3,2.3,3.5,4.7,4.7,7c5.8,8.2,15.2,9.3,25.7,9.3c5.8,0,11.7-2.3,16.3-5.8c2.3-2.3,5.8-4.7,5.8-8.2
			c1.2-2.3,1.2-3.5,2.3-4.7c2.3-2.3,9.3-2.3,11.7-2.3c10.5,0,22.2,0,32.7,0c3.5,0,4.7,2.3,5.8,4.7c2.3,2.3,3.5,4.7,4.7,7
			c5.8,8.2,16.3,9.3,25.7,9.3c8.2,0,17.5-5.8,22.2-12.8c2.3-3.5,2.3-8.2,8.2-8.2h49c3.5,0,4.7,2.3,7,4.7c1.2,2.3,2.3,4.7,3.5,7
			c5.8,8.2,16.3,9.3,25.7,9.3c7,0,14-2.3,18.7-8.2c5.8-7,8.2-15.2,8.2-23.4c0-28-40.9-38.5-54.9-14c-2.3,3.5-2.3,7-8.2,7h-49
			c-3.5,0-4.7-1.2-7-3.5c-1.2-2.3-2.3-4.7-3.5-7c-5.8-8.2-16.3-10.5-25.7-10.5c-21,0-22.2,21-30.4,21h-39.7c-4.7,0-4.7-2.3-7-7
			c-4.7-8.2-15.2-14-25.7-14c-9.3,0-19.9,4.7-24.5,14c-2.3,3.5-2.3,7-8.2,7h-50.2c-4.7,0-4.7-2.3-7-7c-1.2-2.3-2.3-4.7-5.8-5.8
			c-9.3-8.2-21-10.5-31.5-4.7C102.8,244.1,95.8,253.4,95.8,265.1z M113.3,267.4c0-16.3,24.5-16.3,24.5,0
			C137.8,282.6,113.3,282.6,113.3,267.4z M228.9,267.4c0-16.3,24.5-16.3,24.5,0C253.4,282.6,228.9,282.6,228.9,267.4z M334,267.4
			c0-16.3,24.5-16.3,24.5,0C358.5,282.6,334,282.6,334,267.4z M449.6,267.4c0-16.3,24.5-16.3,24.5,0
			C474.1,282.6,449.6,282.6,449.6,267.4L449.6,267.4z M544.2,446.1v-16.3c0-33.9-16.3-66.6-39.7-89.9
			c-23.4-23.4-54.9-39.7-87.6-39.7c-28,0-60.7,4.7-84.1,22.2c-3.5,2.3-7,5.8-8.2,9.3c0,2.3,0,5.8,2.3,7c4.7,5.8,11.7,3.5,16.3,0
			c7-4.7,14-8.2,21-11.7c26.9-10.5,54.9-11.7,82.9-2.3c9.3,3.5,19.9,8.2,29.2,15.2c16.3,11.7,31.5,29.2,39.7,47.9
			c9.3,22.2,12.8,50.2,7,73.6c-9.3,43.2-45.5,79.4-87.6,88.8c-29.2,5.8-59.6,1.2-85.3-12.8c-24.5-14-43.2-37.4-52.6-64.2
			c-8.2-25.7-8.2-50.2,1.2-75.9c1.2-3.5,2.3-7,3.5-9.3c1.2-3.5,2.3-5.8,3.5-8.2c3.5-5.8,7-12.8,0-16.3c-7-3.5-12.8,2.3-15.2,8.2
			c-3.5,5.8-5.8,10.5-8.2,16.3c-3.5,9.3-5.8,19.9-7,29.2c-1.2,4.7-1.2,8.2-1.2,12.8c0,4.7,0,10.5,0,16.3
			c4.7,45.5,29.2,86.4,70.1,108.6c39.7,22.2,87.6,22.2,128.5,0h1.2l1.2,1.2c1.2,1.2,2.3,2.3,3.5,3.5c2.3,2.3,4.7,5.8,7,8.2
			c8.2,7,15.2,14,22.2,22.2c12.8,11.7,25.7,24.5,37.4,37.4c12.8,11.7,15.2,17.5,33.9,17.5c7,0,15.2-3.5,19.9-9.3
			c5.8-7,8.2-16.3,8.2-24.5c0-9.3-8.2-19.9-14-25.7c-8.2-8.2-17.5-16.3-25.7-24.5l-47.9-46.7l1.2-1.2
			C532.5,495.2,543,466,544.2,446.1z M504.5,559.4l-15.2-14c7-5.8,14-12.8,19.9-17.5l14,12.8L504.5,559.4z M517.4,572.2l17.5-18.7
			l1.2,1.2c1.2,1.2,2.3,2.3,3.5,3.5c2.3,1.2,4.7,3.5,7,5.8c5.8,5.8,11.7,11.7,17.5,17.5c5.8,5.8,12.8,11.7,17.5,18.7
			c5.8,7,10.5,15.2,4.7,22.2c-8.2,7-15.2,2.3-23.4-3.5c-5.8-5.8-11.7-11.7-18.7-17.5c-5.8-5.8-11.7-11.7-17.5-18.7
			c-1.2-1.2-3.5-3.5-5.8-5.8c-1.2-1.2-2.3-2.3-2.3-3.5L517.4,572.2z"/>
		<path id="path19" class="st1" d="M409.9,512.7c42,0,75.9-35,75.9-77.1s-33.9-75.9-75.9-75.9c-43.2,0-77.1,33.9-77.1,75.9
			S366.7,512.7,409.9,512.7L409.9,512.7z M409.9,496.3c32.7,0,59.6-26.9,59.6-60.7c0-32.7-26.9-59.6-59.6-59.6
			c-33.9,0-60.7,26.9-60.7,59.6C349.2,469.5,376,496.3,409.9,496.3z"/>
	</g>
</g>
</svg>
