<?xml version="1.0" encoding="utf-8"?>
<!-- Generator: Adobe Illustrator 24.1.1, SVG Export Plug-In . SVG Version: 6.00 Build 0)  -->
<svg version="1.1" id="Capa_1" xmlns:xodm="http://www.corel.com/coreldraw/odm/2003"
	 xmlns="http://www.w3.org/2000/svg" xmlns:xlink="http://www.w3.org/1999/xlink" x="0px" y="0px" viewBox="0 0 500 500"
	 style="enable-background:new 0 0 500 500;" xml:space="preserve">
<style type="text/css">
	.st0{fill:#FFBE4D;}
	.st1{fill:none;}
	.st2{fill-rule:evenodd;clip-rule:evenodd;fill:#FFBE4D;}
	.st3{fill:#A36901;}
</style>
<g id="Capa_x0020_1">
	<polygon class="st0" points="322.3,80.6 340.7,80.6 340.7,32.1 322.3,32.1 	"/>
	<rect class="st1" width="500" height="500"/>
	<rect x="361.7" y="81.5" class="st2" width="20.1" height="391"/>
	<path class="st3" d="M48.5,114.5c0,4.6-3.7,8.2-8.2,8.2s-8.2-3.7-8.2-8.2V29.3c0-3.7,3.7-7.3,8.2-7.3h304c3.7,0,7.3,3.7,7.3,7.3
		v49.5c0,4.6-3.7,8.2-7.3,8.2c-4.6,0-8.2-3.7-8.2-8.2V37.5H48.5V114.5z"/>
	<path class="st3" d="M32.1,173.1c0-4.6,3.7-8.2,8.2-8.2s8.2,3.7,8.2,8.2v151.1v1.8v82.4v3.7v3.7h33v-11.9
		c6.4-4.6,12.8-10.1,16.5-17.4V424c0,4.6-3.7,8.2-8.2,8.2H40.3c-4.6,0-8.2-3.7-8.2-8.2v-11.9v-12.8v-65v-10.1L32.1,173.1L32.1,173.1
		z"/>
	<path class="st3" d="M81.5,330.6v-19.2V78.8c0-4.6,3.7-8.2,8.2-8.2h175.8c4.6,0,8.2,3.7,8.2,8.2c0,4.6-3.7,8.2-8.2,8.2H98v224.4v22
		v76H81.5V330.6L81.5,330.6z"/>
	<path class="st3" d="M306.8,87c-4.6,0-8.2-3.7-8.2-8.2c0-4.6,3.7-8.2,8.2-8.2h77.8c4.6,0,8.2,3.7,8.2,8.2v332.4
		c0,4.6-3.7,8.2-8.2,8.2s-8.2-3.7-8.2-8.2V87L306.8,87L306.8,87z"/>
	<path class="st3" d="M376.4,448.7c0-4.6,3.7-8.2,8.2-8.2c4.6,0,8.2,3.7,8.2,8.2v23.8c0,4.6-3.7,8.2-8.2,8.2H89.7
		c-4.6,0-8.2-3.7-8.2-8.2v-68.7c6.4-4.6,12.8-10.1,16.5-17.4v77.8h278.4V448.7L376.4,448.7z"/>
	<path class="st3" d="M351.6,148.4c4.6,0,8.2,3.7,8.2,8.2s-3.7,8.2-8.2,8.2h-48.5l0,0c-2.7,0-4.6,0.9-6.4,2.7
		c-0.9,1.8-1.8,3.7-1.8,5.5c0,0,0,0,0,0.9c0,1.8,0.9,3.7,1.8,5.5c1.8,0.9,3.7,1.8,6.4,1.8h81.5c7.3,0,12.8-2.7,17.4-7.3
		s7.3-10.1,7.3-17.4l0,0l0,0c0-6.4-2.7-12.8-7.3-17.4c-2.7-1.8-5.5-4.6-9.2-5.5v22.9c0,4.6-3.7,8.2-8.2,8.2s-8.2-3.7-8.2-8.2v-32.1
		l0,0c0-4.6,3.7-8.2,8.2-8.2c11.9,0,22,4.6,29.3,11.9c7.3,7.3,11.9,17.4,11.9,28.4l0,0l0,0c0,11.9-4.6,22-11.9,29.3
		c-7.3,7.3-17.4,11.9-29.3,11.9h-81.5c-7.3,0-12.8-2.7-17.4-7.3c-4.6-4.6-7.3-10.1-7.3-17.4l0,0c0-6.4,2.7-12.8,7.3-17.4
		c4.6-4.6,10.1-7.3,17.4-7.3l0,0L351.6,148.4L351.6,148.4z"/>
	<path class="st3" d="M138.3,318.7c-3.7,0-8.2-3.7-8.2-8.2c0-3.7,4.6-7.3,8.2-7.3h197.8c3.7,0,8.2,3.7,8.2,7.3
		c0,4.6-4.6,8.2-8.2,8.2H138.3z"/>
	<path class="st3" d="M204.2,179.5c4.6,0,8.2,3.7,8.2,8.2s-3.7,8.2-8.2,8.2h-65.9c-3.7,0-8.2-3.7-8.2-8.2s4.6-8.2,8.2-8.2
		L204.2,179.5L204.2,179.5z"/>
	<path class="st3" d="M138.3,237.2c-3.7,0-8.2-3.7-8.2-8.2c0-4.6,4.6-8.2,8.2-8.2h197.8c3.7,0,8.2,3.7,8.2,8.2
		c0,4.6-4.6,8.2-8.2,8.2H138.3z"/>
	<path class="st3" d="M138.3,278.4c-3.7,0-8.2-3.7-8.2-8.2c0-4.6,4.6-8.2,8.2-8.2h148.4c4.6,0,8.2,3.7,8.2,8.2
		c0,4.6-3.7,8.2-8.2,8.2H138.3L138.3,278.4z"/>
	<path class="st3" d="M32.1,103.5c0-4.6,3.7-8.2,8.2-8.2s8.2,3.7,8.2,8.2v29.3c0,3.7-3.7,7.3-8.2,7.3s-8.2-3.7-8.2-7.3L32.1,103.5
		L32.1,103.5z"/>
</g>
</svg>
