<?xml version="1.0" encoding="utf-8"?>
<!-- Generator: Adobe Illustrator 24.1.1, SVG Export Plug-In . SVG Version: 6.00 Build 0)  -->
<svg version="1.1"
	 id="svg25" sodipodi:docname="43274a61dff64fab6ff98cff313ad0ce.svg" xmlns:inkscape="http://www.inkscape.org/namespaces/inkscape" xmlns:sodipodi="http://sodipodi.sourceforge.net/DTD/sodipodi-0.dtd" xmlns:svg="http://www.w3.org/2000/svg"
	 xmlns="http://www.w3.org/2000/svg" xmlns:xlink="http://www.w3.org/1999/xlink" x="0px" y="0px" viewBox="0 0 661 661"
	 style="enable-background:new 0 0 661 661;" xml:space="preserve">
<style type="text/css">
	.st0{fill:none;}
	.st1{fill:#DCC8FF;}
	.st2{fill-rule:evenodd;clip-rule:evenodd;fill:#DCC8FF;}
	.st3{fill-rule:evenodd;clip-rule:evenodd;fill:#4806C1;}
</style>
<sodipodi:namedview  bordercolor="#666666" borderopacity="1.0" id="namedview27" inkscape:pagecheckerboard="0" inkscape:pageopacity="0.0" inkscape:pageshadow="2" pagecolor="#ffffff">
	</sodipodi:namedview>
<g id="Capa_x0020_1" inkscape:groupmode="layer" inkscape:label="Capa 1">
	<rect id="rect7" class="st0" width="661" height="661"/>
	<g id="_2848272083440">
		<path id="path9" class="st1" d="M138.5,177.9c-20.3-13.5-40.5-30.4-55.2-51.8C81.1,134,80,143,80,150.9
			c0,40.5,16.9,104.7,47.3,126.1c-19.1-1.1-36-6.8-51.8-14.6v1.1c0,56.3,39.4,103.6,91.2,113.7c-9,3.4-19.1,4.5-30.4,4.5
			c-6.8,0-14.6-1.1-21.4-2.3c14.6,46.2,57.4,80,107,81.1C182.4,492.1,134,511.2,80,511.2c-9,0-18-1.1-27-2.3
			c50.7,32.7,110.4,52.9,174.5,52.9h1.1c-12.4-3.4-24.8-6.8-36-11.3c9-1.1,18-2.3,27-4.5c51.8-12.4,94.6-41.7,125-82.2
			c283.8-112.6,177.9-346.8,47.3-215.1C336.7,227.5,235.3,252.2,138.5,177.9z"/>
		<path id="path11" class="st2" d="M542.8,207.2c20.3,113.7-57.4,243.2-141.9,296.2c-132.9,84.5-286,92.3-154.3-28.2
			c-9-16.9-18-38.3-23.6-64.2C344.6,507.9,518,341.2,542.8,207.2z"/>
		<ellipse id="ellipse13" class="st2" cx="441.4" cy="224.1" rx="116" ry="123.9"/>
		<path id="path15" class="st2" d="M501.1,146.4l39.4,73.2c16.9-21.4,36-34.9,48.4-95.7l-89,16.9L501.1,146.4z"/>
		<path id="path17" class="st3" d="M119.4,369.3c-33.8-22.5-55.2-63.1-55.2-105.9c0-5.6,4.5-12.4,11.3-12.4
			c5.6,0,11.3,4.5,11.3,11.3v1.1c0,49.5,33.8,93.5,82.2,103.6c5.6,1.1,10.1,6.8,9,12.4c-1.1,5.6-5.6,9-11.3,9c-1.1,0-1.1,0-2.3,0
			c-14.6-3.4-29.3-9-41.7-16.9c1.1,1.1,2.3,3.4,3.4,4.5c12.4,42.8,50.7,73.2,95.7,73.2c4.5,0,9,3.4,10.1,7.9c1.1,4.5,0,9-3.4,12.4
			c-12.4,10.1-25.9,19.1-40.5,25.9c-28.2,14.6-58.6,23.6-91.2,25.9c41.7,19.1,85.6,29.3,130.6,29.3c89,0,170-34.9,229.7-101.3
			c52.9-59.7,83.3-139.6,83.3-219.6c0-4.5,0-10.1,0-14.6c0-3.4,1.1-6.8,4.5-9c21.4-15.8,39.4-36,54.1-57.4
			c3.4-5.6,10.1-6.8,14.6-3.4c5.6,3.4,6.8,10.1,3.4,14.6c-14.6,23.6-32.7,43.9-54.1,59.7c0,3.4,0,6.8,0,10.1
			c0,85.6-32.7,171.2-89,234.2C409.9,536,323.2,572,227.5,572c-64.2,0-127.2-18-180.2-54.1c-4.5-2.3-6.8-7.9-4.5-12.4
			c1.1-5.6,6.8-7.9,11.3-7.9c9,1.1,18,2.3,25.9,2.3c34.9,0,67.6-7.9,98-23.6c4.5-3.4,10.1-5.6,14.6-9
			c-41.7-10.1-75.4-42.8-87.8-84.5c-2.3-5.6,1.1-11.3,6.8-13.5C114.9,368.2,117.1,368.2,119.4,369.3z M94.6,140.8
			c-4.5,12.4-6.8,25.9-6.8,38.3c0,36,16.9,68.7,45,87.8c5.6,4.5,6.8,11.3,3.4,15.8c-2.3,3.4-5.6,4.5-9,4.5c-2.3,0-4.5,0-6.8-1.1
			c-34.9-24.8-55.2-64.2-55.2-107c0-21.4,5.6-43.9,16.9-64.2c1.1-2.3,4.5-4.5,9-5.6c3.4,0,6.8,2.3,9,4.5
			c55.2,69.8,137.4,113.7,226.3,118.2c6.8,0,11.3,5.6,11.3,11.3c-1.1,5.6-5.6,11.3-12.4,10.1C236.5,248.9,153.1,208.3,94.6,140.8z
			 M523.6,123.9c22.5-4.5,43.9-13.5,63.1-24.8c4.5-3.4,9-2.3,12.4,0c4.5,3.4,5.6,7.9,4.5,12.4c-9,29.3-29.3,54.1-55.2,70.9
			c-5.6,3.4-12.4,1.1-15.8-4.5c-2.3-4.5-1.1-11.3,4.5-14.6c12.4-7.9,22.5-18,31.5-30.4c-14.6,6.8-30.4,11.3-46.2,14.6
			c-3.4,0-7.9-1.1-10.1-3.4c-19.1-21.4-46.2-33.8-75.4-33.8c-54.1,0-98,43.9-102.5,98c0,5.6-4.5,10.1-11.3,10.1l0,0
			c-6.8,0-11.3-5.6-10.1-11.3C317.6,141.9,371.6,89,436.9,89C469.6,89,501.1,101.3,523.6,123.9L523.6,123.9z"/>
	</g>
	<path id="path20" class="st3" d="M202.7,107c0-4.5,10.1-9,22.5-9c11.3,0,21.4,4.5,21.4,9c0,5.6-10.1,10.1-21.4,10.1
		C212.8,117.1,202.7,112.6,202.7,107z M256.7,96.8c-5.6,0-9-10.1-9-22.5c0-11.3,3.4-21.4,9-21.4c5.6,0,10.1,10.1,10.1,21.4
		C266.9,86.7,262.4,96.8,256.7,96.8z M256.7,162.2c-5.6,0-9-10.1-9-22.5c0-12.4,3.4-22.5,9-22.5c5.6,0,10.1,10.1,10.1,22.5
		C266.9,152,262.4,162.2,256.7,162.2z M266.9,107c0-4.5,10.1-9,22.5-9s21.4,4.5,21.4,9c0,5.6-9,10.1-21.4,10.1
		C277,117.1,266.9,112.6,266.9,107z"/>
	<path id="path22" class="st3" d="M476.3,536c0-5.6,10.1-9,22.5-9c12.4,0,21.4,3.4,21.4,9c0,5.6-9,9-21.4,9
		C486.5,545,476.3,541.6,476.3,536z M530.4,525.9c-4.5,0-9-10.1-9-22.5c0-12.4,4.5-21.4,9-21.4c5.6,0,10.1,9,10.1,21.4
		C540.5,515.7,536,525.9,530.4,525.9z M530.4,591.2c-4.5,0-9-10.1-9-22.5c0-12.4,4.5-22.5,9-22.5c5.6,0,10.1,10.1,10.1,22.5
		C540.5,581,536,591.2,530.4,591.2z M540.5,536c0-5.6,10.1-9,22.5-9c12.4,0,22.5,3.4,22.5,9s-10.1,9-22.5,9
		C550.6,545,540.5,541.6,540.5,536z"/>
</g>
</svg>
