<?xml version="1.0" encoding="utf-8"?>
<!-- Generator: Adobe Illustrator 24.1.1, SVG Export Plug-In . SVG Version: 6.00 Build 0)  -->
<svg version="1.1"
	 id="svg22" sodipodi:docname="5845657374ebb4eb82c85febcdea0ec6.svg" xmlns:inkscape="http://www.inkscape.org/namespaces/inkscape" xmlns:sodipodi="http://sodipodi.sourceforge.net/DTD/sodipodi-0.dtd" xmlns:svg="http://www.w3.org/2000/svg"
	 xmlns="http://www.w3.org/2000/svg" xmlns:xlink="http://www.w3.org/1999/xlink" x="0px" y="0px" viewBox="0 0 661 661"
	 style="enable-background:new 0 0 661 661;" xml:space="preserve">
<style type="text/css">
	.st0{fill:none;}
	.st1{fill-rule:evenodd;clip-rule:evenodd;fill:#DCC8FF;}
	.st2{fill-rule:evenodd;clip-rule:evenodd;fill:#4806C1;}
</style>
<sodipodi:namedview  bordercolor="#666666" borderopacity="1.0" id="namedview24" inkscape:pagecheckerboard="0" inkscape:pageopacity="0.0" inkscape:pageshadow="2" pagecolor="#ffffff">
	</sodipodi:namedview>
<g id="Capa_x0020_1" inkscape:groupmode="layer" inkscape:label="Capa 1">
	<rect id="rect7" class="st0" width="661" height="661"/>
	<path id="path9" class="st1" d="M336.4,520.9c37.5,0,72-8.9,102.6-24.7l-3.9-37.5c-28.6,17.8-62.2,27.6-98.7,27.6
		c-32.6,0-63.1-7.9-89.8-22.7l-3.9,36.5C270.3,514,302.9,520.9,336.4,520.9z M483.4,465.7c45.4-40.4,75-99.6,75-165.7
		c0-81.9-45.4-153.9-111.5-192.4l-3,23.7l3,17.8c46.4,34.5,76,88.8,76,150.9c0,47.4-16.8,89.8-46.4,123.3L483.4,465.7z M415.3,92.7
		c-24.7-9.9-51.3-14.8-78.9-14.8c-122.3,0-222,99.6-222,222c0,70,32.6,132.2,83.9,173.6l5.9-41.4c-33.5-34.5-54.3-80.9-54.3-132.2
		c0-52.3,20.7-99.6,55.2-133.2l6.9-42.4l38.5,9.9l0,0c25.7-13.8,55.2-20.7,85.8-20.7c22.7,0,43.4,3.9,63.1,10.9l4.9-27.6L415.3,92.7
		z"/>
	<polygon id="polygon11" class="st1" points="260.5,341.4 223,617.6 212.1,628.4 195.3,627.5 236.8,334.4 	"/>
	<polygon id="polygon13" class="st1" points="496.2,610.7 466.6,331.5 446.9,335.4 446.9,343.3 478.5,628.4 	"/>
	<polygon id="polygon15" class="st1" points="98.7,505.1 126.3,536.7 94.7,570.2 62.2,531.8 	"/>
	<polygon id="polygon17" class="st1" points="551.5,77.9 586,119.4 545.6,162.8 513,124.3 	"/>
	<path id="path19" class="st2" d="M243.7,536.7l7.9-65.1c5.9,2,13.8,5.9,19.7,7.9c36.5,13.8,78.9,15.8,116.4,4.9
		c19.7-4.9,29.6-10.9,39.5-13.8l4.9,48.3l2,16.8c-32.6,9.9-53.3,17.8-91.8,17.8c-17.8,1-69.1-3.9-86.8-12.8
		C249.6,538.7,248.6,538.7,243.7,536.7z M89.8,522.9l5.9-9.9l3,3.9c11.8,15.8,5.9,6.9,17.8,19.7c-3,3.9-6.9,6.9-10.9,10.9l-9.9,12.8
		l-6.9-10.9c-1-1-11.8-10.9-12.8-12.8c2-3,4.9-4.9,6.9-6.9C85.8,526.8,86.8,524.9,89.8,522.9z M91.8,484.4
		c-7.9,3.9-4.9,5.9-9.9,15.8C77,512,69.1,519.9,57.2,525.8c-5.9,2-11.8,7.9-7.9,15.8c5.9,10.9,18.7-1,36.5,40.4
		c2,5.9,8.9,10.9,15.8,5.9c9.9-4.9,4.9-26.6,33.5-40.4c5.9-3,10.9-7.9,7.9-15.8c-3-4.9-9.9-6.9-15.8-9.9
		C105.6,507.1,109.5,475.5,91.8,484.4z M449.9,343.3c3.9,0,6.9-1,10.9-1c1,32.6,11.8,110.5,14.8,149l12.8,110.5
		c1,17.8-12.8,24.7-24.7,15.8c-4.9-3.9-4.9-20.7-5.9-27.6l-10.9-104.6c-3.9-34.5-13.8-111.5-14.8-140.1
		C437,344.3,444.9,344.3,449.9,343.3z M429.2,98.7c3.9,3,4.9,5.9,5.9,11.8l22.7,214.1l-13.8,1l-14.8,1c-2-25.7-2-35.5-18.7-48.3
		c-9.9-7.9-8.9-8.9-7.9-25.7c1-10.9,1-20.7,2-31.6l3.9-96.7c1-4.9,1-10.9,1-15.8C411.4,98.7,420.3,93.7,429.2,98.7z M196.3,399.6
		c-4.9-2-4.9-3.9-8.9-9.9c-2-3.9-3.9-5.9-5.9-10.9c-22.7-41.4-26.6-92.7-10.9-138.1c7.9-23.7,21.7-42.4,21.7-43.4
		c1,16.8-7.9,36.5-3.9,55.2c4.9,27.6,22.7,26.6,21.7,37.5C210.1,309.8,198.3,370.9,196.3,399.6z M498.2,224l3,7.9
		c19.7,48.3,15.8,97.7-6.9,145l-6.9,12.8c-1,2-1,2-2,3l-1,1c-3-6.9-3-18.7-3.9-26.6l-20.7-195.3c5.9,2,26.6,27.6,33.5,42.4
		C495.3,219,496.2,220,498.2,224z M290.1,145l15.8,2L293,250.6c-2,9.9-4.9,14.8-10.9,19.7c-17.8,14.8-23.7-3-29.6,57.2
		c-5.9,1-21.7-2-28.6-3c2-14.8,8.9-36.5,1-49.3c-4.9-6.9-21.7-11.8-19.7-36.5c3.9-34.5,10.9-69.1,13.8-102.6l16.8,2
		c-2,18.7-12.8,77.9-10.9,91.8c7.9,5.9,15.8,6.9,17.8-5.9l10.9-83.9l17.8,3c-1,16.8-3.9,34.5-6.9,52.3c-1,11.8-9.9,44.4,5.9,43.4
		c8.9-1,7.9-10.9,9.9-18.7c1-8.9,2-17.8,3-25.7C284.1,186.5,289.1,149,290.1,145z M295,125.3c5.9-1,15.8-3,22.7-3
		c18.7-3,59.2-1,73,6.9c1,19.7-4.9,93.7-5.9,123.3c-2,49.3,21.7,26.6,25.7,60.2c1,11.8,2,24.7,3.9,37.5c3,31.6,9.9,69.1,9.9,99.6
		c-5.9,5.9-25.7,12.8-34.5,15.8c-29.6,8.9-60.2,9.9-90.8,3.9c-5.9-2-31.6-8.9-36.5-13.8l-7.9-3.9l19.7-151.9c1-5.9,1-4.9,5.9-7.9
		c20.7-9.9,28.6-21.7,31.6-47.4c2-15.8,3.9-31.6,5.9-46.4c6.9-49.3,17.8-69.1-20.7-70c-2,0-3.9,0-5.9-1
		C291,126.3,294,125.3,295,125.3z M520.9,121.3c17.8-13.8,19.7-18.7,30.6-36.5c10.9,18.7,14.8,21.7,30.6,35.5
		c-24.7,17.8-23.7,27.6-31.6,35.5C540.6,139.1,536.7,134.2,520.9,121.3z M184.5,547.5c11.8,2,11.8-8.9,12.8-18.7
		c7.9-60.2,15.8-128.3,24.7-186.5l27.6,3.9l-8.9,74c-3.9,24.7-6.9,49.3-9.9,73c-3,24.7-6.9,49.3-9.9,74c-2,12.8-3,24.7-4.9,37.5
		c-1,7.9-3,16.8-14.8,15.8c-3,0-9.9-3-11.8-4.9c-9.9-9.9,13.8-45.4-11.8-42.4c-6.9,2-5.9,9.9-6.9,18.7c-1,6.9-3,14.8-1,22.7
		c3.9,18.7,18.7,20.7,25.7,24.7h12.8c11.8-7.9,22.7-5.9,25.7-32.6c2-16.8,4.9-33.5,6.9-51.3c1,0,37.5,9.9,43.4,11.8
		c33.5,6.9,73,5.9,106.5,0c7.9-2,15.8-3.9,23.7-5.9c5.9-2,15.8-5.9,21.7-6.9c1,17.8,3.9,35.5,5.9,53.3c2,22.7,15.8,31.6,36.5,31.6
		c4.9-1,7.9-2,13.8-5.9c16.8-9.9,13.8-28.6,12.8-42.4c-9.9-89.8-13.8-61.2,10.9-84.8c7.9-6.9,16.8-13.8,24.7-23.7
		c3-3,4.9-4.9,7.9-8.9c63.1-76,81.9-180.5,45.4-275.3c-8.9-22.7-15.8-31.6-20.7-43.4c14.8-24.7,31.6-19.7,34.5-30.6
		c3-11.8-6.9-13.8-13.8-17.8c-34.5-19.7-25.7-52.3-44.4-50.3c-9.9,1-9.9,10.9-13.8,18.7c-3,5.9-6.9,14.8-12.8,18.7
		c-2-1-8.9-6.9-10.9-8.9c-11.8-9.9-18.7-17.8-29.6-16.8c-3.9,1-4.9,3-4.9,6.9c-1,8.9,5.9,9.9,12.8,14.8c6.9,5.9,11.8,10.9,17.8,15.8
		c-3.9,4.9-9.9,3-12.8,8.9c-8.9,16.8,14.8,15.8,29.6,34.5c16.8,20.7,12.8,38.5,27.6,36.5c7.9-1,6.9-5.9,11.8-10.9
		c3,10.9,10.9,21.7,13.8,34.5c9.9,20.7,15.8,59.2,16.8,85.8c0,57.2-17.8,108.5-49.3,152.9c-8.9,12.8-38.5,45.4-50.3,51.3l-2-19.7
		l-5.9-54.3c-1-8.9,18.7-22.7,33.5-62.2c14.8-40.4,13.8-92.7-1-133.2c-9.9-25.7-26.6-53.3-45.4-71c-10.9-9.9-16.8-11.8-17.8-20.7
		c-3.9-26.6-1-46.4-21.7-56.2c-17.8-7.9-41.4,1-43.4,28.6c-44.4-8.9-72-12.8-118.4,3c-16.8,5.9-13.8,9.9-33.5,6.9
		c-13.8-2-29.6-6.9-35.5,3.9c-4.9,7.9-3.9,29.6-6.9,38.5c-2,3-7.9,8.9-10.9,11.8c-10.9,13.8-17.8,24.7-25.7,42.4
		c-21.7,46.4-23.7,100.6-4.9,150c4.9,11.8,9.9,20.7,15.8,30.6c3,5.9,5.9,8.9,8.9,13.8c3,4.9,6.9,7.9,9.9,11.8c3,4.9,1,10.9,0,18.7
		l-7.9,57.2c-3,1-3,0-3,0l-14.8-11.8c-17.8-18.7-25.7-24.7-41.4-48.3C58.2,339.4,69.1,211.1,148,123.3l31.6-28.6
		c68.1-51.3,151.9-68.1,235.8-42.4c19.7,5.9,32.6,15.8,39.5,9.9c2-2,3-3.9,3-7.9c-1-1-1-1-1-2c-3-6.9-8.9-6.9-17.8-10.9
		c-8.9-3.9-17.8-5.9-26.6-8.9c-23.7-6.9-53.3-10.9-59.2-9.9c-10.9-1-22.7-1-34.5,0c-6.9,0-37.5,4.9-47.4,7.9
		C178.6,54.3,106.5,119.4,75,215.1c-28.6,87.8-5.9,186.5,48.3,254.5c10.9,12.8,40.4,44.4,56.2,52.3
		C178.6,532.7,173.6,545.6,184.5,547.5z"/>
</g>
</svg>
