<?xml version="1.0" encoding="utf-8"?>
<!-- Generator: Adobe Illustrator 24.1.1, SVG Export Plug-In . SVG Version: 6.00 Build 0)  -->
<svg version="1.1" id="Capa_1" xmlns:xodm="http://www.corel.com/coreldraw/odm/2003"
	 xmlns="http://www.w3.org/2000/svg" xmlns:xlink="http://www.w3.org/1999/xlink" x="0px" y="0px" viewBox="0 0 661 661"
	 style="enable-background:new 0 0 661 661;" xml:space="preserve">
<style type="text/css">
	.st0{fill:none;}
	.st1{fill-rule:evenodd;clip-rule:evenodd;fill:#DCC8FF;}
	.st2{fill-rule:evenodd;clip-rule:evenodd;fill:#4806C1;}
</style>
<g id="Capa_x0020_1">
	<rect class="st0" width="661" height="661"/>
	<g id="_2570864491520">
		<polygon class="st1" points="284,569.1 285.1,426.5 328.7,387.6 329.9,586.8 		"/>
		<polygon class="st1" points="507.8,523.1 545.5,510.2 546.7,464.2 547.9,368.8 506.6,381.8 		"/>
		<path class="st1" d="M238,254.5c-3.5-1.2-7.1-4.7-8.2-8.2c-2.4-4.7-1.2-8.2-1.2-14.1c1.2-3.5,1.2-8.2,2.4-13
			c0-2.4,1.2-7.1,1.2-10.6c-2.4-1.2-4.7-4.7-7.1-7.1c-2.4-2.4-4.7-5.9-7.1-8.2c-3.5-3.5-5.9-4.7-8.2-9.4c-2.4-4.7-1.2-10.6,1.2-15.3
			l0,0l15.3-16.5c1.2-1.2,5.9-5.9,5.9-5.9c1.2-1.2-1.2-14.1-1.2-15.3c-1.2-4.7-1.2-9.4-2.4-15.3c0-17.7,20-17.7,33-20
			c2.4,0,5.9-1.2,8.2-1.2c1.2,0,1.2,0,1.2-1.2l11.8-21.2c4.7-9.4,11.8-15.3,23.6-9.4l21.2,10.6c1.2,0,3.5,1.2,3.5,1.2
			c1.2,0,4.7-1.2,5.9-2.4c3.5-1.2,7.1-3.5,10.6-4.7c3.5-2.4,7.1-3.5,10.6-4.7c5.9-2.4,11.8-1.2,15.3,2.4
			c5.9,4.7,11.8,18.9,15.3,25.9c1.2,1.2,2.4,3.5,3.5,4.7l0,0l10.6,2.4c4.7,0,8.2,1.2,13,2.4c5.9,1.2,8.2,1.2,13,5.9
			c3.5,3.5,4.7,9.4,3.5,14.1c-1.2,9.4-2.4,18.9-3.5,27.1c1.2,1.2,2.4,2.4,4.7,4.7l9.4,10.6l0,0c1.2,1.2,3.5,3.5,4.7,4.7
			c4.7,5.9,7.1,11.8,3.5,18.9c-2.4,4.7-11.8,13-15.3,16.5l-7.1,8.2l0,0c0,1.2,0,1.2,0,1.2c1.2,9.4,2.4,18.9,3.5,28.3
			c0,7.1-3.5,11.8-9.4,15.3v1.2l0,0c-4.7,1.2-9.4,1.2-14.1,2.4l0,0l0,0c-4.7,1.2-9.4,2.4-14.1,2.4c0,1.2-3.5,1.2-3.5,1.2
			c-1.2,1.2-2.4,4.7-3.5,4.7l-11.8,22.4l0,0c-2.4,3.5-8.2,5.9-13,5.9c-7.1,0-23.6-9.4-30.6-13c0,0-1.2,0-2.4-1.2v1.2
			c-4.7,1.2-8.2,3.5-13,5.9l0,0c-4.7,1.2-9.4,4.7-14.1,5.9c-7.1,2.4-13,1.2-17.7-4.7c-2.4-2.4-5.9-9.4-7.1-13
			c-2.4-4.7-4.7-9.4-8.2-13c0-1.2,0-2.4,0-2.4c-2.4,0-4.7-1.2-5.9-1.2c-3.5,0-8.2-1.2-11.8-1.2l0,0V258
			C246.3,258,243.9,256.9,238,254.5L238,254.5z"/>
		<path class="st2" d="M341.7,575V407.7c8.2,4.7,23.6,30.6,31.8,33c13-1.2,67.2-22.4,81.3-28.3c24.7-9.4,58.9-24.7,82.5-30.6v120.2
			L341.7,575z M123.7,491.3v-75.4v-23.6v-10.6c2.4,0,4.7,1.2,8.2,1.2l147.3,57.7c14.1,1.2,17.7-8.2,23.6-15.3s10.6-13,16.5-18.9
			l1.2,49.5v21.2l-1.2,42.4l1.2,21.2V575l-183.8-69.5C124.9,501.9,123.7,504.3,123.7,491.3L123.7,491.3z M379.4,417.1
			c-4.7-5.9-11.8-14.1-15.3-18.9c-5.9-7.1-10.6-13-14.1-18.9l182.6-69.5l28.3,37.7L379.4,417.1L379.4,417.1z M100.2,348.8
			c4.7-8.2,7.1-10.6,13-17.7c5.9-7.1,11.8-13,15.3-20c11.8,2.4,169.7,61.3,183.8,68.3c-4.7,7.1-24.7,33-30.6,37.7L100.2,348.8
			L100.2,348.8z M456,279.2l46,20c-24.7,7.1-160.2,63.6-170.8,63.6c-13,0-143.7-56.6-172-63.6l41.2-16.5c8.2-3.5,11.8-8.2,8.2-21.2
			c-4.7-3.5-11.8-4.7-18.9-1.2L130.8,284l-30.6-36.5c22.4-10.6,68.3-24.7,82.5-31.8c13-5.9,10.6-18.9,0-21.2
			c-7.1-1.2-81.3,28.3-99,35.3c-35.3,13,7.1,31.8,28.3,68.3l-34.2,42.4c-17.7,20,1.2,25.9,24.7,31.8c0,37.7,0,76.6,0,115.5
			c0,27.1-4.7,27.1,18.9,35.3l190.9,73.1c9.4,3.5,15.3,4.7,18.9,4.7c8.2,0,173.2-64.8,207.4-76.6c24.7-9.4,21.2-7.1,20-36.5
			c0-38.9,1.2-77.8,0-115.5c51.8-13,28.3-27.1,14.1-46l-23.6-28.3c17.7-29.5,62.4-55.4,29.5-68.3c-4.7-1.2-9.4-3.5-14.1-4.7
			l-78.9-28.3c-15.3-5.9-20,13-5.9,18.9l81.3,31.8L531.4,284l-66-23.6C452.4,255.7,446.6,275.7,456,279.2z"/>
		<path class="st2" d="M238,254.5c-3.5-1.2-7.1-4.7-8.2-8.2c-2.4-4.7-1.2-8.2-1.2-14.1c1.2-3.5,1.2-8.2,2.4-13
			c0-2.4,1.2-7.1,1.2-10.6c-2.4-1.2-4.7-4.7-7.1-7.1c-2.4-2.4-4.7-5.9-7.1-8.2c-3.5-3.5-5.9-4.7-8.2-9.4c-2.4-4.7-1.2-10.6,1.2-15.3
			l0,0l15.3-16.5c1.2-1.2,5.9-5.9,5.9-5.9c1.2-1.2-1.2-14.1-1.2-15.3c-1.2-4.7-1.2-9.4-2.4-15.3c0-17.7,20-17.7,33-20
			c2.4,0,5.9-1.2,8.2-1.2c1.2,0,1.2,0,1.2-1.2l11.8-21.2c4.7-9.4,11.8-15.3,23.6-9.4l21.2,10.6c1.2,0,3.5,1.2,3.5,1.2
			c1.2,0,4.7-1.2,5.9-2.4c3.5-1.2,7.1-3.5,10.6-4.7c3.5-2.4,7.1-3.5,10.6-4.7c5.9-2.4,11.8-1.2,15.3,2.4
			c5.9,4.7,11.8,18.9,15.3,25.9c1.2,1.2,2.4,3.5,3.5,4.7l0,0l10.6,2.4c4.7,0,8.2,1.2,13,2.4c5.9,1.2,8.2,1.2,13,5.9
			c3.5,3.5,4.7,9.4,3.5,14.1c-1.2,9.4-2.4,18.9-3.5,27.1c1.2,1.2,2.4,2.4,4.7,4.7l9.4,10.6l0,0c1.2,1.2,3.5,3.5,4.7,4.7
			c4.7,5.9,7.1,11.8,3.5,18.9c-2.4,4.7-11.8,13-15.3,16.5l-7.1,8.2l0,0c0,1.2,0,1.2,0,1.2c1.2,9.4,2.4,18.9,3.5,28.3
			c0,7.1-3.5,11.8-9.4,15.3v1.2l0,0c-4.7,1.2-9.4,1.2-14.1,2.4l0,0l0,0c-4.7,1.2-9.4,2.4-14.1,2.4c0,1.2-3.5,1.2-3.5,1.2
			c-1.2,1.2-2.4,4.7-3.5,4.7l-11.8,22.4l0,0c-2.4,3.5-8.2,5.9-13,5.9c-7.1,0-23.6-9.4-30.6-13c0,0-1.2,0-2.4-1.2v1.2
			c-4.7,1.2-8.2,3.5-13,5.9l0,0c-4.7,1.2-9.4,4.7-14.1,5.9c-7.1,2.4-13,1.2-17.7-4.7c-2.4-2.4-5.9-9.4-7.1-13
			c-2.4-4.7-4.7-9.4-8.2-13c0-1.2,0-2.4,0-2.4c-2.4,0-4.7-1.2-5.9-1.2c-3.5,0-8.2-1.2-11.8-1.2l0,0V258
			C246.3,258,243.9,256.9,238,254.5L238,254.5z M314.6,189.7c-3.5-2.4-8.2-8.2-11.8-11.8c-4.7-3.5-9.4-8.2-16.5-4.7
			c-4.7,3.5-8.2,10.6-2.4,16.5l23.6,23.6c5.9,5.9,13,2.4,16.5-1.2l48.3-48.3c2.4-3.5,9.4-8.2,5.9-16.5c-1.2-4.7-8.2-9.4-15.3-5.9
			C359.4,143.7,321.7,182.6,314.6,189.7L314.6,189.7z M362.9,81.3c-4.7,1.2-10.6,4.7-14.1,7.1c-3.5,1.2-13,5.9-17.7,5.9
			c-5.9,0-22.4-9.4-31.8-13c0,1.2-1.2,2.4-2.4,4.7l-9.4,17.7c-1.2,2.4-2.4,3.5-3.5,4.7c-5.9,4.7-11.8,4.7-18.9,5.9
			c-3.5,1.2-13,2.4-17.7,3.5c1.2,5.9,2.4,11.8,2.4,17.7c2.4,16.5,3.5,17.7-9.4,29.5c-1.2,1.2-2.4,2.4-2.4,3.5
			c-2.4,1.2-3.5,3.5-5.9,5.9c-1.2,1.2-2.4,2.4-3.5,3.5c0,0,0,1.2,1.2,1.2c0,1.2,1.2,1.2,2.4,2.4l0,0l16.5,18.9l0,0
			c3.5,5.9,1.2,14.1,1.2,20c-1.2,5.9-2.4,11.8-3.5,17.7c5.9,1.2,11.8,2.4,17.7,3.5c4.7,1.2,13,1.2,16.5,4.7
			c4.7,3.5,8.2,11.8,10.6,16.5c2.4,4.7,5.9,9.4,7.1,13c4.7-1.2,10.6-4.7,13-5.9c4.7-2.4,14.1-7.1,18.9-7.1c8.2,0,22.4,9.4,31.8,14.1
			c2.4-4.7,4.7-9.4,7.1-14.1c2.4-3.5,5.9-10.6,8.2-13c4.7-5.9,13-5.9,18.9-7.1c5.9-1.2,11.8-2.4,16.5-3.5c0-4.7-1.2-10.6-1.2-16.5
			c-1.2-7.1-3.5-15.3,1.2-21.2l0,0l21.2-21.2c-2.4-2.4-3.5-3.5-4.7-4.7l-10.6-11.8l0,0c-1.2-2.4-3.5-3.5-5.9-5.9
			c-5.9-9.4,1.2-27.1,2.4-38.9c-10.6-2.4-29.5-3.5-35.3-9.4C377,107.2,366.4,88.4,362.9,81.3L362.9,81.3z"/>
	</g>
</g>
</svg>
