<?xml version="1.0" encoding="utf-8"?>
<!-- Generator: Adobe Illustrator 24.1.1, SVG Export Plug-In . SVG Version: 6.00 Build 0)  -->
<svg version="1.1"
	 id="svg22" sodipodi:docname="d695e7efd4408db75e0eda20cc01db09.svg" xmlns:inkscape="http://www.inkscape.org/namespaces/inkscape" xmlns:sodipodi="http://sodipodi.sourceforge.net/DTD/sodipodi-0.dtd" xmlns:svg="http://www.w3.org/2000/svg"
	 xmlns="http://www.w3.org/2000/svg" xmlns:xlink="http://www.w3.org/1999/xlink" x="0px" y="0px" viewBox="0 0 661 661"
	 style="enable-background:new 0 0 661 661;" xml:space="preserve">
<style type="text/css">
	.st0{fill:none;}
	.st1{fill-rule:evenodd;clip-rule:evenodd;fill:#DCC8FF;}
	.st2{fill-rule:evenodd;clip-rule:evenodd;fill:#4806C1;}
</style>
<sodipodi:namedview  bordercolor="#666666" borderopacity="1.0" id="namedview24" inkscape:pagecheckerboard="0" inkscape:pageopacity="0.0" inkscape:pageshadow="2" pagecolor="#ffffff">
	</sodipodi:namedview>
<g id="Capa_x0020_1" inkscape:groupmode="layer" inkscape:label="Capa 1">
	<rect id="rect7" class="st0" width="661" height="661"/>
	<polygon id="polygon9" class="st1" points="416.6,147.7 416.6,97.8 391.1,97.8 391.1,150.7 	"/>
	<path id="path11" class="st1" d="M535.7,544.9c-17.3-33.6-21.4-106.9-14.3-174.2c18.3-172.1-59.1-206.8-163-181.3
		c-3.1,0-5.1,1-7.1,1l1-12.2l45.8-4.1c78.4-11.2,132.4,14.3,143.6,91.7v205.7l17.3,72.3L535.7,544.9z"/>
	<polygon id="polygon13" class="st1" points="587.7,551 587.7,593.8 21.4,591.7 29.5,550 	"/>
	<path id="path15" class="st1" d="M112,290.3c15.3-13.2,12.2-27.5,1-43.8l29.5,20.4l-19.4,26.5L112,290.3z"/>
	<path id="path17" class="st1" d="M454.2,336.1c54-38.7,40.7-69.3,0-100.8l36.7,12.2l12.2,31.6l-2,22.4l-11.2,19.4l-17.3,13.2
		L454.2,336.1z"/>
	<path id="path19" class="st2" d="M613.1,276c4.1,0,9.2,0,13.2,0c3.1,0,6.1,0,9.2,0c5.1,1,5.1,3.1,6.1,8.1c1,6.1,1,13.2,0,19.4
		c0,3.1,1,8.1,0,11.2c-2,3.1-7.1,4.1-10.2,4.1c-4.1,0-7.1,0-10.2,0c-3.1,0-6.1,0-8.1,0c-1,20.4,0,40.7,0,61.1
		c0,10.2,0,20.4-6.1,27.5c-3.1,3.1-7.1,5.1-11.2,7.1c-4.1,1-9.2,1-14.3,0c-9.2-3.1-14.3-9.2-16.3-19.4c-1-4.1-1-9.2-1-13.2
		c0-5.1,0-10.2,0-15.3c0-20.4,0-40.7,0-61.1H552c0,18.3-1,36.7-2,54c-1,23.4-1,45.8-1,68.2c0,30.6,2,84.5,20.4,111
		c7.1,0,15.3-2,22.4,4.1c5.1,6.1,4.1,15.3,4.1,22.4c0,7.1,0,14.3,0,21.4c0,3.1,0,8.1-1,11.2c-1,3.1-3.1,4.1-6.1,4.1
		c-3.1,1-7.1,1-11.2,1H38.7c-8.1,0-19.4,2-19.4-9.2c-1-9.2-2-42.8,2-49.9c5.1-7.1,15.3-5.1,23.4-5.1h218c3.1,0,6.1,0,9.2-2
		c1-2,3.1-3.1,5.1-5.1c2-2,5.1-4.1,8.1-7.1l13.2-12.2c2-2,4.1-4.1,6.1-6.1c2-3.1,5.1-5.1,7.1-7.1c3.1-2,6.1-5.1,8.1-8.1
		c3.1-4.1,6.1-8.1,9.2-12.2c6.1-6.1,11.2-14.3,15.3-21.4c14.3-25.5,22.4-55,10.2-83.5c-11.2-23.4-33.6-38.7-57-47.9
		c-26.5-10.2-57-14.3-84.5-12.2c-23.4,2-50.9,10.2-68.2,27.5c-9.2,9.2-17.3,20.4-21.4,33.6c-2,7.1-3.1,11.2-11.2,11.2
		c-8.1,1-16.3,0-24.4,0v96.8c0,7.1,4.1,27.5-8.1,28.5c-12.2,0-8.1-21.4-8.1-28.5V386c-3.1,0-6.1,0-10.2,0c-2,0-5.1,0-7.1-1
		c-2-1-3.1-4.1-3.1-6.1c-1-4.1-1-9.2-1-13.2V206.8c0-4.1,0-9.2,0-14.3c0-3.1,0-6.1,0-9.2c0-4.1,1-9.2,4.1-12.2c4.1-2,10.2-2,14.3-2
		s8.1,0,12.2,1c5.1,0,11.2,0,16.3,0c7.1,0,12.2-2,17.3,5.1c17.3,22.4,39.7,27.5,67.2,28.5c11.2,0,21.4,0,32.6-1
		c12.2-2,23.4-4.1,35.6-6.1c22.4-4.1,44.8-9.2,68.2-14.3c21.4-4.1,42.8-8.1,64.2-12.2v-12.2c-5.1,0-9.2,0-14.3,0c-3.1,0-5.1,0-8.1,0
		c-2,0-5.1,0-7.1,0c-3.1-1-7.1-5.1-6.1-9.2c0-6.1,7.1-7.1,12.2-8.1v-36.7c-4.1,0-10.2,0-12.2-6.1c-1-5.1,2-10.2,7.1-10.2
		c4.1-1,10.2-1,15.3-1c4.1,0,9.2,0,13.2,0c0-3.1,0-6.1,0-8.1c0-4.1,0-7.1,0-10.2c0-5.1,3.1-11.2,9.2-10.2c8.1,0,8.1,8.1,8.1,14.3
		c0,4.1-1,10.2,0,14.3c4.1,0,9.2,0,13.2,0c3.1,0,6.1,0,9.2,0c2,0,4.1,0,6.1,1c4.1,0,7.1,4.1,7.1,8.1c0,6.1-8.1,8.1-13.2,8.1v36.7
		c5.1,0,10.2,0,12.2,5.1c2,5.1,0,10.2-6.1,12.2c-4.1,0-10.2,0-15.3,0c-4.1,0-9.2,0-13.2,0v10.2c10.2,0,20.4-1,30.6-1
		c11.2,0,22.4,0,33.6,2c27.5,4.1,50.9,15.3,66.2,38.7c9.2,15.3,15.3,30.6,17.3,46.9c1,7.1,2,13.2,2,19.4c1,5.1,1,10.2,2,15.3h13.2
		c0-2,0-5.1,0-7.1c1-3.1,1-7.1,1-11.2c0-9.2-1-19.4-1-28.5c0-9.2,0-18.3,0-27.5c0-4.1,0-7.1,0-11.2c0-2,0-5.1,1-7.1
		c5.1-18.3,29.5-23.4,41.8-8.1c7.1,8.1,6.1,17.3,6.1,26.5C613.1,235.3,612.1,255.6,613.1,276z M375.8,103.9v36.7h3.1h22.4h4.1v-36.7
		H375.8z M106.9,369.7c2-5.1,4.1-10.2,6.1-14.3c2-5.1,5.1-9.2,8.1-13.2c3.1-4.1,6.1-8.1,9.2-11.2c4.1-4.1,8.1-7.1,12.2-10.2
		c23.4-16.3,53-23.4,81.5-24.4c28.5-1,59.1,4.1,85.6,16.3c24.4,11.2,46.9,28.5,59.1,53c13.2,27.5,11.2,57-1,83.5
		c-4.1,10.2-10.2,19.4-16.3,28.5c-5.1,7.1-11.2,15.3-17.3,22.4c-1,2-3.1,4.1-5.1,6.1c-2,1-3.1,3.1-5.1,5.1
		c-3.1,4.1-6.1,7.1-10.2,10.2l-18.3,17.3H550c-1-3.1-2-5.1-3.1-8.1c-1-2-2-5.1-3.1-7.1c-3.1-8.1-5.1-17.3-7.1-25.5
		c-3.1-17.3-4.1-33.6-4.1-50.9c-2-35.6,1-72.3,2-108c1-17.3,1-34.6,0-51.9c-1-16.3-3.1-32.6-9.2-48.9c-3.1-11.2-10.2-25.5-19.4-33.6
		c-18.3-15.3-42.8-20.4-66.2-21.4c-14.3-1-27.5,0-41.8,2c-15.3,1-29.5,4.1-44.8,7.1c-30.6,5.1-61.1,13.2-91.7,19.4
		c-14.3,3.1-28.5,5.1-43.8,7.1c-12.2,1-25.5,2-38.7,2c-15.3-1-32.6-3.1-46.9-10.2c-6.1-2-12.2-6.1-17.3-10.2
		c-3.1-3.1-5.1-5.1-8.1-8.1c-1-2-3.1-4.1-5.1-6.1H67.2v183.3H106.9z M445.1,226.1c16.3-2,32.6,2,44.8,13.2
		c12.2,10.2,20.4,24.4,22.4,39.7c2,16.3-3.1,32.6-13.2,45.8c-9.2,12.2-23.4,20.4-38.7,22.4c-17.3,2-33.6-2-46.9-13.2
		c-12.2-10.2-20.4-24.4-22.4-39.7c-2-17.3,3.1-33.6,14.3-46.9C416.6,234.3,427.8,228.1,445.1,226.1z M429.8,500.1
		c0-14.3,0-28.5,0-42.8s0-28.5,0-42.8c0-8.1,2-16.3,6.1-22.4c4.1-4.1,9.2-7.1,15.3-7.1c11.2,1,21.4,9.2,22.4,20.4c0,2,0,4.1,0,6.1
		c0,3.1,0,6.1,0,9.2c0,9.2,0,17.3,0,25.5c0,14.3,0,29.5,0,44.8c0,12.2-2,25.5-17.3,28.5C444.1,522.5,430.8,512.3,429.8,500.1z
		 M111,238.3c9.2-2,18.3,0,25.5,5.1c6.1,5.1,11.2,12.2,13.2,20.4c2,9.2,1,18.3-5.1,26.5c-5.1,6.1-12.2,11.2-20.4,12.2
		c-8.1,2-16.3,1-23.4-3.1c-8.1-5.1-13.2-12.2-15.3-21.4c-2-9.2,0-18.3,5.1-26.5C95.7,244.4,102.9,240.4,111,238.3z M444.1,243.4
		c-11.2,2-21.4,8.1-27.5,17.3c-8.1,9.2-10.2,21.4-8.1,33.6c2,11.2,8.1,21.4,17.3,28.5c10.2,7.1,22.4,9.2,34.6,7.1
		c10.2-2,20.4-8.1,26.5-17.3c8.1-9.2,10.2-21.4,8.1-33.6c-2-11.2-8.1-21.4-17.3-28.5C468.5,243.4,456.3,240.4,444.1,243.4z
		 M449.2,251.6c22.4-10.2,50.9,33.6,34.6,42.8c-4.1,2-8.1,2-10.2-2c-2-2-2-6.1-3.1-9.2c-1-6.1-4.1-10.2-9.2-13.2c-2-1-4.1-2-7.1-2
		c-1,0-3.1-1-4.1-1c-4.1-1-6.1-4.1-7.1-7.1C443,255.6,445.1,252.6,449.2,251.6z M456.3,406.4c0-2-2-4.1-5.1-4.1
		c-4.1,0-4.1,6.1-4.1,8.1c0,15.3,0,30.6,0,45.8c0,10.2,0,19.4,0,28.5c0,3.1,0,7.1,0,10.2c0,1,0,3.1,0,4.1c1,3.1,3.1,4.1,6.1,3.1
		c2,0,2-1,3.1-2c0-2,0-5.1,0-7.1V406.4z M115.1,254.6c-9.2,2-14.3,9.2-13.2,18.3c2,10.2,9.2,15.3,19.4,13.2
		c9.2-1,13.2-9.2,12.2-18.3C131.4,258.7,124.3,252.6,115.1,254.6z M613.1,292.3v9.2h12.2v-9.2H613.1z M581.6,391.1
		c0,7.1,8.1,10.2,12.2,5.1c4.1-4.1,2-18.3,2-24.4c0-29.5,0-59.1,1-88.6c0-18.3,0-35.6,0-53c-1-6.1-1-12.2-1-18.3c0-1,0-3.1,0-5.1
		c0-1,0-2,0-3.1c-1-7.1-8.1-11.2-13.2-5.1c-3.1,5.1-2,19.4-2,24.4c0,19.4,0,37.7,0,56c0,20.4,0,39.7,0,59.1c0,11.2,0,22.4,0,33.6
		c0,4.1,0,8.1,0,12.2C580.5,386,580.5,389.1,581.6,391.1L581.6,391.1z M35.6,555.1v30.6h542.9c0-1,0-3.1,0-4.1c1-4.1,1-7.1,1-10.2
		c0-5.1-1-11.2-1-16.3H35.6z"/>
</g>
</svg>
