<?xml version="1.0" encoding="utf-8"?>
<!-- Generator: Adobe Illustrator 24.1.1, SVG Export Plug-In . SVG Version: 6.00 Build 0)  -->
<svg version="1.1"
	 id="svg24" sodipodi:docname="99b148866ff192dd4b9a7e5d3c45dd86.svg" xmlns:inkscape="http://www.inkscape.org/namespaces/inkscape" xmlns:sodipodi="http://sodipodi.sourceforge.net/DTD/sodipodi-0.dtd" xmlns:svg="http://www.w3.org/2000/svg"
	 xmlns="http://www.w3.org/2000/svg" xmlns:xlink="http://www.w3.org/1999/xlink" x="0px" y="0px" viewBox="0 0 661 661"
	 style="enable-background:new 0 0 661 661;" xml:space="preserve">
<style type="text/css">
	.st0{fill:none;}
	.st1{fill-rule:evenodd;clip-rule:evenodd;fill:#DCC8FF;}
	.st2{fill-rule:evenodd;clip-rule:evenodd;fill:#4806C1;}
</style>
<sodipodi:namedview  bordercolor="#666666" borderopacity="1.0" id="namedview26" inkscape:pagecheckerboard="0" inkscape:pageopacity="0.0" inkscape:pageshadow="2" pagecolor="#ffffff">
	</sodipodi:namedview>
<g id="Capa_x0020_1" inkscape:groupmode="layer" inkscape:label="Capa 1">
	<rect id="rect7" class="st0" width="661" height="661"/>
	<polygon id="polygon9" class="st1" points="127.4,534.7 127.4,352.6 157.9,344.2 157.9,354.7 157.9,529.4 175.8,542.1 175.8,617.8 
		91.6,616.8 96.8,541 	"/>
	<polygon id="polygon11" class="st1" points="331.6,533.6 331.6,613.6 382.1,613.6 382.1,533.6 	"/>
	<polygon id="polygon13" class="st1" points="426.3,447.3 426.3,533.6 402.1,530.5 382.1,527.3 382.1,447.3 	"/>
	<polygon id="polygon15" class="st1" points="333.7,365.2 341,444.2 392.6,445.2 393.7,365.2 	"/>
	<polygon id="polygon17" class="st1" points="476.8,244.2 480,327.3 431.5,327.3 431.5,325.2 431.5,244.2 	"/>
	<path id="path19" class="st1" d="M624.2,163.1c-7.4-20-54.7-40-46.3-58.9l-331.6,3.2c-38.9-33.7-76.8-38.9-111.6,1.1l-89.5,1.1
		l-9.5,14.7l3.2,24.2l23.2,13.7h75.8c32.6,24.2,69.5,22.1,108.4,0L624.2,163.1z M188.4,151.6c10.5,0,18.9-8.4,18.9-17.9
		c0-10.5-8.4-18.9-18.9-18.9c-10.5,0-18.9,8.4-18.9,18.9C169.5,143.1,177.9,151.6,188.4,151.6L188.4,151.6z"/>
	<path id="path21" class="st2" d="M598.9,620c0-4.2,1.1-8.4,5.3-9.5c3.2-1.1,6.3-1.1,9.5-1.1c6.3,0,16.8-2.1,17.9,7.4
		c1.1,4.2,0,7.4-4.2,8.4c-3.2,1.1-7.4,1.1-10.5,1.1C610.5,626.3,601,628.4,598.9,620z M248.4,420c5.3-1.1,8.4,1.1,9.5,6.3
		c1.1,3.2,1.1,7.4,1.1,11.6c0,5.3,2.1,20-5.3,23.2c-5.3,2.1-9.5,0-10.5-5.3c-1.1-4.2-1.1-8.4-1.1-12.6c0-3.2,0-5.3,0-8.4
		c0-2.1,0-4.2,0-6.3C242.1,424.2,244.2,422.1,248.4,420L248.4,420z M576.8,621c-3.2,7.4-16.8,5.3-23.2,5.3c-3.2,0-8.4,1.1-12.6-1.1
		c-4.2-2.1-5.3-7.4-3.2-11.6c3.2-6.3,16.8-4.2,23.2-4.2c3.2,0,9.5,0,12.6,1.1C577.8,612.6,578.9,617.8,576.8,621z M117.9,529.4
		c0,0,0-1.1,0-2.1c1.1-2.1,1.1-4.2,1.1-6.3c0-5.3,0-10.5,0-15.8c0-9.5-1.1-18.9-1.1-29.5V349.4c0-6.3,2.1-11.6,9.5-11.6
		c3.2-1.1,7.4,0,10.5,0c4.2,0,7.4,0,11.6,0V182.1c-3.2-2.1-5.3-5.3-8.4-8.4l-1.1-1.1c-1.1-1.1-3.2-1.1-4.2-1.1
		c-13.7,1.1-27.4,1.1-41,1.1c-7.4,0-14.7,0-23.2-1.1c-2.1,0-5.3,0-8.4,0c-1.1,0-3.2,0-5.3-1.1c-15.8-3.2-26.3-14.7-28.4-30.5
		c-2.1-13.7,2.1-29.5,13.7-36.8c3.2-2.1,6.3-5.3,10.5-6.3c3.2-1.1,6.3-1.1,9.5-2.1c2.1,0,10.5-6.3,12.6-7.4
		c4.2-3.2,8.4-6.3,13.7-8.4l63.2-43.2c5.3-3.2,27.4-1.1,34.7-1.1c6.3,0,12.6,0,17.9-1.1c6.3,0,12.6,0,17.9,1.1
		c10.5,2.1,20,4.2,30.5,5.3l314.7,53.7c7.4,1.1,8.4,1.1,12.6,6.3c5.3,7.4,11.6,13.7,16.8,20c5.3,6.3,10.5,12.6,15.8,18.9l15.8,18.9
		c4.2,5.3,3.2,12.6-4.2,13.7l0,0h-120v22.1l49.5,41c4.2,3.2,8.4,3.2,12.6,6.3c7.4,7.4,5.3,24.2,5.3,33.7c0,12.6,0,24.2,0,36.8
		c0,5.3,0,10.5-2.1,14.7c-2.1,6.3-6.3,9.5-12.6,10.5c-2.1,0-4.2,0-6.3,0c-4.2,1.1-8.4,1.1-11.6,1.1c-11.6,0-23.2,0-34.7,0
		c-20,0-38.9-1.1-57.9-1.1c-5.3,0-10.5,1.1-14.7-1.1c-6.3-2.1-10.5-6.3-11.6-12.6c0-1.1,0-3.2,0-5.3c0-2.1,0-5.3-1.1-8.4
		c0-7.4,0-15.8,0-23.2c0-8.4,0-15.8,1.1-24.2c0-2.1,0-5.3,0-8.4c0-1.1,0-3.2,0-4.2c2.1-4.2,4.2-7.4,8.4-10.5
		c1.1-1.1,3.2-1.1,4.2-2.1c1.1,0,3.2-1.1,3.2-1.1l35.8-29.5c3.2-3.2,7.4-5.3,11.6-8.4c1.1-1.1,3.2-3.2,3.2-4.2
		c1.1-2.1,1.1-5.3,1.1-7.4c0-4.2,0-9.5,0-14.7l-251.6,1.1c-2.1,2.1-6.3,7.4-9.5,9.5v155.8c5.3,0,11.6,0,16.8,0c2.1,0,6.3,0,9.5,1.1
		s4.2,3.2,5.3,5.3c1.1,4.2,0,9.5,0,13.7c0,7.4,0,14.7,0,23.2c0,5.3,1.1,13.7-4.2,16.8c-4.2,2.1-8.4,2.1-10.5-2.1
		c-2.1-3.2-2.1-9.5-2.1-12.6c0-6.3,0-11.6,0-16.8c1.1-3.2,1.1-8.4,0-11.6h-45.3c0,0,0,0,0,1.1s0,3.2,0,5.3c0,7.4,0,13.7,0,21.1
		c0,20,0,40,0,60s0,40,0,60c0,6.3,0,13.7,0,20c0,2.1,0,4.2,0,6.3c0,1.1,0,1.1,0,1.1h45.3c0-3.2,0-7.4,0-10.5c0-4.2,0-9.5,0-13.7
		c0-4.2,0-8.4,0-13.7c1.1-5.3,3.2-9.5,8.4-9.5c11.6,0,8.4,15.8,8.4,23.2c0,4.2,0,9.5,0,13.7c0,3.2,0,5.3,0,7.4c0,1.1,0,2.1,0,3.2
		c16.8,1.1,30.5,8.4,32.6,26.3c1.1,3.2,1.1,7.4,1.1,10.5c0,5.3,0,10.5,0,15.8c0,9.5,0,18.9,0,27.4h29.5c0-1.1,0-1.1,0-2.1
		c0-2.1,0-5.3,0-7.4c0-6.3,0-13.7,0-20c0-11.6,0-23.2,0-34.7c0-10.5,6.3-18.9,17.9-20c10.5,0,20,0,30.5,0v-67.4c-4.2,0-8.4,0-13.7,0
		c-3.2,0-7.4,0-10.5-1.1c-6.3-1.1-10.5-3.2-12.6-9.5c-3.2-6.3-3.2-16.8-3.2-23.2s0-12.6,1.1-18.9c0-8.4,0-16.8,0-25.3
		c0-11.6,3.2-20,14.7-22.1c4.2-1.1,10.5-1.1,14.7-1.1c7.4,0,13.7,0,20,0s12.6,0,18.9,0c9.5,0,18.9,0,28.4,0c9.5,0,18.9,0,28.4,0
		c3.2,0,12.6,0,15.8,2.1c6.3,3.2,9.5,8.4,10.5,15.8c1.1,7.4,0,15.8,0,23.2s0,14.7,0,23.2c0,6.3,0,13.7,0,20c6.3,0,13.7-1.1,20,0
		c7.4,1.1,13.7,3.2,16.8,9.5c3.2,5.3,3.2,26.3,3.2,32.6c0,7.4,0,13.7,0,21.1c-1.1,5.3-1.1,10.5-1.1,15.8c0,7.4,0,13.7-6.3,17.9
		c-7.4,6.3-30.5,4.2-42.1,4.2v67.4c5.3,0,11.6,0,17.9,0c4.2,0,7.4,0,11.6,0c2.1,0,5.3,0,7.4,1.1c6.3,2.1,6.3,11.6,1.1,14.7
		c-4.2,2.1-14.7,1.1-18.9,1.1H264.2c-11.6,0-24.2,0-35.8,0c-25.3,0-51.6,0-76.8,0s-51.6,0-76.8,0c-9.5,0-17.9,0-26.3,0
		c-3.2,0-5.3,0-8.4,0c-1.1,0-2.1,0-4.2,0c-6.3-1.1-10.5-9.5-4.2-14.7c3.2-3.2,12.6-2.1,17.9-2.1c6.3,0,12.6,0,18.9,1.1
		c5.3,0,10.5,0,15.8-1.1c0-8.4,0-16.8,0-26.3c0-16.8-3.2-35.8,12.6-47.4C104.2,530.5,109.5,529.4,117.9,529.4z M166.3,74.7
		c3.2,0,5.3-1.1,8.4-2.1c5.3-1.1,9.5-2.1,13.7-2.1s9.5,1.1,13.7,2.1c3.2,1.1,5.3,2.1,8.4,2.1V50.5h-44.2V74.7z M140,94.7
		c1.1-3.2,3.2-4.2,5.3-7.4c3.2-3.2,4.2-1.1,4.2-6.3c0-7.4,0-14.7,0-23.2v1.1c-3.2,1.1-5.3,3.2-7.4,4.2c-7.4,4.2-13.7,9.5-21.1,13.7
		c-7.4,4.2-13.7,9.5-20,13.7c-2.1,1.1-4.2,3.2-6.3,4.2H140z M227.4,52.6c0,8.4,0,17.9,0,26.3c0,1.1,0,5.3,0,5.3
		c0,1.1,3.2,3.2,3.2,3.2c3.2,2.1,5.3,4.2,6.3,7.4h236.8L360,74.7c-22.1-3.2-45.3-7.4-67.4-11.6c-11.6-1.1-22.1-3.2-33.7-5.3
		c-6.3-1.1-11.6-2.1-17.9-3.2c-2.1-1.1-5.3-1.1-8.4-2.1C230.5,52.6,229.5,52.6,227.4,52.6z M606.3,155.8c-2.1-2.1-3.2-4.2-5.3-6.3
		c-2.1-2.1-4.2-5.3-6.3-7.4c-5.3,0-15.8,1.1-18.9-3.2c-3.2-3.2-3.2-6.3-1.1-9.5c1.1-2.1,3.2-3.2,5.3-4.2l-10.5-13.7
		c-2.1-1.1-5.3-1.1-7.4-1.1c-105.3,1.1-211.6,0-316.8,0c-6.3,0-14.7,2.1-18.9-3.2c-3.2-3.2-5.3-6.3-8.4-9.5
		c-9.5-8.4-22.1-11.6-33.7-9.5c-13.7,1.1-25.3,7.4-32.6,17.9c-5.3,6.3-11.6,4.2-17.9,4.2c-13.7,0-26.3,0-40,0
		c-9.5,0-28.4-1.1-35.8,3.2c-9.5,4.2-13.7,13.7-12.6,23.2c2.1,9.5,8.4,16.8,18.9,18.9c2.1,0,4.2,0,5.3,0c3.2,0,6.3,0,9.5,0
		c7.4,0,14.7,0,22.1,0c7.4,0,15.8,0,23.2,0c6.3,0,12.6-1.1,18.9,0c3.2,0,5.3,1.1,8.4,4.2c1.1,1.1,2.1,3.2,4.2,5.3
		c8.4,9.5,21.1,13.7,33.7,13.7c11.6,0,24.2-5.3,32.6-13.7c1.1-2.1,3.2-4.2,4.2-6.3c3.2-3.2,8.4-3.2,12.6-4.2
		c5.3,0,10.5,1.1,14.7,1.1h197.9C503.1,155.8,554.7,154.7,606.3,155.8z M184.2,103.1c16.8-2.1,31.6,9.5,33.7,26.3
		c2.1,15.8-8.4,31.6-25.3,33.7c-8.4,1.1-16.8-1.1-23.2-6.3c-6.3-5.3-9.5-11.6-10.5-18.9c-1.1-7.4,0-15.8,4.2-22.1
		C168.4,108.4,175.8,104.2,184.2,103.1z M307.3,126.3c2.1-2.1,11.6-1.1,14.7-1.1c5.3,0,10.5,0,15.8,0c4.2,0,11.6-1.1,14.7,2.1
		c4.2,4.2,2.1,11.6-2.1,13.7c-3.2,1.1-12.6,1.1-14.7,1.1c-5.3,0-10.5-1.1-15.8-1.1c-4.2,0-11.6,1.1-14.7-1.1
		C300,135.8,302.1,128.4,307.3,126.3z M396.8,126.3c5.3-2.1,25.3-1.1,31.6-1.1c4.2,0,11.6-1.1,14.7,2.1c3.2,4.2,2.1,10.5-2.1,13.7
		c-3.2,1.1-12.6,1.1-15.8,1.1c-5.3,0-10.5-1.1-15.8-1.1c-4.2,0-10.5,2.1-14.7-2.1C390.5,134.7,391.5,128.4,396.8,126.3z M494.7,141
		c-5.3,0-10.5,0-11.6-6.3c-1.1-7.4,4.2-9.5,10.5-9.5h31.6c6.3,0,10.5,2.1,10.5,9.5c-1.1,6.3-5.3,6.3-10.5,6.3H494.7z M241,141
		c-12.6,0-12.6-15.8,0-15.8h13.7c13.7,0,12.6,15.8,0,15.8H241z M186.3,120c-8.4,2.1-12.6,8.4-10.5,15.8c1.1,8.4,7.4,12.6,15.8,10.5
		c7.4-1.1,11.6-8.4,10.5-15.8C200,123.1,193.7,118.9,186.3,120z M496.8,208.4l-29.5,23.2c-2.1,2.1-4.2,3.2-5.3,5.3h69.5
		c-1.1-1.1-1.1-1.1-2.1-1.1c-3.2-3.2-5.3-5.3-8.4-8.4c-3.2-2.1-7.4-4.2-10.5-7.4c-1.1-1.1-3.2-3.2-5.3-4.2L496.8,208.4z M437.9,320
		c2.1,1.1,9.5,1.1,10.5,1.1c8.4,0,16.8,0,24.2,0c8.4,0,16.8,0,25.3,0c5.3,0,11.6,0,16.8,0c9.5,0,17.9,0,27.4,0c3.2,0,9.5,1.1,11.6,0
		s2.1-2.1,2.1-3.2s0-3.2,0-4.2c0-3.2,0-5.3,0-7.4v-38.9c0-3.2,0-5.3,0-7.4c0-1.1,0-3.2,0-4.2c0-1.1,0-2.1-2.1-3.2
		c-3.2,0-8.4,0-11.6,0c-9.5,0-18.9,0-28.4,0c-5.3,0-10.5,0-15.8,0c-8.4,0-16.8,0-25.3,0c-8.4,0-15.8,0-24.2,0
		c-1.1,0-8.4,1.1-10.5,1.1c0,1.1,0,2.1,0,3.2c-1.1,2.1-1.1,5.3-1.1,7.4c0,7.4,0,14.7,0,23.2c0,7.4,0,14.7,0,22.1c0,3.2,0,5.3,0,8.4
		C437.9,317.9,437.9,318.9,437.9,320z M166.3,191.6v146.3h44.2V192.6v-1.1C192.6,196.8,184.2,197.9,166.3,191.6z M348.4,373.7
		c-1.1,9.5-1.1,58.9,0,67.4c2.1,0,7.4,0,8.4,0c6.3,1.1,12.6,1.1,17.9,1.1c10.5-1.1,21.1-1.1,32.6-1.1c3.2,0,7.4,0,11.6,0
		c6.3,0,12.6,1.1,18.9,1.1s11.6,0,17.9-1.1c2.1,0,8.4,0,9.5,0c1.1-1.1,1.1-1.1,1.1-1.1v-1.1c0-1.1,0-3.2,0-4.2c0-11.6,0-22.1,0-33.7
		c0-6.3,0-12.6,0-17.9c0-2.1,0-5.3,0-7.4c0,0,0-1.1,0-2.1c-1.1,0-1.1,0-1.1,0c-1.1,0-3.2,0-4.2,0c-5.3,0-9.5,0-13.7,0
		c-13.7,0-27.4,0-40,0c-13.7,0-27.4,0-40,0c-5.3,0-9.5,0-13.7,0c-2.1,0-3.2,0-4.2,0S348.4,373.7,348.4,373.7L348.4,373.7z
		 M388.4,525.2c1.1,0,3.2,0,4.2,0c3.2,0,7.4,0,10.5,0c10.5,0,20,0,30.5,0c16.8,0,33.7,0,51.6,0c4.2,0,15.8,2.1,20-1.1
		c1.1-1.1,1.1-2.1,1.1-2.1c0-3.2,0-5.3,0-8.4c0-7.4,0-14.7,0-22.1c0-7.4,0-14.7,0-22.1c0-3.2,0-5.3-1.1-7.4c0-1.1,0-3.2,0-3.2
		c-2.1-2.1-9.5-1.1-11.6-1.1c-20,0-38.9,0-58.9,0c-10.5,0-21.1,0-32.6,0c-3.2,0-7.4,0-10.5,0c-1.1,0-3.2,0-4.2,0c0,1.1,0,2.1,0,3.2
		c0,2.1,0,4.2,0,6.3c0,5.3,0,11.6,0,17.9c0,10.5,0,21.1,0,32.6C387.3,518.9,386.3,524.2,388.4,525.2L388.4,525.2z M134.7,529.4H180
		V354.7h-45.3V529.4z M456.8,609.4c0-3.2,0-8.4,0-9.5c1.1-6.3,1.1-13.7,1.1-20c0-11.6,0-23.2-1.1-34.7c0-1.1,0-3.2-1.1-3.2
		s-2.1,0-3.2,0c-2.1,0-3.2,0-5.3,0h-100c-2.1,0-5.3-1.1-7.4,0c-1.1,0-1.1,2.1-1.1,3.2c-1.1,11.6-1.1,23.2-1.1,34.7
		c0,6.3,0,13.7,1.1,20c0,1.1,0,6.3,0,9.5c1.1,0,1.1,0,1.1,0c1.1,0,3.2,0,4.2,0c4.2,0,9.5,0,13.7,0c13.7,0,26.3,1.1,40,1.1
		s26.3-1.1,40-1.1c4.2,0,9.5,0,13.7,0c1.1,0,3.2,0,4.2,0C455.8,609.4,455.8,609.4,456.8,609.4L456.8,609.4z M275.8,609.4
		c0-8.4,0-17.9,0-27.4c0-5.3,0-11.6,0-17.9c0-2.1,0-7.4-1.1-9.5c-1.1-3.2-5.3-6.3-9.5-7.4c-1.1-1.1-4.2-1.1-6.3-1.1
		c-4.2,0-7.4,0-11.6,0c-6.3,0-13.7,0-20,0c-21.1,0-41,0-62.1,0c-11.6,0-24.2,0-35.8,0c-4.2,0-8.4,0-12.6,0c-1.1,0-2.1,0-4.2,0
		c0,0-1.1,0-1.1,1.1c-12.6,3.2-10.5,15.8-10.5,25.3c0,12.6,0,25.3,0,36.8H275.8z"/>
</g>
</svg>
