<?xml version="1.0" encoding="utf-8"?>
<!-- Generator: Adobe Illustrator 24.1.1, SVG Export Plug-In . SVG Version: 6.00 Build 0)  -->
<svg version="1.1"
	 id="svg18" sodipodi:docname="b5fcd1cefd0b82c1bc3497639df38513.svg" xmlns:inkscape="http://www.inkscape.org/namespaces/inkscape" xmlns:sodipodi="http://sodipodi.sourceforge.net/DTD/sodipodi-0.dtd" xmlns:svg="http://www.w3.org/2000/svg"
	 xmlns="http://www.w3.org/2000/svg" xmlns:xlink="http://www.w3.org/1999/xlink" x="0px" y="0px" viewBox="0 0 661 661"
	 style="enable-background:new 0 0 661 661;" xml:space="preserve">
<style type="text/css">
	.st0{fill:none;}
	.st1{fill-rule:evenodd;clip-rule:evenodd;fill:#DCC8FF;}
	.st2{fill-rule:evenodd;clip-rule:evenodd;fill:#4806C1;}
</style>
<sodipodi:namedview  bordercolor="#666666" borderopacity="1.0" id="namedview20" inkscape:pagecheckerboard="0" inkscape:pageopacity="0.0" inkscape:pageshadow="2" pagecolor="#ffffff">
	</sodipodi:namedview>
<g id="Capa_x0020_1" inkscape:groupmode="layer" inkscape:label="Capa 1">
	<rect id="rect7" class="st0" width="661" height="661"/>
	<path id="path9" class="st1" d="M548.1,620.8c64-98.8,56.4-219.2-46.7-367.9h40.2l42.3,80.3l28.2,85.7l4.3,55.4l3.3,55.4l-8.7,32.6
		l-7.6,40.2l-13,18.5H548.1z"/>
	<path id="path11" class="st1" d="M460.2,207.3l71.6-1.1l61.9-25l-4.3-30.4c-34.7-38-108.5-39.1-185.6-36.9l-8.7,38
		C426.6,156.3,449.3,171.5,460.2,207.3L460.2,207.3z"/>
	<polygon id="polygon13" class="st1" points="124.8,423.3 111.8,462.4 109.6,519.9 111.8,550.3 147.6,535.1 145.4,411.4 	"/>
	<path id="path15" class="st2" d="M57.5,52.1c-4.3-1.1-11.9,0-14.1,5.4c-1.1,4.3,2.2,9.8,6.5,11.9l249.6,63c5.4,1.1,14.1,0,16.3-5.4
		c2.2-5.4-3.3-10.9-7.6-13L57.5,52.1z M63,307.2c0-5.4,9.8-9.8,22.8-9.8c11.9,0,21.7,4.3,21.7,9.8c0,5.4-9.8,9.8-21.7,9.8
		C72.7,316.9,63,312.6,63,307.2z M127,307.2c0-5.4,10.9-9.8,22.8-9.8c11.9,0,21.7,4.3,21.7,9.8c0,5.4-9.8,9.8-21.7,9.8
		C137.8,316.9,127,312.6,127,307.2z M117.2,362.5c-5.4,0-9.8-10.9-9.8-22.8c0-11.9,4.3-21.7,9.8-21.7c5.4,0,9.8,9.8,9.8,21.7
		S122.6,362.5,117.2,362.5z M117.2,297.4c-5.4,0-9.8-9.8-9.8-22.8c0-11.9,4.3-21.7,9.8-21.7c5.4,0,9.8,9.8,9.8,21.7
		C127,287.6,122.6,297.4,117.2,297.4z M186.7,263.7c0-5.4,9.8-9.8,21.7-9.8c13,0,22.8,4.3,22.8,9.8c0,5.4-9.8,9.8-22.8,9.8
		C196.5,273.5,186.7,269.2,186.7,263.7z M250.7,263.7c0-5.4,9.8-9.8,22.8-9.8c11.9,0,21.7,4.3,21.7,9.8c0,5.4-9.8,9.8-21.7,9.8
		C260.5,273.5,250.7,269.2,250.7,263.7z M241,319.1c-5.4,0-9.8-10.9-9.8-22.8c0-11.9,4.3-21.7,9.8-21.7s9.8,9.8,9.8,21.7
		C250.7,308.2,246.4,319.1,241,319.1z M241,254c-5.4,0-9.8-9.8-9.8-22.8c0-11.9,4.3-21.7,9.8-21.7s9.8,9.8,9.8,21.7
		C250.7,244.2,246.4,254,241,254z M41.2,145.4c0-5.4,9.8-9.8,21.7-9.8s22.8,4.3,22.8,9.8s-10.9,9.8-22.8,9.8S41.2,150.9,41.2,145.4z
		 M105.3,145.4c0-5.4,9.8-9.8,21.7-9.8c13,0,22.8,4.3,22.8,9.8s-9.8,9.8-22.8,9.8C115.1,155.2,105.3,150.9,105.3,145.4z M95.5,200.8
		c-5.4,0-9.8-10.9-9.8-22.8c0-11.9,4.3-21.7,9.8-21.7c5.4,0,8.7,9.8,8.7,21.7C104.2,189.9,100.9,200.8,95.5,200.8z M95.5,135.7
		c-5.4,0-9.8-9.8-9.8-22.8c0-11.9,4.3-21.7,9.8-21.7c5.4,0,8.7,9.8,8.7,21.7C104.2,125.9,100.9,135.7,95.5,135.7z M334.3,544.9
		l-1.1-9.8l-1.1-7.6c-27.1,0-53.2-1.1-80.3-1.1c-17.4,0-35.8,0-53.2,0c-7.6,0-15.2,0-22.8,0c-5.4,0-10.9,1.1-17.4,1.1
		c-10.9,1.1-25,2.2-33.6,9.8l-2.2,1.1v-2.2c-1.1-14.1-2.2-27.1-2.2-41.2c-1.1-9.8-1.1-20.6,0-30.4c1.1-10.9,3.3-25,9.8-33.6
		c6.5-7.6,14.1-8.7,22.8-9.8c5.4-1.1,10.9-1.1,16.3,0c6.5,0,13,0,19.5,0c60.8,0,120.5-1.1,181.3,0l16.3-19.5l0,0
		c-49.9,1.1-99.9,0-149.8,0c-16.3,0-31.5,0-46.7,0c-11.9,0-22.8,0-34.7,1.1c-14.1,1.1-30.4,3.3-40.2,15.2c-9.8,13-11.9,34.7-13,49.9
		c-1.1,15.2-1.1,30.4-1.1,44.5c1.1,20.6,1.1,41.2,1.1,60.8c1.1,22.8,6.5,43.4,28.2,52.1c9.8,4.3,20.6,5.4,30.4,5.4
		c13,1.1,25,1.1,38,1.1H356l-9.8-19.5c-30.4,0-59.7,1.1-89,1.1c-16.3,1.1-31.5,1.1-47.8,1.1c-14.1,0-28.2,0-43.4-1.1
		c-9.8,0-23.9-2.2-32.6-8.7c-21.7-17.4-10.9-49.9,15.2-56.4l0,0l0,0c5.4,0,10.9-1.1,16.3-1.1c7.6,0,15.2,0,22.8,0
		c18.5-1.1,36.9-1.1,56.4-1.1c18.5,0,36.9,0,55.4,0c7.6,0,14.1,0,21.7,0C325.6,544.9,330,544.9,334.3,544.9z M377.7,250.7
		c9.8,2.2,14.1,2.2,21.7-6.5c1.1,0,1.1-2.2,2.2-3.3c1.1-1.1,2.2-3.3,3.3-5.4c2.2-3.3,4.3-7.6,6.5-10.9c7.6-15.2,11.9-32.6,15.2-49.9
		v-1.1l1.1,1.1c15.2,4.3,19.5,17.4,22.8,31.5v1.1h-1.1c-5.4,5.4-8.7,9.8-9.8,16.3c0,3.3,0,6.5,0,9.8c0,5.4,0,9.8,0,14.1l0,0v1.1
		c-3.3,3.3-7.6,5.4-10.9,8.7c-4.3,3.3-8.7,6.5-11.9,9.8c-6.5,5.4-15.2,14.1-16.3,22.8c-1.1,7.6,2.2,15.2,6.5,21.7
		c5.4,8.7,10.9,15.2,15.2,23.9c5.4,9.8,8.7,19.5,7.6,30.4c-1.1,15.2-7.6,29.3-16.3,41.2c-3.3,3.3-6.5,7.6-9.8,10.9
		c-3.3,4.3-6.5,7.6-9.8,10.9c-21.7,18.5-32.6,43.4-36.9,70.6c-4.3,29.3-1.1,58.6,5.4,86.8c3.3,10.9,6.5,22.8,11.9,32.6
		c5.4,6.5,11.9,9.8,19.5,11.9c4.3,1.1,9.8,2.2,14.1,2.2c6.5,0,13,0,18.5,0c7.6,0,16.3,0,23.9-1.1c9.8,0,18.5,0,28.2,0
		c27.1,0,53.2,0,80.3,0c6.5,0,14.1,0,20.6,0c5.4-1.1,10.9-1.1,15.2-3.3c10.9-4.3,15.2-14.1,18.5-23.9c3.3-10.9,5.4-22.8,6.5-33.6
		c2.2-13,4.3-27.1,5.4-40.2c1.1-14.1,2.2-28.2,2.2-41.2c1.1-11.9,1.1-23.9,0-34.7c-2.2-33.6-8.7-65.1-21.7-96.6
		c-11.9-28.2-28.2-55.4-43.4-81.4c-4.3-5.4-7.6-11.9-10.9-18.5c-2.2-3.3-4.3-6.5-6.5-10.9c-1.1-3.3-3.3-7.6-3.3-10.9
		c1.1-2.2,2.2-3.3,2.2-6.5c0-4.3-2.2-10.9-3.3-15.2l-1.1-1.1l2.2-1.1c1.1,0,3.3-1.1,5.4-1.1c2.2-1.1,5.4-2.2,7.6-3.3
		c6.5-2.2,13-5.4,19.5-7.6c6.5-3.3,13-6.5,19.5-8.7c4.3-2.2,8.7-4.3,11.9-6.5c2.2-21.7-4.3-35.8-18.5-52.1c-2.2-1.1-3.3-3.3-4.3-4.3
		c-1.1-1.1-2.2-2.2-3.3-3.3c0,0-1.1-1.1-2.2-1.1c-2.2-1.1-3.3-2.2-5.4-3.3c-11.9-6.5-23.9-10.9-38-13s-29.3-2.2-43.4-2.2
		c-32.6,1.1-65.1,1.1-97.7,0c-4.3,0-8.7,0-13,0c-4.3,0-8.7,0-11.9,0c-6.5,1.1-10.9,3.3-11.9,10.9c-2.2,9.8-3.3,38,2.2,45.6
		c8.7,8.7,36.9,5.4,48.8,5.4h1.1v1.1c-2.2,13-5.4,28.2-10.9,41.2c-3.3,6.5-6.5,11.9-11.9,16.3c-2.2,2.2-5.4,5.4-6.5,8.7
		C376.6,239.9,377.7,246.4,377.7,250.7z M468.9,200.8c-6.5-31.5-30.4-51-61.9-52.1h-1.1l1.1-22.8h1.1c17.4,2.2,35.8,1.1,53.2,1.1
		c17.4-1.1,35.8-2.2,54.3-1.1c32.6,2.2,61.9,11.9,70.6,46.7l1.1,1.1l-1.1,1.1c-17.4,5.4-33.6,13-49.9,20.6
		c-10.9,4.3-20.6,6.5-32.6,6.5c-10.9,0-22.8,0-33.6,0h-1.1V200.8z M375.5,125.9h11.9l-1.1,22.8h-10.9V125.9z M460.2,221.4
		c14.1-1.1,28.2,0,42.3-1.1c4.3,0,8.7,0,13,0c2.2,1.1,5.4,1.1,6.5,3.3c2.2,1.1,2.2,4.3,2.2,6.5c0,4.3,0,8.7,0,13v1.1H458l1.1-22.8
		H460.2z M531.8,263.7c2.2,6.5,6.5,14.1,10.9,20.6c6.5,9.8,13,18.5,19.5,29.3c43.4,71.6,60.8,200.8,33.6,281.1
		c-2.2,7.6-5.4,13-8.7,16.3l0,0c-1.1,0-3.3,0-4.3,0c-2.2,0-4.3,0-6.5,1.1c-7.6,0-15.2,0-22.8,0c-20.6,1.1-41.2,1.1-63,1.1
		c-20.6,0-41.2,0-61.9,0c-7.6,0-14.1,0-21.7-1.1c-2.2,0-4.3,0-6.5,0c-1.1,0-3.3,0-4.3-1.1c-15.2-4.3-19.5-59.7-20.6-73.8
		c-1.1-16.3-1.1-32.6,3.3-48.8c3.3-10.9,7.6-20.6,15.2-29.3c5.4-8.7,13-16.3,20.6-23.9c8.7-8.7,15.2-18.5,21.7-28.2
		c13-22.8,16.3-54.3,5.4-78.1c-3.3-7.6-6.5-14.1-11.9-19.5c-2.2-2.2-3.3-3.3-5.4-5.4c-1.1-1.1-2.2-3.3-3.3-4.3
		c-2.2-3.3-1.1-6.5,1.1-9.8c2.2-2.2,4.3-4.3,6.5-6.5c3.3-3.3,7.6-6.5,10.9-9.8c3.3-2.2,6.5-5.4,8.7-6.5c2.2-2.2,4.3-3.3,7.6-4.3
		c2.2,0,5.4,0,8.7,0c4.3,0,9.8,0,14.1,0c17.4,0,34.7,0,52.1,0l0,0L531.8,263.7z M339.7,588.3c0-2.2-1.1-8.7-1.1-9.8
		c0-2.2,0-4.3,0-6.5c-1.1-1.1-1.1-2.2-1.1-3.3c-30.4,1.1-59.7,0-90.1,0c-16.3,0-32.6,0-48.8,0c-13,0-26,0-40.2,1.1
		c-16.3,2.2-21.7,17.4-1.1,19.5c5.4,0,11.9,0,17.4,0c8.7,1.1,16.3,1.1,25,1.1c19.5,0,39.1,0,58.6,0c18.5-1.1,35.8-1.1,54.3-1.1
		c5.4,0,11.9-1.1,18.5-1.1C333.2,588.3,336.5,588.3,339.7,588.3L339.7,588.3z M314.8,171.5c0-3.3,0-7.6-1.1-10.9
		c-1.1-2.2-3.3-4.3-5.4-4.3c-2.2,0-5.4,0-8.7,1.1c-4.3,0-7.6,2.2-11.9,3.3l-182.3,45.6c-13,3.3-25,6.5-38,8.7
		c-4.3,1.1-7.6,2.2-10.9,3.3c-3.3,0-5.4,1.1-7.6,2.2c-5.4,3.3-4.3,9.8-4.3,15.2c8.7,3.3,22.8,1.1,31.5-1.1c6.5-1.1,13-3.3,19.5-5.4
		c5.4-1.1,10.9-3.3,17.4-4.3c15.2-4.3,30.4-7.6,45.6-11.9c21.7-4.3,43.4-9.8,65.1-15.2c20.6-5.4,41.2-9.8,60.8-16.3
		c7.6-1.1,14.1-3.3,21.7-5.4C308.2,174.7,312.6,172.6,314.8,171.5z"/>
</g>
</svg>
