<?xml version="1.0" encoding="utf-8"?>
<!-- Generator: Adobe Illustrator 24.1.1, SVG Export Plug-In . SVG Version: 6.00 Build 0)  -->
<svg version="1.1"
	 id="svg21" sodipodi:docname="f992cc0eef7ae839a24a0a673c1748f2.svg" xmlns:inkscape="http://www.inkscape.org/namespaces/inkscape" xmlns:sodipodi="http://sodipodi.sourceforge.net/DTD/sodipodi-0.dtd" xmlns:svg="http://www.w3.org/2000/svg"
	 xmlns="http://www.w3.org/2000/svg" xmlns:xlink="http://www.w3.org/1999/xlink" x="0px" y="0px" viewBox="0 0 661 661"
	 style="enable-background:new 0 0 661 661;" xml:space="preserve">
<style type="text/css">
	.st0{fill-rule:evenodd;clip-rule:evenodd;fill:#DCC8FF;}
	.st1{fill:none;}
	.st2{fill:#4806C1;}
</style>
<sodipodi:namedview  bordercolor="#666666" borderopacity="1.0" id="namedview23" inkscape:pagecheckerboard="0" inkscape:pageopacity="0.0" inkscape:pageshadow="2" pagecolor="#ffffff">
	</sodipodi:namedview>
<g id="Capa_x0020_1" inkscape:groupmode="layer" inkscape:label="Capa 1">
	<path id="path7" class="st0" d="M329.9,579.6c138.2,0,249.7-111.5,249.7-249.7c0-137.1-111.5-248.6-249.7-248.6
		c-137.1,0-248.6,111.5-248.6,248.6C81.4,468.2,192.8,579.6,329.9,579.6L329.9,579.6z M329.9,545.1c119.3,0,215.1-95.9,215.1-215.1
		c0-118.2-95.9-214-215.1-214c-118.2,0-214,95.9-214,214C115.9,449.2,211.8,545.1,329.9,545.1z"/>
	<circle id="circle9" class="st0" cx="217.4" cy="329.9" r="27.9"/>
	
		<ellipse id="circle11" transform="matrix(0.1602 -0.9871 0.9871 0.1602 47.8298 716.1026)" class="st0" cx="444.8" cy="329.9" rx="23.4" ry="23.4"/>
	<ellipse id="ellipse13" class="st0" cx="332.2" cy="332.2" rx="25.6" ry="30.1"/>
	<g id="_2670192218032">
		<rect id="rect15" class="st1" width="661" height="661"/>
		<path id="path17" class="st2" d="M329.9,572.9c66.9,0,128.2-27.9,171.7-71.3s71.3-104.8,71.3-171.7s-27.9-127.1-71.3-170.5
			c-43.5-44.6-104.8-71.3-171.7-71.3s-127.1,26.8-170.5,71.3c-44.6,43.5-71.3,103.7-71.3,170.5s26.8,128.2,71.3,171.7
			C202.9,545.1,263.1,572.9,329.9,572.9z M516.1,516.1C468.2,562.9,402.4,593,329.9,593s-137.1-30.1-185-76.9
			C97,468.2,68,402.4,68,329.9s29-137.1,76.9-185S257.5,68,329.9,68s138.2,29,186.2,76.9c46.8,47.9,76.9,112.6,76.9,185
			S562.9,468.2,516.1,516.1z M443.6,350c5.6,0,10-2.2,14.5-5.6c3.3-3.3,5.6-8.9,5.6-14.5c0-4.5-2.2-10-5.6-13.4
			c-4.5-3.3-8.9-5.6-14.5-5.6s-10,2.2-13.4,5.6c-4.5,3.3-6.7,8.9-6.7,13.4c0,5.6,2.2,11.1,6.7,14.5C433.6,347.8,438.1,350,443.6,350
			L443.6,350z M471.5,358.9c-6.7,6.7-16.7,11.1-27.9,11.1s-21.2-4.5-27.9-11.1c-7.8-7.8-12.3-17.8-12.3-29c0-10,4.5-20.1,12.3-27.9
			c6.7-6.7,16.7-11.1,27.9-11.1s21.2,4.5,27.9,11.1c7.8,7.8,12.3,17.8,12.3,27.9C483.8,341.1,479.3,351.1,471.5,358.9L471.5,358.9z
			 M329.9,350c5.6,0,11.1-2.2,14.5-5.6c3.3-3.3,5.6-8.9,5.6-14.5c0-4.5-2.2-10-5.6-13.4c-3.3-3.3-8.9-5.6-14.5-5.6
			c-4.5,0-10,2.2-13.4,5.6c-3.3,3.3-5.6,8.9-5.6,13.4c0,5.6,2.2,11.1,5.6,14.5C319.9,347.8,325.5,350,329.9,350L329.9,350z
			 M358.9,358.9c-7.8,6.7-17.8,11.1-29,11.1c-10,0-20.1-4.5-27.9-11.1c-6.7-7.8-11.1-17.8-11.1-29c0-10,4.5-20.1,11.1-27.9
			c7.8-6.7,17.8-11.1,27.9-11.1c11.1,0,21.2,4.5,29,11.1c6.7,7.8,11.1,17.8,11.1,27.9C370.1,341.1,365.6,351.1,358.9,358.9
			L358.9,358.9z M217.4,350c5.6,0,10-2.2,13.4-5.6c4.5-3.3,5.6-8.9,5.6-14.5c0-4.5-1.1-10-5.6-13.4c-3.3-3.3-7.8-5.6-13.4-5.6
			c-5.6,0-11.1,2.2-14.5,5.6c-3.3,3.3-5.6,8.9-5.6,13.4c0,5.6,2.2,11.1,5.6,14.5C206.2,347.8,211.8,350,217.4,350L217.4,350z
			 M245.2,358.9c-6.7,6.7-16.7,11.1-27.9,11.1c-11.1,0-21.2-4.5-29-11.1c-6.7-7.8-11.1-17.8-11.1-29c0-10,4.5-20.1,11.1-27.9
			c7.8-6.7,17.8-11.1,29-11.1c11.1,0,21.2,4.5,27.9,11.1c6.7,7.8,11.1,17.8,11.1,27.9C256.4,341.1,251.9,351.1,245.2,358.9z"/>
	</g>
</g>
</svg>
